<svg width="24" height="24" viewBox="0 0 24 24" fill="none" xmlns="http://www.w3.org/2000/svg">
<path d="M7.87895 6.25316L10.1429 7.52016L8.87495 5.25716L10.1429 2.99316L7.87895 4.26116L5.61495 2.99316L6.88295 5.25716L5.61495 7.52016L7.87895 6.25316ZM18.7439 15.1262L16.4799 13.8582L17.7479 16.1222L16.4799 18.3862L18.7439 17.1182L21.0079 18.3862L19.74 16.1222L21.0079 13.8582L18.7439 15.1262ZM21.0079 2.99316L18.7439 4.26116L16.4809 2.99316L17.7489 5.25716L16.4809 7.52016L18.7439 6.25316L21.0079 7.52116L19.74 5.25716L21.0079 2.99316ZM14.0989 7.78316C14.0153 7.69896 13.9158 7.63213 13.8062 7.58653C13.6967 7.54093 13.5791 7.51745 13.4604 7.51745C13.3418 7.51745 13.2242 7.54093 13.1147 7.58653C13.0051 7.63213 12.9056 7.69896 12.8219 7.78316L2.25595 18.3492C2.17174 18.4328 2.10492 18.5323 2.05931 18.6419C2.01371 18.7515 1.99023 18.869 1.99023 18.9877C1.99023 19.1064 2.01371 19.2239 2.05931 19.3335C2.10492 19.443 2.17174 19.5425 2.25595 19.6262L4.37495 21.7452C4.4586 21.8294 4.55808 21.8962 4.66766 21.9418C4.77724 21.9874 4.89476 22.0109 5.01345 22.0109C5.13214 22.0109 5.24966 21.9874 5.35924 21.9418C5.46882 21.8962 5.5683 21.8294 5.65195 21.7452L16.2089 11.1872C16.2932 11.1035 16.36 11.004 16.4056 10.8945C16.4512 10.7849 16.4747 10.6674 16.4747 10.5487C16.4747 10.43 16.4512 10.3125 16.4056 10.2029C16.36 10.0933 16.2932 9.99381 16.2089 9.91016L14.0989 7.78316ZM13.1659 12.7542L11.2469 10.8342L13.4559 8.62516L15.3749 10.5442L13.1669 12.7532L13.1659 12.7542Z" fill="white"/>
</svg>
