<svg width="32" height="32" viewBox="0 0 32 32" fill="none" xmlns="http://www.w3.org/2000/svg">
<rect width="32" height="32" fill="#B5B5B5" rx="7px" ry="7px"></rect>
<path d="M13.125 12.925C12.5417 12.525 12.0792 12.0083 11.7375 11.375C11.3958 10.7417 11.225 10.0667 11.225 9.35C11.225 8.15 11.6583 7.125 12.525 6.275C13.3917 5.425 14.425 5 15.625 5C16.825 5 17.8583 5.425 18.725 6.275C19.5917 7.125 20.025 8.15 20.025 9.35C20.025 10.05 19.8667 10.7208 19.55 11.3625C19.2333 12.0042 18.7583 12.525 18.125 12.925V9.7C18.125 9 17.8833 8.41667 17.4 7.95C16.9167 7.48333 16.325 7.25 15.625 7.25C14.925 7.25 14.3333 7.48333 13.85 7.95C13.3667 8.41667 13.125 9 13.125 9.7V12.925ZM15.125 26C14.8417 26 14.575 25.9458 14.325 25.8375C14.075 25.7292 13.8583 25.5833 13.675 25.4L8.75 20.5L9.35 19.875C9.55 19.675 9.75417 19.5458 9.9625 19.4875C10.1708 19.4292 10.4167 19.425 10.7 19.475L13.875 20.025V9.75C13.875 9.25 14.0417 8.83333 14.375 8.5C14.7083 8.16667 15.125 8 15.625 8C16.125 8 16.5417 8.16667 16.875 8.5C17.2083 8.83333 17.375 9.25 17.375 9.75V15.25H17.625C17.8417 15.25 18.075 15.275 18.325 15.325C18.575 15.375 18.8167 15.4583 19.05 15.575L22.725 17.2C23.1917 17.4 23.5292 17.725 23.7375 18.175C23.9458 18.625 24.0083 19.1083 23.925 19.625L23.075 24.35C22.9917 24.8333 22.7583 25.2292 22.375 25.5375C21.9917 25.8458 21.5583 26 21.075 26H15.125Z" fill="#5F6164"/>
</svg>
