<svg width="32" height="32" viewBox="0 0 32 32" fill="none" xmlns="http://www.w3.org/2000/svg">
<rect width="32" height="32" fill="#B5B5B5" rx="7px" ry="7px"></rect>
<path d="M11.724 10.0389L14.0719 11.3529L12.7569 9.00605L14.0719 6.6582L11.724 7.97317L9.37615 6.6582L10.6911 9.00605L9.37615 11.3529L11.724 10.0389ZM22.9914 19.2406L20.6436 17.9256L21.9585 20.2735L20.6436 22.6213L22.9914 21.3064L25.3393 22.6213L24.0243 20.2735L25.3393 17.9256L22.9914 19.2406ZM25.3393 6.6582L22.9914 7.97317L20.6446 6.6582L21.9596 9.00605L20.6446 11.3529L22.9914 10.0389L25.3393 11.3539L24.0243 9.00605L25.3393 6.6582ZM18.1744 11.6256C18.0876 11.5383 17.9845 11.469 17.8708 11.4217C17.7572 11.3744 17.6353 11.3501 17.5122 11.3501C17.3891 11.3501 17.2673 11.3744 17.1536 11.4217C17.04 11.469 16.9368 11.5383 16.8501 11.6256L5.89274 22.5829C5.80542 22.6697 5.73612 22.7729 5.68883 22.8865C5.64153 23.0001 5.61719 23.122 5.61719 23.2451C5.61719 23.3682 5.64153 23.4901 5.68883 23.6037C5.73612 23.7173 5.80542 23.8205 5.89274 23.9072L8.09023 26.1047C8.17697 26.192 8.28014 26.2613 8.39377 26.3086C8.50741 26.3559 8.62929 26.3803 8.75237 26.3803C8.87546 26.3803 8.99733 26.3559 9.11097 26.3086C9.22461 26.2613 9.32777 26.192 9.41452 26.1047L20.3625 15.1557C20.4498 15.0689 20.5191 14.9658 20.5664 14.8521C20.6137 14.7385 20.6381 14.6166 20.6381 14.4935C20.6381 14.3704 20.6137 14.2486 20.5664 14.1349C20.5191 14.0213 20.4498 13.9181 20.3625 13.8314L18.1744 11.6256ZM17.2068 16.7807L15.2167 14.7896L17.5076 12.4988L19.4976 14.4889L17.2079 16.7797L17.2068 16.7807Z" fill="url(#paint0_linear_1193_9593)"/>
<defs>
<linearGradient id="paint0_linear_1193_9593" x1="15.4782" y1="6.6582" x2="15.4782" y2="26.3803" gradientUnits="userSpaceOnUse">
<stop stop-color="#3580E3"/>
<stop offset="0.49" stop-color="#8579F3"/>
<stop offset="1" stop-color="#B578EF"/>
</linearGradient>
</defs>
</svg>
