<svg width="24" height="24" viewBox="0 0 24 24" fill="none" xmlns="http://www.w3.org/2000/svg">
<path d="M19.7455 18.7925C19.5789 18.5534 19.3409 18.3721 19.0649 18.2743L18.1814 9.50562C18.4561 9.3886 18.686 9.18782 18.8377 8.93243C18.9895 8.67704 19.0552 8.38034 19.0253 8.0854C18.9955 7.79046 18.8716 7.51264 18.6716 7.29227C18.4717 7.07191 18.2061 6.92047 17.9135 6.85995L17.7161 4.90249C17.7694 4.87618 17.821 4.8466 17.8706 4.81391C18.1381 4.63137 18.3339 4.36288 18.4249 4.05377C18.516 3.74467 18.4966 3.41389 18.3702 3.11728C18.2438 2.82067 18.018 2.57641 17.731 2.42574C17.444 2.27507 17.1133 2.22722 16.7949 2.29027C16.4764 2.35333 16.1897 2.52342 15.983 2.77183C15.7764 3.02023 15.6625 3.33174 15.6606 3.65375C15.6588 3.97576 15.769 4.28854 15.9728 4.53928C16.1765 4.79002 16.4613 4.96336 16.779 5.03003L16.9764 6.98838C16.7265 7.11694 16.5213 7.3169 16.3872 7.56239C16.2531 7.80788 16.1964 8.08761 16.2244 8.3654C16.2524 8.64319 16.3638 8.90626 16.5442 9.12059C16.7246 9.33492 16.9658 9.49064 17.2364 9.56762L18.0001 17.153L15.1649 9.82714C15.3879 9.64019 15.5468 9.38907 15.6193 9.1086C15.6919 8.82813 15.6747 8.53221 15.5701 8.26188C15.4654 7.99155 15.2785 7.76021 15.0353 7.59995C14.7921 7.43968 14.5046 7.35843 14.2127 7.36747L13.0962 4.46759C13.3511 4.25739 13.5229 3.96469 13.5814 3.64111C13.6399 3.31753 13.5812 2.98386 13.4158 2.69897C13.2504 2.41408 12.9888 2.19627 12.6773 2.08395C12.3657 1.97163 12.0241 1.97203 11.7128 2.08507C11.4015 2.19811 11.1405 2.41653 10.9757 2.70181C10.811 2.98708 10.7531 3.32088 10.8124 3.64432C10.8716 3.96777 11.0442 4.26007 11.2995 4.46968C11.5549 4.67929 11.8768 4.79273 12.2083 4.79L13.3356 7.70405C13.1179 7.89186 12.9637 8.14152 12.8939 8.41916C12.8241 8.69681 12.8421 8.98901 12.9455 9.25616C13.0489 9.52331 13.2326 9.75249 13.4717 9.91261C13.7109 10.0727 13.9939 10.1561 14.2824 10.1513L16.9139 16.9511L12.4843 10.5986C12.6536 10.3651 12.746 10.0853 12.7486 9.79769C12.7513 9.51006 12.6642 9.22866 12.4993 8.99205C12.3343 8.75545 12.0996 8.57522 11.8273 8.47609C11.555 8.37695 11.2584 8.36376 10.9783 8.43832L8.41109 4.75634C8.59222 4.48107 8.66951 4.15122 8.62934 3.82496C8.58916 3.4987 8.4341 3.19698 8.19149 2.97302C7.94888 2.74905 7.63432 2.61722 7.30326 2.60077C6.9722 2.58431 6.64591 2.6843 6.38194 2.8831C6.11797 3.08189 5.93326 3.36672 5.86039 3.68737C5.78752 4.00801 5.83117 4.34387 5.98364 4.63572C6.13611 4.92756 6.38761 5.15666 6.69378 5.2826C6.99996 5.40854 7.34115 5.42323 7.65718 5.32409L10.2003 8.97064C10.0313 9.20419 9.93922 9.48384 9.93671 9.77128C9.9342 10.0587 10.0214 10.3399 10.1862 10.5763C10.3511 10.8127 10.5857 10.9928 10.8578 11.092C11.1299 11.1911 11.4263 11.2044 11.7063 11.13L16.0251 17.3301L10.5835 13.4861C10.6741 13.2085 10.6747 12.9098 10.5851 12.6319C10.4955 12.354 10.3202 12.111 10.084 11.9371C9.84774 11.7632 9.56243 11.6672 9.26825 11.6625C8.97407 11.6579 8.68583 11.7449 8.44414 11.9113C8.42895 11.9219 8.41466 11.9334 8.40037 11.9449L5.76439 10.0849C5.85119 9.76854 5.82285 9.43198 5.68434 9.13428C5.54584 8.83658 5.30602 8.59677 5.00698 8.45692C4.70793 8.31707 4.36877 8.28613 4.04901 8.36953C3.72925 8.45292 3.44933 8.64532 3.25837 8.91296C3.06741 9.1806 2.97762 9.50638 3.00475 9.83313C3.03187 10.1599 3.17419 10.4667 3.40673 10.6998C3.63926 10.9328 3.94714 11.0773 4.27635 11.1077C4.60556 11.1381 4.93505 11.0526 5.207 10.8661L5.22308 10.8537L7.87871 12.7244C7.81059 12.9956 7.82635 13.281 7.92395 13.5432C8.02154 13.8055 8.19645 14.0326 8.42593 14.195C8.65542 14.3574 8.92887 14.4476 9.21074 14.4539C9.4926 14.4601 9.76985 14.3822 10.0064 14.2301L17.1283 19.2575L11.7688 19.1353C11.6906 18.9069 11.554 18.7025 11.3723 18.5422C11.1906 18.3819 10.97 18.2711 10.7321 18.2206C10.4943 18.1702 10.2473 18.1818 10.0153 18.2544C9.78337 18.3271 9.57439 18.4581 9.40885 18.6348L7.6286 17.9014C7.65319 17.5744 7.56054 17.2492 7.36698 16.9832C7.17341 16.7172 6.89137 16.5275 6.57056 16.4476C6.24975 16.3676 5.91078 16.4025 5.61339 16.5462C5.31601 16.6898 5.07932 16.9329 4.94503 17.2327C4.81074 17.5324 4.78749 17.8696 4.87937 18.1847C4.97125 18.4998 5.17236 18.7726 5.44725 18.955C5.72214 19.1375 6.05316 19.2178 6.38196 19.1819C6.71076 19.146 7.01622 18.9962 7.2445 18.7588L9.031 19.4966C9.00431 19.8334 9.10184 20.1683 9.30544 20.4391C9.50904 20.7099 9.80488 20.8982 10.138 20.969C10.4711 21.0398 10.8187 20.9883 11.1164 20.824C11.4141 20.6598 11.6414 20.3939 11.7563 20.0759L17.3284 20.2035C17.4133 20.3763 17.5333 20.5298 17.6809 20.6545C17.8286 20.7792 18.0006 20.8722 18.1862 20.9278C18.3717 20.9834 18.5669 21.0004 18.7595 20.9777C18.952 20.955 19.1377 20.893 19.3049 20.7957C19.4722 20.6985 19.6173 20.568 19.7313 20.4124C19.8453 20.2569 19.9256 20.0797 19.9672 19.8919C20.0088 19.7042 20.0109 19.5099 19.9732 19.3213C19.9355 19.1327 19.8589 18.9539 19.7482 18.796" fill="#7D7F84"/>
</svg>
