<svg width="20" height="20" viewBox="0 0 20 20" fill="none" xmlns="http://www.w3.org/2000/svg">
<path d="M10.0005 8.07401C10.3814 8.07401 10.7538 8.18697 11.0705 8.3986C11.3873 8.61023 11.6341 8.91103 11.7799 9.26296C11.9257 9.61489 11.9638 10.0021 11.8895 10.3758C11.8152 10.7494 11.6317 11.0925 11.3624 11.3619C11.093 11.6313 10.7499 11.8147 10.3762 11.889C10.0026 11.9633 9.61538 11.9252 9.26345 11.7794C8.91152 11.6336 8.61072 11.3868 8.39909 11.07C8.18746 10.7533 8.0745 10.3809 8.0745 10C8.07608 9.48969 8.27951 9.00072 8.64036 8.63987C9.00121 8.27902 9.49018 8.07559 10.0005 8.07401ZM10.0005 6.79001C9.36542 6.79001 8.74461 6.97833 8.21656 7.33116C7.68852 7.68399 7.27696 8.18548 7.03392 8.77222C6.79089 9.35895 6.7273 10.0046 6.8512 10.6274C6.9751 11.2503 7.28091 11.8225 7.72998 12.2715C8.17905 12.7206 8.75119 13.0264 9.37406 13.1503C9.99694 13.2742 10.6426 13.2106 11.2293 12.9676C11.816 12.7246 12.3175 12.313 12.6703 11.7849C13.0232 11.2569 13.2115 10.6361 13.2115 10.001C13.2112 9.14948 12.8728 8.33291 12.2707 7.73078C11.6686 7.12866 10.852 6.79028 10.0005 6.79001ZM3.5795 10.643H4.8635C5.03377 10.643 5.19706 10.5754 5.31746 10.455C5.43786 10.3346 5.5055 10.1713 5.5055 10.001C5.5055 9.83074 5.43786 9.66745 5.31746 9.54705C5.19706 9.42665 5.03377 9.35901 4.8635 9.35901H3.5795C3.40923 9.35901 3.24594 9.42665 3.12554 9.54705C3.00514 9.66745 2.9375 9.83074 2.9375 10.001C2.9375 10.1713 3.00514 10.3346 3.12554 10.455C3.24594 10.5754 3.40923 10.643 3.5795 10.643V10.643ZM15.1375 10.643H16.4215C16.5918 10.643 16.7551 10.5754 16.8755 10.455C16.9959 10.3346 17.0635 10.1713 17.0635 10.001C17.0635 9.83074 16.9959 9.66745 16.8755 9.54705C16.7551 9.42665 16.5918 9.35901 16.4215 9.35901H15.1375C14.9672 9.35901 14.8039 9.42665 14.6835 9.54705C14.5631 9.66745 14.4955 9.83074 14.4955 10.001C14.4955 10.1713 14.5631 10.3346 14.6835 10.455C14.8039 10.5754 14.9672 10.643 15.1375 10.643ZM9.3585 3.57901V4.86301C9.3585 5.03328 9.42614 5.19658 9.54654 5.31697C9.66694 5.43737 9.83023 5.50501 10.0005 5.50501C10.1708 5.50501 10.3341 5.43737 10.4545 5.31697C10.5749 5.19658 10.6425 5.03328 10.6425 4.86301V3.57901C10.6425 3.40874 10.5749 3.24545 10.4545 3.12505C10.3341 3.00465 10.1708 2.93701 10.0005 2.93701C9.83023 2.93701 9.66694 3.00465 9.54654 3.12505C9.42614 3.24545 9.3585 3.40874 9.3585 3.57901V3.57901ZM9.3585 15.137V16.421C9.3585 16.5913 9.42614 16.7546 9.54654 16.875C9.66694 16.9954 9.83023 17.063 10.0005 17.063C10.1708 17.063 10.3341 16.9954 10.4545 16.875C10.5749 16.7546 10.6425 16.5913 10.6425 16.421V15.137C10.6425 14.9667 10.5749 14.8034 10.4545 14.683C10.3341 14.5627 10.1708 14.495 10.0005 14.495C9.83023 14.495 9.66694 14.5627 9.54654 14.683C9.42614 14.8034 9.3585 14.9667 9.3585 15.137ZM6.1375 5.23701C6.01457 5.13776 5.85927 5.08749 5.7015 5.09587C5.54373 5.10426 5.39463 5.1707 5.28291 5.28242C5.17119 5.39414 5.10474 5.54324 5.09636 5.70101C5.08798 5.85878 5.13825 6.01408 5.2375 6.13701L5.9185 6.81801C5.9776 6.87887 6.04822 6.92737 6.12623 6.96069C6.20425 6.99401 6.28811 7.01149 6.37294 7.01211C6.45777 7.01273 6.54188 6.99648 6.62037 6.9643C6.69886 6.93212 6.77018 6.88466 6.83016 6.82467C6.89015 6.76469 6.93761 6.69337 6.96979 6.61488C7.00197 6.53639 7.01822 6.45228 7.0176 6.36745C7.01698 6.28262 6.9995 6.19876 6.96618 6.12074C6.93286 6.04273 6.88436 5.97211 6.8235 5.91301L6.1375 5.23701ZM14.0805 13.18C14.0214 13.1192 13.9508 13.0707 13.8728 13.0373C13.7948 13.004 13.7109 12.9865 13.6261 12.9859C13.5412 12.9853 13.4571 13.0015 13.3786 13.0337C13.3001 13.0659 13.2288 13.1134 13.1688 13.1733C13.1089 13.2333 13.0614 13.3046 13.0292 13.3831C12.997 13.4616 12.9808 13.5457 12.9814 13.6306C12.982 13.7154 12.9995 13.7993 13.0328 13.8773C13.0661 13.9553 13.1146 14.0259 13.1755 14.085L13.8565 14.766C13.9771 14.8831 14.1389 14.9481 14.3071 14.9469C14.4752 14.9457 14.6361 14.8783 14.7549 14.7594C14.8738 14.6406 14.9411 14.4797 14.9424 14.3116C14.9436 14.1435 14.8786 13.9816 14.7615 13.861L14.0805 13.18ZM14.7655 6.13701C14.8826 6.01641 14.9476 5.85456 14.9464 5.68645C14.9451 5.51833 14.8778 5.35746 14.7589 5.23858C14.6401 5.1197 14.4792 5.05237 14.3111 5.05114C14.1429 5.04991 13.9811 5.11488 13.8605 5.23201L13.1795 5.91301C13.1186 5.97211 13.0701 6.04273 13.0368 6.12074C13.0035 6.19876 12.986 6.28262 12.9854 6.36745C12.9848 6.45228 13.001 6.53639 13.0332 6.61488C13.0654 6.69337 13.1129 6.76469 13.1728 6.82467C13.2328 6.88466 13.3041 6.93212 13.3826 6.9643C13.4611 6.99648 13.5452 7.01273 13.6301 7.01211C13.7149 7.01149 13.7988 6.99401 13.8768 6.96069C13.9548 6.92737 14.0254 6.87887 14.0845 6.81801L14.7655 6.13701ZM6.8225 14.084C6.88336 14.0249 6.93186 13.9543 6.96518 13.8763C6.9985 13.7983 7.01598 13.7144 7.0166 13.6296C7.01722 13.5447 7.00097 13.4606 6.96879 13.3821C6.93661 13.3036 6.88915 13.2323 6.82916 13.1723C6.76918 13.1124 6.69786 13.0649 6.61937 13.0327C6.54088 13.0005 6.45677 12.9843 6.37194 12.9849C6.28711 12.9855 6.20324 13.003 6.12523 13.0363C6.04721 13.0697 5.9766 13.1182 5.9175 13.179L5.2365 13.86C5.11937 13.9806 5.0544 14.1425 5.05563 14.3106C5.05686 14.4787 5.12419 14.6396 5.24307 14.7584C5.36194 14.8773 5.52282 14.9447 5.69094 14.9459C5.85905 14.9471 6.0209 14.8821 6.1415 14.765L6.8225 14.084Z" fill="white"/>
</svg>
