<svg width="32" height="32" viewBox="0 0 32 32" fill="none" xmlns="http://www.w3.org/2000/svg">
<path d="M15.738 10.83H16.506V15.156H15.738V10.83ZM18.8762 14.532C19.1522 14.532 19.3522 14.484 19.4762 14.388C19.6002 14.288 19.6622 14.164 19.6622 14.016V13.95C19.6622 13.774 19.5962 13.644 19.4642 13.56C19.3362 13.472 19.1482 13.4 18.9002 13.344C18.7202 13.304 18.5382 13.262 18.3542 13.218C18.1742 13.174 18.0102 13.108 17.8622 13.02C17.7182 12.932 17.6002 12.814 17.5082 12.666C17.4162 12.514 17.3702 12.312 17.3702 12.06V11.982C17.3702 11.85 17.3962 11.714 17.4482 11.574C17.5002 11.43 17.5862 11.298 17.7062 11.178C17.8262 11.058 17.9842 10.96 18.1802 10.884C18.3802 10.804 18.6262 10.764 18.9182 10.764C19.1582 10.764 19.3882 10.79 19.6082 10.842C19.8282 10.89 20.0482 10.984 20.2682 11.124L19.9082 11.718C19.7322 11.606 19.5682 11.534 19.4162 11.502C19.2642 11.466 19.1022 11.448 18.9302 11.448C18.7942 11.448 18.6762 11.464 18.5762 11.496C18.4762 11.528 18.3922 11.57 18.3242 11.622C18.2602 11.674 18.2122 11.73 18.1802 11.79C18.1482 11.85 18.1322 11.91 18.1322 11.97V12.042C18.1322 12.146 18.1562 12.23 18.2042 12.294C18.2562 12.358 18.3242 12.412 18.4082 12.456C18.4922 12.496 18.5902 12.53 18.7022 12.558C18.8182 12.582 18.9402 12.608 19.0682 12.636C19.3242 12.692 19.5382 12.762 19.7102 12.846C19.8862 12.926 20.0262 13.018 20.1302 13.122C20.2382 13.226 20.3142 13.342 20.3582 13.47C20.4062 13.594 20.4302 13.73 20.4302 13.878V13.956C20.4302 14.196 20.3862 14.398 20.2982 14.562C20.2142 14.722 20.0982 14.852 19.9502 14.952C19.8022 15.048 19.6322 15.116 19.4402 15.156C19.2482 15.2 19.0482 15.222 18.8402 15.222C18.6842 15.222 18.5302 15.208 18.3782 15.18C18.2302 15.156 18.0902 15.122 17.9582 15.078C17.8262 15.034 17.7022 14.982 17.5862 14.922C17.4742 14.858 17.3762 14.792 17.2922 14.724L17.6642 14.112C17.7962 14.224 17.9662 14.322 18.1742 14.406C18.3822 14.49 18.6162 14.532 18.8762 14.532Z" fill="#737680"/>
<path d="M23.4675 7.17095C21.749 5.45243 19.675 4.6228 17.3046 4.6228C15.2305 4.6228 13.275 5.33391 11.5564 6.75614C9.83792 8.17836 8.83051 10.1339 8.59347 12.6821L6.5194 15.7043C6.2231 16.0598 6.2231 16.4154 6.34162 16.7709C6.5194 17.0672 6.8157 17.245 7.28977 17.245H8.53422V21.6895C8.53422 22.1043 8.71199 22.4598 9.00829 22.7561C9.30459 23.0524 9.66014 23.2302 10.075 23.2302H12.8601V26.4302C12.8601 26.7265 12.9787 26.9043 13.1564 27.1413C13.3342 27.3784 13.5713 27.4376 13.8675 27.4376H19.3787C19.675 27.4376 19.8527 27.3191 20.0898 27.1413C20.3268 26.9635 20.3861 26.7265 20.3861 26.4302V21.3932C22.1046 20.5635 23.5268 19.4376 24.5935 18.0747C25.6601 16.7117 26.1342 15.1117 26.1342 13.3339C26.075 10.9043 25.1861 8.88947 23.4675 7.17095ZM17.6009 18.2524C13.9861 18.2524 11.3787 15.8228 11.3787 12.8598C11.3787 9.89688 13.9861 7.46725 17.6009 7.46725C21.2157 7.46725 23.8231 9.89688 23.8231 12.8598C23.8231 15.8228 21.2157 18.2524 17.6009 18.2524Z" fill="#737680"/>
<mask id="mask0_2219_167" style="mask-type:alpha" maskUnits="userSpaceOnUse" x="6" y="4" width="21" height="24">
<path d="M23.4675 7.17095C21.749 5.45243 19.675 4.6228 17.3046 4.6228C15.2305 4.6228 13.275 5.33391 11.5564 6.75614C9.83792 8.17836 8.83051 10.1339 8.59347 12.6821L6.5194 15.7043C6.2231 16.0598 6.2231 16.4154 6.34162 16.7709C6.5194 17.0672 6.8157 17.245 7.28977 17.245H8.53422V21.6895C8.53422 22.1043 8.71199 22.4598 9.00829 22.7561C9.30459 23.0524 9.66014 23.2302 10.075 23.2302H12.8601V26.4302C12.8601 26.7265 12.9787 26.9043 13.1564 27.1413C13.3342 27.3784 13.5713 27.4376 13.8675 27.4376H19.3787C19.675 27.4376 19.8527 27.3191 20.0898 27.1413C20.3268 26.9635 20.3861 26.7265 20.3861 26.4302V21.3932C22.1046 20.5635 23.5268 19.4376 24.5935 18.0747C25.6601 16.7117 26.1342 15.1117 26.1342 13.3339C26.075 10.9043 25.1861 8.88947 23.4675 7.17095ZM17.6009 18.2524C13.9861 18.2524 11.3787 15.8228 11.3787 12.8598C11.3787 9.89688 13.9861 7.46725 17.6009 7.46725C21.2157 7.46725 23.8231 9.89688 23.8231 12.8598C23.8231 15.8228 21.2157 18.2524 17.6009 18.2524Z" fill="#737680"/>
</mask>
<g mask="url(#mask0_2219_167)">
<path d="M6.74557 41.9331C1.99551 41.6842 0.339085 35.5023 4.32829 32.9117C6.11232 31.7531 6.94744 29.5776 6.39687 27.5228C5.16578 22.9283 10.5332 19.4427 14.2298 22.4361C15.8829 23.7748 18.2101 23.8967 19.9941 22.7382C23.9833 20.1476 28.957 24.1752 27.2524 28.6158C26.4901 30.6017 27.0932 32.8527 28.7464 34.1914C32.4429 37.1848 30.1494 43.1596 25.3993 42.9107C23.275 42.7994 21.3206 44.0686 20.5583 46.0545C18.8537 50.4951 12.4625 50.1602 11.2314 45.5657C10.6809 43.511 8.86987 42.0444 6.74557 41.9331Z" fill="#3DB79F"/>
</g>
</svg>
