<svg width="24" height="24" viewBox="0 0 24 24" fill="none" xmlns="http://www.w3.org/2000/svg">
<path d="M7 13.9998C6.20435 13.9998 5.44129 14.3159 4.87868 14.8785C4.31607 15.4411 4 16.2042 4 16.9998C3.9925 17.5279 3.77938 18.0323 3.40592 18.4057C3.03246 18.7792 2.5281 18.9923 2 18.9998C2.47469 19.6111 3.08049 20.1082 3.77275 20.4543C4.46502 20.8004 5.22613 20.9869 6 20.9998C7.06087 20.9998 8.07828 20.5784 8.82843 19.8282C9.57857 19.0781 10 18.0607 10 16.9998C10 16.2042 9.68393 15.4411 9.12132 14.8785C8.55871 14.3159 7.79565 13.9998 7 13.9998ZM20.71 4.62982L19.37 3.28982C19.1826 3.10357 18.9292 2.99902 18.665 2.99902C18.4008 2.99902 18.1474 3.10357 17.96 3.28982L9 12.2498L11.75 14.9998L20.71 6.03982C20.8963 5.85245 21.0008 5.599 21.0008 5.33482C21.0008 5.07063 20.8963 4.81718 20.71 4.62982V4.62982Z" fill="white"/>
<path d="M23.923 20V23.923H20L23.923 20Z" fill="white"/>
</svg>
