<svg width="21" height="20" viewBox="0 0 21 20" fill="none" xmlns="http://www.w3.org/2000/svg">
<path d="M13.7526 11.6667H13.0943L12.8609 11.4417C13.6776 10.4917 14.1693 9.25833 14.1693 7.91667C14.1693 4.925 11.7443 2.5 8.7526 2.5C5.76094 2.5 3.33594 4.925 3.33594 7.91667C3.33594 10.9083 5.76094 13.3333 8.7526 13.3333C10.0943 13.3333 11.3276 12.8417 12.2776 12.025L12.5026 12.2583V12.9167L16.6693 17.075L17.9109 15.8333L13.7526 11.6667ZM8.7526 11.6667C6.6776 11.6667 5.0026 9.99167 5.0026 7.91667C5.0026 5.84167 6.6776 4.16667 8.7526 4.16667C10.8276 4.16667 12.5026 5.84167 12.5026 7.91667C12.5026 9.99167 10.8276 11.6667 8.7526 11.6667ZM9.16927 5.83333H8.33594V7.5H6.66927V8.33333H8.33594V10H9.16927V8.33333H10.8359V7.5H9.16927V5.83333Z" fill="#F4F4F4"/>
</svg>
