<svg width="32" height="32" viewBox="0 0 32 32" fill="none" xmlns="http://www.w3.org/2000/svg">
<path d="M23.4675 7.17046C21.749 5.45194 19.675 4.62231 17.3046 4.62231C15.2305 4.62231 13.275 5.33343 11.5564 6.75565C9.83792 8.17787 8.83051 10.1334 8.59347 12.6816L6.5194 15.7038C6.2231 16.0594 6.2231 16.4149 6.34162 16.7705C6.5194 17.0668 6.8157 17.2445 7.28977 17.2445H8.53422V21.689C8.53422 22.1038 8.71199 22.4594 9.00829 22.7556C9.30459 23.0519 9.66014 23.2297 10.075 23.2297H12.8601V26.4297C12.8601 26.726 12.9787 26.9038 13.1564 27.1408C13.3342 27.3779 13.5713 27.4371 13.8675 27.4371H19.3787C19.675 27.4371 19.8527 27.3186 20.0898 27.1408C20.3268 26.9631 20.3861 26.726 20.3861 26.4297V21.3927C22.1046 20.5631 23.5268 19.4371 24.5935 18.0742C25.6601 16.7112 26.1342 15.1112 26.1342 13.3334C26.075 10.9038 25.1861 8.88898 23.4675 7.17046ZM17.6009 18.2519C13.9861 18.2519 11.3787 15.8223 11.3787 12.8594C11.3787 9.89639 13.9861 7.46676 17.6009 7.46676C21.2157 7.46676 23.8231 9.89639 23.8231 12.8594C23.8231 15.8223 21.2157 18.2519 17.6009 18.2519Z" fill="#F28F40"/>
<path d="M15.0719 10.83H15.8399V15.156H15.0719V10.83ZM18.2102 14.532C18.4862 14.532 18.6862 14.484 18.8102 14.388C18.9342 14.288 18.9962 14.164 18.9962 14.016V13.95C18.9962 13.774 18.9302 13.644 18.7982 13.56C18.6702 13.472 18.4822 13.4 18.2342 13.344C18.0542 13.304 17.8722 13.262 17.6882 13.218C17.5082 13.174 17.3442 13.108 17.1962 13.02C17.0522 12.932 16.9342 12.814 16.8422 12.666C16.7502 12.514 16.7042 12.312 16.7042 12.06V11.982C16.7042 11.85 16.7302 11.714 16.7822 11.574C16.8342 11.43 16.9202 11.298 17.0402 11.178C17.1602 11.058 17.3182 10.96 17.5142 10.884C17.7142 10.804 17.9602 10.764 18.2522 10.764C18.4922 10.764 18.7222 10.79 18.9422 10.842C19.1622 10.89 19.3822 10.984 19.6022 11.124L19.2422 11.718C19.0662 11.606 18.9022 11.534 18.7502 11.502C18.5982 11.466 18.4362 11.448 18.2642 11.448C18.1282 11.448 18.0102 11.464 17.9102 11.496C17.8102 11.528 17.7262 11.57 17.6582 11.622C17.5942 11.674 17.5462 11.73 17.5142 11.79C17.4822 11.85 17.4662 11.91 17.4662 11.97V12.042C17.4662 12.146 17.4902 12.23 17.5382 12.294C17.5902 12.358 17.6582 12.412 17.7422 12.456C17.8262 12.496 17.9242 12.53 18.0362 12.558C18.1522 12.582 18.2742 12.608 18.4022 12.636C18.6582 12.692 18.8722 12.762 19.0442 12.846C19.2202 12.926 19.3602 13.018 19.4642 13.122C19.5722 13.226 19.6482 13.342 19.6922 13.47C19.7402 13.594 19.7642 13.73 19.7642 13.878V13.956C19.7642 14.196 19.7202 14.398 19.6322 14.562C19.5482 14.722 19.4322 14.852 19.2842 14.952C19.1362 15.048 18.9662 15.116 18.7742 15.156C18.5822 15.2 18.3822 15.222 18.1742 15.222C18.0182 15.222 17.8642 15.208 17.7122 15.18C17.5642 15.156 17.4242 15.122 17.2922 15.078C17.1602 15.034 17.0362 14.982 16.9202 14.922C16.8082 14.858 16.7102 14.792 16.6262 14.724L16.9982 14.112C17.1302 14.224 17.3002 14.322 17.5082 14.406C17.7162 14.49 17.9502 14.532 18.2102 14.532Z" fill="#F28F40"/>
</svg>
