<svg width="30" height="30" viewBox="0 0 30 30" fill="none" xmlns="http://www.w3.org/2000/svg">
<rect width="30" height="30" rx="5" fill="white"/>
<path d="M17.125 9.62467L13.3333 5.83301V8.39134C10.05 8.79967 7.5 11.5997 7.5 14.9997C7.5 18.3997 10.0417 21.1997 13.3333 21.608V19.9247C10.9667 19.5247 9.16667 17.4747 9.16667 14.9997C9.16667 12.5247 10.9667 10.4747 13.3333 10.0747V13.333L17.125 9.62467ZM20.775 14.1663C20.6333 13.008 20.175 11.8913 19.425 10.9247L18.2417 12.108C18.6917 12.733 18.975 13.4413 19.0917 14.1663H20.775ZM15 19.9163V21.5997C16.1583 21.458 17.2833 21.008 18.25 20.258L17.05 19.058C16.425 19.508 15.725 19.7997 15 19.9163ZM18.2417 17.8997L19.425 19.0747C20.175 18.108 20.6333 16.9913 20.775 15.833H19.0917C18.975 16.558 18.6917 17.2663 18.2417 17.8997Z" fill="#414244"/>
</svg>
