<svg width="30" height="30" viewBox="0 0 30 30" fill="none" xmlns="http://www.w3.org/2000/svg">
<rect width="30" height="30" rx="5" fill="white"/>
<g clip-path="url(#clip0_63_1945)">
<path d="M7.5013 17.5L7.5013 19.1667L9.16797 19.1667L9.16797 17.5L7.5013 17.5ZM17.5013 20.8333L17.5013 22.5L19.168 22.5L19.168 20.8333L17.5013 20.8333ZM20.8346 7.5L9.16797 7.5C8.2513 7.5 7.5013 8.25 7.5013 9.16667L7.5013 12.5L9.16797 12.5L9.16797 9.16667L20.8346 9.16667L20.8346 12.5L22.5013 12.5L22.5013 9.16667C22.5013 8.25 21.7513 7.5 20.8346 7.5ZM22.5013 20.8333L20.8346 20.8333L20.8346 22.5C21.7513 22.5 22.5013 21.75 22.5013 20.8333ZM5.83464 14.1667L5.83464 15.8333L24.168 15.8333L24.168 14.1667L5.83464 14.1667ZM10.8346 20.8333L10.8346 22.5L12.5013 22.5L12.5013 20.8333L10.8346 20.8333ZM20.8346 17.5L20.8346 19.1667L22.5013 19.1667L22.5013 17.5L20.8346 17.5ZM14.168 20.8333L14.168 22.5L15.8346 22.5L15.8346 20.8333L14.168 20.8333ZM7.5013 20.8333C7.5013 21.75 8.2513 22.5 9.16797 22.5L9.16797 20.8333L7.5013 20.8333Z" fill="#414244"/>
</g>
<defs>
<clipPath id="clip0_63_1945">
<rect width="20" height="20" fill="white" transform="translate(25 5) rotate(90)"/>
</clipPath>
</defs>
</svg>
