<svg width="32" height="32" viewBox="0 0 32 32" fill="none" xmlns="http://www.w3.org/2000/svg">
<rect width="32" height="32" fill="#B5B5B5" rx="7px" ry="7px"></rect>
<path d="M23.4675 7.16924C21.749 5.45072 19.675 4.62109 17.3046 4.62109C15.2305 4.62109 13.275 5.3322 11.5564 6.75443C9.83792 8.17665 8.83051 10.1322 8.59347 12.6804L6.5194 15.7026C6.2231 16.0581 6.2231 16.4137 6.34162 16.7692C6.5194 17.0655 6.8157 17.2433 7.28977 17.2433H8.53422V21.6878C8.53422 22.1026 8.71199 22.4581 9.00829 22.7544C9.30459 23.0507 9.66014 23.2285 10.075 23.2285H12.8601V26.4285C12.8601 26.7248 12.9787 26.9026 13.1564 27.1396C13.3342 27.3766 13.5713 27.4359 13.8675 27.4359H19.3787C19.675 27.4359 19.8527 27.3174 20.0898 27.1396C20.3268 26.9618 20.3861 26.7248 20.3861 26.4285V21.3915C22.1046 20.5618 23.5268 19.4359 24.5935 18.0729C25.6601 16.71 26.1342 15.11 26.1342 13.3322C26.075 10.9026 25.1861 8.88776 23.4675 7.16924ZM17.6009 18.2507C13.9861 18.2507 11.3787 15.8211 11.3787 12.8581C11.3787 9.89517 13.9861 7.46554 17.6009 7.46554C21.2157 7.46554 23.8231 9.89517 23.8231 12.8581C23.8231 15.8211 21.2157 18.2507 17.6009 18.2507Z" fill="url(#paint0_linear_1193_9583)"/>
<path d="M13.8811 14.532C14.1571 14.532 14.3571 14.484 14.4811 14.388C14.6051 14.288 14.6671 14.164 14.6671 14.016V13.95C14.6671 13.774 14.6011 13.644 14.4691 13.56C14.3411 13.472 14.1531 13.4 13.9051 13.344C13.7251 13.304 13.5431 13.262 13.3591 13.218C13.1791 13.174 13.0151 13.108 12.8671 13.02C12.7231 12.932 12.6051 12.814 12.5131 12.666C12.4211 12.514 12.3751 12.312 12.3751 12.06V11.982C12.3751 11.85 12.4011 11.714 12.4531 11.574C12.5051 11.43 12.5911 11.298 12.7111 11.178C12.8311 11.058 12.9891 10.96 13.1851 10.884C13.3851 10.804 13.6311 10.764 13.9231 10.764C14.1631 10.764 14.3931 10.79 14.6131 10.842C14.8331 10.89 15.0531 10.984 15.2731 11.124L14.9131 11.718C14.7371 11.606 14.5731 11.534 14.4211 11.502C14.2691 11.466 14.1071 11.448 13.9351 11.448C13.7991 11.448 13.6811 11.464 13.5811 11.496C13.4811 11.528 13.3971 11.57 13.3291 11.622C13.2651 11.674 13.2171 11.73 13.1851 11.79C13.1531 11.85 13.1371 11.91 13.1371 11.97V12.042C13.1371 12.146 13.1611 12.23 13.2091 12.294C13.2611 12.358 13.3291 12.412 13.4131 12.456C13.4971 12.496 13.5951 12.53 13.7071 12.558C13.8231 12.582 13.9451 12.608 14.0731 12.636C14.3291 12.692 14.5431 12.762 14.7151 12.846C14.8911 12.926 15.0311 13.018 15.1351 13.122C15.2431 13.226 15.3191 13.342 15.3631 13.47C15.4111 13.594 15.4351 13.73 15.4351 13.878V13.956C15.4351 14.196 15.3911 14.398 15.3031 14.562C15.2191 14.722 15.1031 14.852 14.9551 14.952C14.8071 15.048 14.6371 15.116 14.4451 15.156C14.2531 15.2 14.0531 15.222 13.8451 15.222C13.6891 15.222 13.5351 15.208 13.3831 15.18C13.2351 15.156 13.0951 15.122 12.9631 15.078C12.8311 15.034 12.7071 14.982 12.5911 14.922C12.4791 14.858 12.3811 14.792 12.2971 14.724L12.6691 14.112C12.8011 14.224 12.9711 14.322 13.1791 14.406C13.3871 14.49 13.6211 14.532 13.8811 14.532ZM19.0229 10.83V11.466H17.0009V12.63H18.8969V13.254H17.0009V14.52H19.0649V15.156H16.2389V10.83H19.0229ZM21.2873 14.532C21.5633 14.532 21.7633 14.484 21.8873 14.388C22.0113 14.288 22.0733 14.164 22.0733 14.016V13.95C22.0733 13.774 22.0073 13.644 21.8753 13.56C21.7473 13.472 21.5593 13.4 21.3113 13.344C21.1313 13.304 20.9493 13.262 20.7653 13.218C20.5853 13.174 20.4213 13.108 20.2733 13.02C20.1293 12.932 20.0113 12.814 19.9193 12.666C19.8273 12.514 19.7813 12.312 19.7813 12.06V11.982C19.7813 11.85 19.8073 11.714 19.8593 11.574C19.9113 11.43 19.9973 11.298 20.1173 11.178C20.2373 11.058 20.3953 10.96 20.5913 10.884C20.7913 10.804 21.0373 10.764 21.3293 10.764C21.5693 10.764 21.7993 10.79 22.0193 10.842C22.2393 10.89 22.4593 10.984 22.6793 11.124L22.3193 11.718C22.1433 11.606 21.9793 11.534 21.8273 11.502C21.6753 11.466 21.5133 11.448 21.3413 11.448C21.2053 11.448 21.0873 11.464 20.9873 11.496C20.8873 11.528 20.8033 11.57 20.7353 11.622C20.6713 11.674 20.6233 11.73 20.5913 11.79C20.5593 11.85 20.5433 11.91 20.5433 11.97V12.042C20.5433 12.146 20.5673 12.23 20.6153 12.294C20.6673 12.358 20.7353 12.412 20.8193 12.456C20.9033 12.496 21.0013 12.53 21.1133 12.558C21.2293 12.582 21.3513 12.608 21.4793 12.636C21.7353 12.692 21.9493 12.762 22.1213 12.846C22.2973 12.926 22.4373 13.018 22.5413 13.122C22.6493 13.226 22.7253 13.342 22.7693 13.47C22.8173 13.594 22.8413 13.73 22.8413 13.878V13.956C22.8413 14.196 22.7973 14.398 22.7093 14.562C22.6253 14.722 22.5093 14.852 22.3613 14.952C22.2133 15.048 22.0433 15.116 21.8513 15.156C21.6593 15.2 21.4593 15.222 21.2513 15.222C21.0953 15.222 20.9413 15.208 20.7893 15.18C20.6413 15.156 20.5013 15.122 20.3693 15.078C20.2373 15.034 20.1133 14.982 19.9973 14.922C19.8853 14.858 19.7873 14.792 19.7033 14.724L20.0753 14.112C20.2073 14.224 20.3773 14.322 20.5853 14.406C20.7933 14.49 21.0273 14.532 21.2873 14.532Z" fill="url(#paint1_linear_1193_9583)"/>
<defs>
<linearGradient id="paint0_linear_1193_9583" x1="16.2009" y1="4.62109" x2="16.2009" y2="27.4359" gradientUnits="userSpaceOnUse">
<stop stop-color="#3580E3"/>
<stop offset="0.49" stop-color="#8579F3"/>
<stop offset="1" stop-color="#B578EF"/>
</linearGradient>
<linearGradient id="paint1_linear_1193_9583" x1="17.5781" y1="10" x2="17.5781" y2="17" gradientUnits="userSpaceOnUse">
<stop stop-color="#3580E3"/>
<stop offset="0.49" stop-color="#8579F3"/>
<stop offset="1" stop-color="#B578EF"/>
</linearGradient>
</defs>
</svg>
