<svg width="21" height="20" viewBox="0 0 21 20" fill="none" xmlns="http://www.w3.org/2000/svg">
<path d="M13.0846 11.6667H12.4263L12.193 11.4417C13.0096 10.4917 13.5013 9.25833 13.5013 7.91667C13.5013 4.925 11.0763 2.5 8.08464 2.5C5.09297 2.5 2.66797 4.925 2.66797 7.91667C2.66797 10.9083 5.09297 13.3333 8.08464 13.3333C9.4263 13.3333 10.6596 12.8417 11.6096 12.025L11.8346 12.2583V12.9167L16.0013 17.075L17.243 15.8333L13.0846 11.6667ZM8.08464 11.6667C6.00964 11.6667 4.33464 9.99167 4.33464 7.91667C4.33464 5.84167 6.00964 4.16667 8.08464 4.16667C10.1596 4.16667 11.8346 5.84167 11.8346 7.91667C11.8346 9.99167 10.1596 11.6667 8.08464 11.6667ZM6.0013 7.5H10.168V8.33333H6.0013V7.5Z" fill="#F4F4F4"/>
</svg>
