<svg width="32" height="32" viewBox="0 0 32 32" fill="none" xmlns="http://www.w3.org/2000/svg">
<rect width="32" height="32" fill="#B5B5B5" rx="7px" ry="7px"></rect>
<path d="M19.6003 8.80718L15.0299 4V7.24353C13.0888 7.49933 11.3033 8.49184 10.0088 10.0346C8.71433 11.5773 8 13.5641 8 15.6218C8 17.6794 8.71433 19.6662 10.0088 21.2089C11.3033 22.7517 13.0888 23.7442 15.0299 24V21.8658C13.6261 21.6175 12.3514 20.854 11.4321 19.7109C10.5128 18.5678 10.0084 17.119 10.0084 15.6218C10.0084 14.1245 10.5128 12.6758 11.4321 11.5326C12.3514 10.3895 13.6261 9.62603 15.0299 9.37771V13.5087L19.6003 8.80718ZM24 14.5652C23.8211 13.0657 23.2587 11.6453 22.3727 10.4554L20.9463 11.9556C21.4761 12.7299 21.827 13.6234 21.9709 14.5652H24ZM17.0389 21.8553V23.9894C18.4669 23.8052 19.8207 23.2174 20.9564 22.2884L19.5099 20.767C18.778 21.3272 17.9319 21.6999 17.0389 21.8553ZM20.9463 19.2985L22.3727 20.7882C23.2587 19.5983 23.8211 18.1779 24 16.6783H21.9709C21.8251 17.6228 21.4745 18.5194 20.9463 19.2985V19.2985Z" fill="url(#paint0_linear_1193_9556)"/>
<defs>
<linearGradient id="paint0_linear_1193_9556" x1="16" y1="4" x2="16" y2="24" gradientUnits="userSpaceOnUse">
<stop stop-color="#3580E3"/>
<stop offset="0.49" stop-color="#8579F3"/>
<stop offset="1" stop-color="#B578EF"/>
</linearGradient>
</defs>
</svg>
