<svg width="21" height="20" viewBox="0 0 21 20" fill="none" xmlns="http://www.w3.org/2000/svg">
<path d="M5.81507 12.0742C4.98995 12.0742 4.19863 12.402 3.61518 12.9855C3.03173 13.5689 2.70396 14.3602 2.70396 15.1854C2.69618 15.733 2.47517 16.2561 2.08788 16.6434C1.70059 17.0306 1.17754 17.2517 0.629883 17.2594C1.12216 17.8934 1.75039 18.4088 2.46829 18.7678C3.1862 19.1267 3.9755 19.3201 4.77803 19.3335C5.87819 19.3335 6.93329 18.8965 7.71121 18.1185C8.48914 17.3406 8.92618 16.2855 8.92618 15.1854C8.92618 14.3602 8.5984 13.5689 8.01496 12.9855C7.43151 12.402 6.64019 12.0742 5.81507 12.0742ZM20.0328 2.35721L18.6432 0.967578C18.4489 0.774429 18.1861 0.666016 17.9121 0.666016C17.6381 0.666016 17.3753 0.774429 17.181 0.967578L7.88914 10.2594L10.741 13.1113L20.0328 3.81943C20.226 3.62513 20.3344 3.36229 20.3344 3.08832C20.3344 2.81435 20.226 2.55151 20.0328 2.35721V2.35721Z" fill="url(#paint0_linear_1193_9624)"/>
<defs>
<linearGradient id="paint0_linear_1193_9624" x1="10.4821" y1="0.666016" x2="10.4821" y2="19.3335" gradientUnits="userSpaceOnUse">
<stop stop-color="#3580E3"/>
<stop offset="0.49" stop-color="#8579F3"/>
<stop offset="1" stop-color="#B578EF"/>
</linearGradient>
</defs>
</svg>
