<svg width="24" height="24" viewBox="0 0 24 24" fill="none" xmlns="http://www.w3.org/2000/svg">
<path d="M11 21H5C4.47005 20.9984 3.96227 20.7872 3.58753 20.4125C3.2128 20.0377 3.00158 19.5299 3 19V5C3.00158 4.47005 3.2128 3.96227 3.58753 3.58753C3.96227 3.2128 4.47005 3.00158 5 3H11V21ZM13 21H19C19.5299 20.9984 20.0377 20.7872 20.4125 20.4125C20.7872 20.0377 20.9984 19.5299 21 19V12H13V21ZM21 10V5C20.9984 4.47005 20.7872 3.96227 20.4125 3.58753C20.0377 3.2128 19.5299 3.00158 19 3H13V10H21Z" fill="#7D7F84"/>
</svg>
