<svg width="24" height="24" viewBox="0 0 24 24" fill="none" xmlns="http://www.w3.org/2000/svg">
<path d="M19.5268 11.5293L12.4633 4.46408C12.1634 4.16649 11.7579 3.99966 11.3354 4H5.59988C5.17596 4.00127 4.76976 4.17027 4.47 4.47011C4.17024 4.76994 4.00127 5.17625 4.00001 5.60027V11.3373C3.99939 11.5473 4.04083 11.7553 4.12189 11.9491C4.20295 12.1429 4.32198 12.3184 4.47197 12.4655L11.5354 19.5307C11.684 19.6794 11.8604 19.7975 12.0547 19.878C12.2489 19.9585 12.4571 20 12.6673 20C12.8776 20 13.0857 19.9585 13.28 19.878C13.4742 19.7975 13.6506 19.6794 13.7992 19.5307L19.5348 13.7937C19.683 13.6445 19.8004 13.4676 19.8802 13.2731C19.96 13.0785 20.0007 12.8701 20 12.6598C19.9992 12.4495 19.9571 12.2414 19.8759 12.0474C19.7947 11.8535 19.676 11.6774 19.5268 11.5293ZM7.59972 8.80082C7.3624 8.80082 7.13041 8.73043 6.93309 8.59855C6.73576 8.46667 6.58197 8.27923 6.49115 8.05992C6.40033 7.84061 6.37657 7.59929 6.42287 7.36647C6.46917 7.13365 6.58345 6.9198 6.75126 6.75194C6.91907 6.58409 7.13287 6.46978 7.36563 6.42347C7.59839 6.37716 7.83965 6.40093 8.0589 6.49177C8.27816 6.58261 8.46556 6.73645 8.5974 6.93382C8.72925 7.13119 8.79962 7.36324 8.79962 7.60062C8.79962 7.91893 8.6732 8.22421 8.44818 8.44929C8.22315 8.67437 7.91795 8.80082 7.59972 8.80082Z" fill="white"/>
</svg>
