<svg width="32" height="32" viewBox="0 0 32 32" fill="none" xmlns="http://www.w3.org/2000/svg">
<path d="M10.8151 18.0742C9.98995 18.0742 9.19863 18.402 8.61518 18.9855C8.03173 19.5689 7.70396 20.3602 7.70396 21.1854C7.69618 21.733 7.47517 22.2561 7.08788 22.6434C6.70059 23.0306 6.17754 23.2517 5.62988 23.2594C6.12216 23.8934 6.75039 24.4088 7.46829 24.7678C8.1862 25.1267 8.9755 25.3201 9.77803 25.3335C10.8782 25.3335 11.9333 24.8965 12.7112 24.1185C13.4891 23.3406 13.9262 22.2855 13.9262 21.1854C13.9262 20.3602 13.5984 19.5689 13.015 18.9855C12.4315 18.402 11.6402 18.0742 10.8151 18.0742ZM25.0328 8.35721L23.6432 6.96758C23.4489 6.77443 23.1861 6.66602 22.9121 6.66602C22.6381 6.66602 22.3753 6.77443 22.181 6.96758L12.8891 16.2594L15.741 19.1113L25.0328 9.81943C25.226 9.62513 25.3344 9.36229 25.3344 9.08832C25.3344 8.81435 25.226 8.55151 25.0328 8.35721V8.35721Z" fill="#737680"/>
<path d="M28.3652 24.2949V28.3632H24.2969L28.3652 24.2949Z" fill="#737680"/>
<defs>
<linearGradient id="paint0_linear_1193_9619" x1="15.4821" y1="6.66602" x2="15.4821" y2="25.3335" gradientUnits="userSpaceOnUse">
<stop stop-color="#3580E3"/>
<stop offset="0.49" stop-color="#8579F3"/>
<stop offset="1" stop-color="#B578EF"/>
</linearGradient>
<linearGradient id="paint1_linear_1193_9619" x1="26.331" y1="24.2949" x2="26.331" y2="28.3632" gradientUnits="userSpaceOnUse">
<stop stop-color="#3580E3"/>
<stop offset="0.49" stop-color="#8579F3"/>
<stop offset="1" stop-color="#B578EF"/>
</linearGradient>
</defs>
</svg>
