<svg width="32" height="32" viewBox="0 0 32 32" fill="none" xmlns="http://www.w3.org/2000/svg">
<rect width="32" height="32" fill="#B5B5B5" rx="7px" ry="7px"></rect>
<path d="M15.9997 24.8144L16.7774 24.3477V16.4663L23.4663 12.6811V11.7477L22.6886 11.2811L15.9997 15.17L9.31078 11.3329L8.533 11.7996V12.7329L15.2219 16.5181V24.3996L15.9997 24.8144ZM15.0145 25.9552L7.96263 21.807C7.65152 21.6514 7.44411 21.444 7.28856 21.1329C7.133 20.8218 7.0293 20.5107 7.0293 20.1996V12.007C7.0293 11.6959 7.133 11.3848 7.28856 11.0737C7.44411 10.7626 7.70337 10.5552 7.96263 10.3477L15.0145 6.19959C15.3256 6.04404 15.6367 5.99219 15.9478 5.99219C16.3108 5.99219 16.6219 6.04404 16.8811 6.19959L23.933 10.3477C24.2441 10.5033 24.4515 10.7626 24.6071 11.0737C24.7626 11.3848 24.8663 11.6959 24.8663 12.007V20.2514C24.8663 20.5626 24.7626 20.8737 24.6071 21.1848C24.4515 21.4959 24.1923 21.7033 23.8811 21.8589L16.7774 26.007C16.4663 26.1626 16.1552 26.2663 15.8441 26.2663C15.5849 26.2144 15.2737 26.1107 15.0145 25.9552Z" fill="url(#paint0_linear_1193_9626)"/>
<defs>
<linearGradient id="paint0_linear_1193_9626" x1="15.9478" y1="5.99219" x2="15.9478" y2="26.2663" gradientUnits="userSpaceOnUse">
<stop stop-color="#3580E3"/>
<stop offset="0.49" stop-color="#8579F3"/>
<stop offset="1" stop-color="#B578EF"/>
</linearGradient>
</defs>
</svg>
