<svg width="32" height="32" viewBox="0 0 32 32" fill="none" xmlns="http://www.w3.org/2000/svg">
<rect width="32" height="32" fill="#B5B5B5" rx="7px" ry="7px"></rect>
<path d="M16.0003 5.62891C13.9492 5.62891 11.9442 6.23712 10.2388 7.37663C8.53339 8.51614 7.20419 10.1358 6.41929 12.0307C5.63438 13.9256 5.42901 16.0108 5.82915 18.0224C6.22929 20.0341 7.21698 21.8819 8.6673 23.3322C10.1176 24.7826 11.9654 25.7702 13.9771 26.1704C15.9888 26.5705 18.0739 26.3652 19.9688 25.5803C21.8638 24.7953 23.4834 23.4661 24.6229 21.7607C25.7624 20.0553 26.3706 18.0503 26.3706 15.9993C26.3706 14.6374 26.1024 13.2889 25.5812 12.0307C25.0601 10.7725 24.2962 9.6293 23.3332 8.66632C22.3702 7.70334 21.227 6.93946 19.9688 6.4183C18.7106 5.89714 17.3621 5.62891 16.0003 5.62891V5.62891ZM16.0003 24.2956C14.3594 24.2956 12.7554 23.809 11.3911 22.8974C10.0268 21.9858 8.96341 20.6901 8.33548 19.1741C7.70755 17.6582 7.54326 15.9901 7.86337 14.3807C8.18349 12.7714 8.97363 11.2932 10.1339 10.1329C11.2941 8.97265 12.7724 8.18251 14.3817 7.86239C15.9911 7.54228 17.6592 7.70657 19.1751 8.3345C20.6911 8.96243 21.9868 10.0258 22.8984 11.3901C23.81 12.7544 24.2966 14.3584 24.2966 15.9993C24.2966 18.1996 23.4225 20.3098 21.8666 21.8656C20.3108 23.4215 18.2006 24.2956 16.0003 24.2956V24.2956Z" fill="url(#paint0_linear_1193_9613)"/>
<path d="M15.9996 21.1848C18.8633 21.1848 21.1848 18.8633 21.1848 15.9996C21.1848 13.1359 18.8633 10.8145 15.9996 10.8145C13.1359 10.8145 10.8145 13.1359 10.8145 15.9996C10.8145 18.8633 13.1359 21.1848 15.9996 21.1848Z" fill="url(#paint1_linear_1193_9613)"/>
<defs>
<linearGradient id="paint0_linear_1193_9613" x1="16.0003" y1="5.62891" x2="16.0003" y2="26.3697" gradientUnits="userSpaceOnUse">
<stop stop-color="#3580E3"/>
<stop offset="0.49" stop-color="#8579F3"/>
<stop offset="1" stop-color="#B578EF"/>
</linearGradient>
<linearGradient id="paint1_linear_1193_9613" x1="15.9996" y1="10.8145" x2="15.9996" y2="21.1848" gradientUnits="userSpaceOnUse">
<stop stop-color="#3580E3"/>
<stop offset="0.49" stop-color="#8579F3"/>
<stop offset="1" stop-color="#B578EF"/>
</linearGradient>
</defs>
</svg>
