<svg width="20" height="20" viewBox="0 0 20 20" fill="none" xmlns="http://www.w3.org/2000/svg">
<path d="M14.2377 5.76217C13.3029 4.8253 12.0847 4.22377 10.7725 4.05122C9.46038 3.87868 8.12801 4.14479 6.98283 4.80814C5.83765 5.47148 4.94392 6.49484 4.44077 7.7189C3.93762 8.94295 3.85329 10.299 4.20091 11.576C4.54852 12.8529 5.30858 13.9791 6.36275 14.7793C7.41692 15.5794 8.70605 16.0085 10.0295 15.9999C11.3529 15.9912 12.6363 15.5453 13.6799 14.7314C14.7235 13.9176 15.4688 12.7816 15.7997 11.5002H14.2397C13.9646 12.2781 13.481 12.9654 12.8417 13.487C12.2023 14.0086 11.4319 14.3443 10.6146 14.4576C9.79731 14.5708 8.96461 14.4572 8.20755 14.1291C7.45049 13.8009 6.79821 13.271 6.32203 12.5972C5.84586 11.9233 5.56411 11.1315 5.5076 10.3084C5.45109 9.4852 5.62198 8.66234 6.00161 7.92975C6.38123 7.19717 6.95497 6.58305 7.66009 6.15456C8.36521 5.72606 9.17456 5.49968 9.99967 5.50017C10.5893 5.50118 11.1729 5.61977 11.7161 5.849C12.2594 6.07822 12.7515 6.41348 13.1637 6.83517L10.7507 9.25017H15.9997V4.00017L14.2377 5.76217Z" fill="white"/>
</svg>
