<svg width="32" height="32" viewBox="0 0 32 32" fill="none" xmlns="http://www.w3.org/2000/svg">
<rect width="32" height="32" fill="#B5B5B5" rx="7px" ry="7px"></rect>
<path d="M25.4085 15.4116L16.5792 6.5801C16.2042 6.20812 15.6974 5.99958 15.1693 6H7.99985C7.46994 6.00158 6.9622 6.21284 6.5875 6.58764C6.2128 6.96243 6.00159 7.47031 6.00001 8.00034V15.1716C5.99924 15.4341 6.05104 15.6942 6.15236 15.9364C6.25369 16.1786 6.40248 16.3981 6.58996 16.5818L15.4193 25.4133C15.605 25.5993 15.8255 25.7469 16.0683 25.8475C16.3111 25.9482 16.5713 26 16.8341 26C17.097 26 17.3572 25.9482 17.6 25.8475C17.8427 25.7469 18.0633 25.5993 18.249 25.4133L25.4185 18.2421C25.6037 18.0557 25.7505 17.8345 25.8502 17.5913C25.95 17.3481 26.0009 17.0877 26 16.8248C25.9991 16.5619 25.9463 16.3018 25.8448 16.0593C25.7433 15.8168 25.5951 15.5967 25.4085 15.4116ZM10.4996 12.001C10.203 12.001 9.91301 11.913 9.66636 11.7482C9.41971 11.5833 9.22746 11.349 9.11394 11.0749C9.00042 10.8008 8.97072 10.4991 9.02859 10.2081C9.08646 9.91706 9.22931 9.64974 9.43907 9.43993C9.64884 9.23012 9.91609 9.08723 10.207 9.02934C10.498 8.97145 10.7996 9.00116 11.0736 9.11472C11.3477 9.22827 11.5819 9.42056 11.7468 9.66727C11.9116 9.91399 11.9995 10.204 11.9995 10.5008C11.9995 10.8987 11.8415 11.2803 11.5602 11.5616C11.2789 11.843 10.8974 12.001 10.4996 12.001Z" fill="url(#paint0_linear_1193_9551)"/>
<defs>
<linearGradient id="paint0_linear_1193_9551" x1="16" y1="6" x2="16" y2="26" gradientUnits="userSpaceOnUse">
<stop stop-color="#3580E3"/>
<stop offset="0.49" stop-color="#8579F3"/>
<stop offset="1" stop-color="#B578EF"/>
</linearGradient>
</defs>
</svg>
