<svg width="30" height="30" viewBox="0 0 30 30" fill="none" xmlns="http://www.w3.org/2000/svg">
<rect width="30" height="30" rx="5" fill="white"/>
<path d="M10.924 12.108L9.74896 10.9247C8.99896 11.8913 8.53229 13.008 8.39062 14.1663H10.074C10.1906 13.4413 10.4823 12.733 10.924 12.108ZM10.074 15.833H8.39062C8.53229 16.9913 8.99063 18.108 9.74063 19.0747L10.9156 17.8913C10.4823 17.2663 10.1906 16.5663 10.074 15.833ZM10.9156 20.2663C11.8823 21.0163 13.0073 21.4663 14.1656 21.608V19.9163C13.4406 19.7913 12.7406 19.508 12.1156 19.058L10.9156 20.2663ZM15.8323 8.39134V5.83301L12.0406 9.62467L15.8323 13.333V10.0747C18.199 10.4747 19.999 12.5247 19.999 14.9997C19.999 17.4747 18.199 19.5247 15.8323 19.9247V21.608C19.124 21.1997 21.6656 18.3997 21.6656 14.9997C21.6656 11.5997 19.124 8.79967 15.8323 8.39134Z" fill="#414244"/>
</svg>
