<svg width="18" height="18" viewBox="0 0 18 18" fill="none" xmlns="http://www.w3.org/2000/svg">
<path d="M15.2059 16.8939L12.2059 13.9314C11.7684 14.1064 11.2715 14.2439 10.7152 14.3439C10.159 14.4439 9.58711 14.4939 8.99961 14.4939C7.13711 14.4939 5.44023 13.9689 3.90898 12.9189C2.37773 11.8689 1.24336 10.4377 0.505859 8.6252C0.743359 7.9877 1.09023 7.3502 1.54648 6.7127C2.00273 6.0752 2.53711 5.4627 3.14961 4.8752L0.824609 2.56895L1.70586 1.66895L16.0121 15.9939L15.2059 16.8939ZM8.99961 11.8127C9.14961 11.8127 9.31211 11.7971 9.48711 11.7658C9.66211 11.7346 9.81211 11.6939 9.93711 11.6439L5.96211 7.6877C5.91211 7.8252 5.87461 7.9752 5.84961 8.1377C5.82461 8.3002 5.81211 8.4627 5.81211 8.6252C5.81211 9.5252 6.12461 10.2814 6.74961 10.8939C7.37461 11.5064 8.12461 11.8127 8.99961 11.8127ZM14.4746 12.6564L11.8309 10.0127C11.9434 9.8377 12.0309 9.62207 12.0934 9.36582C12.1559 9.10957 12.1871 8.8627 12.1871 8.6252C12.1871 7.7377 11.8777 6.98457 11.259 6.36582C10.6402 5.74707 9.88711 5.4377 8.99961 5.4377C8.76211 5.4377 8.52149 5.46582 8.27774 5.52207C8.03399 5.57832 7.81211 5.6627 7.61211 5.7752L5.36211 3.50645C5.79961 3.30645 6.36836 3.13145 7.06836 2.98145C7.76836 2.83145 8.44336 2.75645 9.09336 2.75645C10.9059 2.75645 12.5777 3.27832 14.109 4.32207C15.6402 5.36582 16.7684 6.80019 17.4934 8.6252C17.1809 9.4377 16.7621 10.1846 16.2371 10.8658C15.7121 11.5471 15.1246 12.1439 14.4746 12.6564ZM10.6684 8.83144L8.73711 6.9002C8.98711 6.7877 9.25586 6.7502 9.54336 6.7877C9.83086 6.8252 10.0871 6.94395 10.3121 7.14395C10.5246 7.36895 10.6715 7.6127 10.7527 7.8752C10.834 8.1377 10.8059 8.45644 10.6684 8.83144Z" fill="white"/>
</svg>
