<svg width="32" height="32" viewBox="0 0 32 32" fill="none" xmlns="http://www.w3.org/2000/svg">
<path d="M15.5411 12.8356C14.83 12.8356 14.135 13.0465 13.5437 13.4415C12.9525 13.8365 12.4918 14.398 12.2196 15.0549C11.9475 15.7118 11.8764 16.4347 12.0151 17.1321C12.1538 17.8295 12.4962 18.47 12.999 18.9728C13.5017 19.4756 14.1423 19.818 14.8397 19.9567C15.5371 20.0954 16.2599 20.0242 16.9168 19.7521C17.5738 19.48 18.1352 19.0192 18.5303 18.428C18.9253 17.8368 19.1361 17.1417 19.1361 16.4307C19.1361 15.4772 18.7574 14.5628 18.0832 13.8886C17.409 13.2144 16.4945 12.8356 15.5411 12.8356V12.8356ZM9.24968 19.127H7.45215V22.7221C7.45215 23.1988 7.64153 23.656 7.97863 23.9931C8.31574 24.3302 8.77295 24.5196 9.24968 24.5196H12.8448V22.7221H9.24968V19.127ZM9.24968 10.1393H12.8448V8.3418H9.24968C8.77295 8.3418 8.31574 8.53118 7.97863 8.86828C7.64153 9.20539 7.45215 9.6626 7.45215 10.1393V13.7344H9.24968V10.1393ZM21.8324 8.3418H18.2374V10.1393H21.8324V13.7344H23.63V10.1393C23.63 9.90328 23.5835 9.66953 23.4931 9.45145C23.4028 9.23336 23.2704 9.0352 23.1035 8.86828C22.9366 8.70137 22.7384 8.56896 22.5203 8.47863C22.3022 8.38829 22.0685 8.3418 21.8324 8.3418V8.3418ZM21.8324 22.7221H18.2374V24.5196H21.8324C22.3092 24.5196 22.7664 24.3302 23.1035 23.9931C23.4406 23.656 23.63 23.1988 23.63 22.7221V19.127H21.8324V22.7221Z" fill="#737680"/>
<path d="M28.444 24.4961V28.4137H24.5264L28.444 24.4961Z" fill="#737680"/>
</svg>
