<svg width="32" height="32" viewBox="0 0 32 32" fill="none" xmlns="http://www.w3.org/2000/svg">
<path d="M17.1968 27.9775C16.4735 28.5392 15.4612 28.5379 14.7393 27.9744L4.5669 20.033C3.87945 19.4963 3.89209 18.4523 4.59233 17.9325C5.0695 17.5782 5.72458 17.5865 6.19267 17.9527L14.7384 24.6383C15.4605 25.2032 16.4744 25.2048 17.1983 24.642L25.8087 17.948C26.2765 17.5843 26.9294 17.5771 27.4051 17.9303C28.1061 18.4507 28.1174 19.4963 27.4279 20.0318L17.1968 27.9775ZM17.1972 22.108C16.4739 22.6712 15.4603 22.6706 14.7377 22.1065L5.22296 14.6785C4.19621 13.8769 4.19747 12.3234 5.22552 11.5235L14.7403 4.12037C15.4619 3.55892 16.4723 3.55828 17.1946 4.11882L26.7343 11.522C27.765 12.3218 27.7662 13.8785 26.7368 14.68L17.1972 22.108Z" fill="#737680"/>
<defs>
<linearGradient id="paint0_linear_1193_9554" x1="16.0002" y1="3.16602" x2="16.0002" y2="28.9327" gradientUnits="userSpaceOnUse">
<stop stop-color="#3580E3"/>
<stop offset="0.49" stop-color="#8579F3"/>
<stop offset="1" stop-color="#B578EF"/>
</linearGradient>
</defs>
</svg>
