<svg width="32" height="32" viewBox="0 0 32 32" fill="none" xmlns="http://www.w3.org/2000/svg">
<rect width="32" height="32" fill="#B5B5B5" rx="7px" ry="7px"></rect>
<path d="M8.22255 25.3327C7.79045 25.3327 7.42317 25.1814 7.1207 24.879C6.81823 24.5765 6.66699 24.2092 6.66699 23.7771V8.22157C6.66699 7.78947 6.81823 7.42219 7.1207 7.11972C7.42317 6.81725 7.79045 6.66602 8.22255 6.66602H13.667C14.0991 6.66602 14.4664 6.81725 14.7688 7.11972C15.0713 7.42219 15.2225 7.78947 15.2225 8.22157V23.7771C15.2225 24.2092 15.0713 24.5765 14.7688 24.879C14.4664 25.1814 14.0991 25.3327 13.667 25.3327H8.22255ZM18.3337 14.4179C17.9016 14.4179 17.5343 14.2666 17.2318 13.9642C16.9293 13.6617 16.7781 13.2944 16.7781 12.8623V8.22157C16.7781 7.78947 16.9293 7.42219 17.2318 7.11972C17.5343 6.81725 17.9016 6.66602 18.3337 6.66602H23.7781C24.2102 6.66602 24.5775 6.81725 24.88 7.11972C25.1824 7.42219 25.3337 7.78947 25.3337 8.22157V12.8623C25.3337 13.2944 25.1824 13.6617 24.88 13.9642C24.5775 14.2666 24.2102 14.4179 23.7781 14.4179H18.3337ZM18.3337 25.3327C17.9016 25.3327 17.5343 25.1814 17.2318 24.879C16.9293 24.5765 16.7781 24.2092 16.7781 23.7771V17.529C16.7781 17.0969 16.9293 16.7296 17.2318 16.4271C17.5343 16.1247 17.9016 15.9734 18.3337 15.9734H23.7781C24.2102 15.9734 24.5775 16.1247 24.88 16.4271C25.1824 16.7296 25.3337 17.0969 25.3337 17.529V23.7771C25.3337 24.2092 25.1824 24.5765 24.88 24.879C24.5775 25.1814 24.2102 25.3327 23.7781 25.3327H18.3337Z" fill="url(#paint0_linear_1193_9630)"/>
<defs>
<linearGradient id="paint0_linear_1193_9630" x1="16.0003" y1="6.66602" x2="16.0003" y2="25.3327" gradientUnits="userSpaceOnUse">
<stop stop-color="#3580E3"/>
<stop offset="0.49" stop-color="#8579F3"/>
<stop offset="1" stop-color="#B578EF"/>
</linearGradient>
</defs>
</svg>
