<svg width="18" height="19" viewBox="0 0 18 19" fill="none" xmlns="http://www.w3.org/2000/svg">
<path d="M13.5 6.33325H12.75V4.83325C12.75 2.76325 11.07 1.08325 9 1.08325C6.93 1.08325 5.25 2.76325 5.25 4.83325V6.33325H4.5C3.675 6.33325 3 7.00825 3 7.83325V15.3333C3 16.1583 3.675 16.8333 4.5 16.8333H13.5C14.325 16.8333 15 16.1583 15 15.3333V7.83325C15 7.00825 14.325 6.33325 13.5 6.33325ZM9 13.0833C8.175 13.0833 7.5 12.4083 7.5 11.5833C7.5 10.7583 8.175 10.0833 9 10.0833C9.825 10.0833 10.5 10.7583 10.5 11.5833C10.5 12.4083 9.825 13.0833 9 13.0833ZM11.325 6.33325H6.675V4.83325C6.675 3.55075 7.7175 2.50825 9 2.50825C10.2825 2.50825 11.325 3.55075 11.325 4.83325V6.33325Z" fill="white"/>
</svg>
