<svg width="24" height="24" viewBox="0 0 24 24" fill="none" xmlns="http://www.w3.org/2000/svg">
<path d="M18 4H6C5.47005 4.00158 4.96227 4.2128 4.58753 4.58753C4.2128 4.96227 4.00158 5.47005 4 6V18C4.00158 18.5299 4.2128 19.0377 4.58753 19.4125C4.96227 19.7872 5.47005 19.9984 6 20H18C18.5299 19.9984 19.0377 19.7872 19.4125 19.4125C19.7872 19.0377 19.9984 18.5299 20 18V6C19.9984 5.47005 19.7872 4.96227 19.4125 4.58753C19.0377 4.2128 18.5299 4.00158 18 4ZM18 18H6V6H18V18Z" fill="url(#paint0_linear_113_59)"/>
<defs>
<linearGradient id="paint0_linear_113_59" x1="12" y1="4" x2="12" y2="20" gradientUnits="userSpaceOnUse">
<stop stop-color="#3580E3"/>
<stop offset="0.49" stop-color="#8579F3"/>
<stop offset="1" stop-color="#B578EF"/>
</linearGradient>
</defs>
</svg>
