<svg width="24" height="24" viewBox="0 0 24 24" fill="none" xmlns="http://www.w3.org/2000/svg">
<path d="M15.5504 5.55L11.0004 1V4.07C9.06796 4.31212 7.29044 5.25152 6.00177 6.71173C4.71309 8.17195 4.00195 10.0525 4.00195 12C4.00195 13.9475 4.71309 15.8281 6.00177 17.2883C7.29044 18.7485 9.06796 19.6879 11.0004 19.93V17.91C9.6029 17.675 8.33391 16.9523 7.41872 15.8704C6.50352 14.7884 6.00135 13.4171 6.00135 12C6.00135 10.5829 6.50352 9.21161 7.41872 8.12965C8.33391 7.04768 9.6029 6.32503 11.0004 6.09V10L15.5504 5.55ZM19.9304 11C19.7523 9.58065 19.1924 8.23623 18.3104 7.11L16.8904 8.53C17.4178 9.26282 17.7671 10.1086 17.9104 11H19.9304ZM13.0004 17.9V19.92C14.422 19.7457 15.7698 19.1893 16.9004 18.31L15.4604 16.87C14.7318 17.4002 13.8894 17.7529 13.0004 17.9ZM16.8904 15.48L18.3104 16.89C19.1924 15.7638 19.7523 14.4193 19.9304 13H17.9104C17.7652 13.894 17.4162 14.7426 16.8904 15.48V15.48Z" fill="white"/>
</svg>
