<svg width="26" height="25" viewBox="0 0 26 25" fill="none" xmlns="http://www.w3.org/2000/svg">
<path d="M12.5411 8.83564C11.83 8.83564 11.135 9.04649 10.5437 9.44152C9.95254 9.83655 9.49175 10.398 9.21965 11.0549C8.94755 11.7118 8.87635 12.4347 9.01507 13.1321C9.15378 13.8295 9.49618 14.47 9.99896 14.9728C10.5017 15.4756 11.1423 15.818 11.8397 15.9567C12.5371 16.0954 13.2599 16.0242 13.9168 15.7521C14.5738 15.48 15.1352 15.0192 15.5303 14.428C15.9253 13.8368 16.1361 13.1417 16.1361 12.4307C16.1361 11.4772 15.7574 10.5628 15.0832 9.88861C14.409 9.2144 13.4945 8.83564 12.5411 8.83564V8.83564ZM6.24968 15.127H4.45215V18.7221C4.45215 19.1988 4.64153 19.656 4.97863 19.9931C5.31574 20.3302 5.77295 20.5196 6.24968 20.5196H9.84476V18.7221H6.24968V15.127ZM6.24968 6.13933H9.84476V4.3418H6.24968C5.77295 4.3418 5.31574 4.53118 4.97863 4.86828C4.64153 5.20539 4.45215 5.6626 4.45215 6.13933V9.73441H6.24968V6.13933ZM18.8324 4.3418H15.2374V6.13933H18.8324V9.73441H20.63V6.13933C20.63 5.90328 20.5835 5.66953 20.4931 5.45145C20.4028 5.23336 20.2704 5.0352 20.1035 4.86828C19.9366 4.70137 19.7384 4.56896 19.5203 4.47863C19.3022 4.38829 19.0685 4.3418 18.8324 4.3418V4.3418ZM18.8324 18.7221H15.2374V20.5196H18.8324C19.3092 20.5196 19.7664 20.3302 20.1035 19.9931C20.4406 19.656 20.63 19.1988 20.63 18.7221V15.127H18.8324V18.7221Z" fill="#737680"/>
<path d="M25.444 20.4961V24.4137H21.5264L25.444 20.4961Z" fill="#737680"/>
</svg>
