<svg width="25" height="24" viewBox="0 0 25 24" fill="none" xmlns="http://www.w3.org/2000/svg">
<path d="M12.0023 8.40186C11.2903 8.40186 10.5943 8.61299 10.0023 9.00856C9.41027 9.40414 8.94885 9.96638 8.67638 10.6242C8.4039 11.282 8.33261 12.0058 8.47152 12.7042C8.61042 13.4025 8.95329 14.044 9.45676 14.5474C9.96023 15.0509 10.6017 15.3938 11.3 15.5327C11.9983 15.6716 12.7222 15.6003 13.38 15.3278C14.0378 15.0553 14.6001 14.5939 14.9956 14.0019C15.3912 13.4099 15.6023 12.7139 15.6023 12.0019C15.6023 11.0471 15.2231 10.1314 14.5479 9.45627C13.8728 8.78114 12.9571 8.40186 12.0023 8.40186V8.40186ZM5.70234 14.7019H3.90234V18.3019C3.90234 18.7792 4.09199 19.2371 4.42955 19.5746C4.76712 19.9122 5.22495 20.1019 5.70234 20.1019H9.30234V18.3019H5.70234V14.7019ZM5.70234 5.70186H9.30234V3.90186H5.70234C5.22495 3.90186 4.76712 4.0915 4.42955 4.42906C4.09199 4.76663 3.90234 5.22447 3.90234 5.70186V9.30186H5.70234V5.70186ZM18.3023 3.90186H14.7023V5.70186H18.3023V9.30186H20.1023V5.70186C20.1023 5.46548 20.0558 5.23141 19.9653 5.01303C19.8749 4.79464 19.7423 4.59621 19.5751 4.42906C19.408 4.26192 19.2096 4.12933 18.9912 4.03887C18.7728 3.94841 18.5387 3.90186 18.3023 3.90186V3.90186ZM18.3023 18.3019H14.7023V20.1019H18.3023C18.7797 20.1019 19.2376 19.9122 19.5751 19.5746C19.9127 19.2371 20.1023 18.7792 20.1023 18.3019V14.7019H18.3023V18.3019Z" fill="url(#paint0_linear_113_97)"/>
<path d="M24.923 20.0771V24.0001H21L24.923 20.0771Z" fill="white"/>
<defs>
<linearGradient id="paint0_linear_113_97" x1="12.0023" y1="3.90186" x2="12.0023" y2="20.1019" gradientUnits="userSpaceOnUse">
<stop stop-color="#3580E3"/>
<stop offset="0.49" stop-color="#8579F3"/>
<stop offset="1" stop-color="#B578EF"/>
</linearGradient>
</defs>
</svg>
