<?xml version="1.0" encoding="utf-8"?>
<!-- Generator: Adobe Illustrator 26.2.1, SVG Export Plug-In . SVG Version: 6.00 Build 0)  -->
<svg version="1.1" id="레이어_1" xmlns="http://www.w3.org/2000/svg" xmlns:xlink="http://www.w3.org/1999/xlink" x="0px"
	 y="0px" viewBox="0 0 48 48" style="enable-background:new 0 0 48 48;" xml:space="preserve">
<style type="text/css">
	.st0{fill:#FFFFFF;}
</style>
<path class="st0" d="M42.1,5.4c-1.9-1.9-4.3-2.8-7-2.8c-2.7,0-5,1-6.9,2.9c-1.9,1.9-2.8,4.3-2.8,7.1v4.1H6.9c-1.1,0-2.1,0.3-2.8,1.1
	C3.4,18.6,3,19.6,3,20.7v21.2c0,1,0.3,2,1.1,2.8c0.8,0.8,1.7,1.2,2.8,1.2h25.6c1.1,0,2-0.4,2.8-1.2s1.2-1.7,1.2-2.8V20.7
	c0-1.2-0.4-2.2-1.2-2.9s-1.7-1.1-2.8-1.1h-3h-0.2v-4.2c0-1.7,0.6-3.2,1.7-4.3c1.1-1.1,2.5-1.7,4.1-1.7c1.7,0,3.1,0.6,4.2,1.7
	c1.1,1.2,1.7,2.6,1.7,4.3h4C45,9.6,44,7.3,42.1,5.4z M22.4,33.9c-0.7,0.7-1.7,1.1-2.7,1.1s-2-0.4-2.7-1.1c-0.7-0.7-1.1-1.6-1.1-2.6
	s0.3-1.9,1.1-2.7c0.7-0.8,1.6-1.2,2.7-1.2c1,0,1.9,0.4,2.7,1.2c0.7,0.8,1.1,1.7,1.1,2.7S23.1,33.2,22.4,33.9z"/>
</svg>
