<svg width="32" height="32" viewBox="0 0 32 32" fill="none" xmlns="http://www.w3.org/2000/svg">
<path d="M15.4002 10.764C15.6442 10.764 15.8762 10.8 16.0962 10.872C16.3202 10.94 16.5162 11.05 16.6842 11.202C16.8522 11.35 16.9842 11.542 17.0802 11.778C17.1802 12.014 17.2302 12.3 17.2302 12.636V13.35C17.2302 13.69 17.1802 13.98 17.0802 14.22C16.9842 14.456 16.8522 14.648 16.6842 14.796C16.5202 14.944 16.3262 15.052 16.1022 15.12C15.8822 15.188 15.6482 15.222 15.4002 15.222C15.1522 15.222 14.9162 15.188 14.6922 15.12C14.4722 15.052 14.2782 14.944 14.1102 14.796C13.9462 14.648 13.8142 14.456 13.7142 14.22C13.6182 13.98 13.5702 13.69 13.5702 13.35V12.636C13.5702 12.3 13.6182 12.014 13.7142 11.778C13.8142 11.542 13.9482 11.35 14.1162 11.202C14.2842 11.05 14.4782 10.94 14.6982 10.872C14.9222 10.8 15.1562 10.764 15.4002 10.764ZM15.4002 14.52C15.5482 14.52 15.6862 14.502 15.8142 14.466C15.9422 14.426 16.0542 14.358 16.1502 14.262C16.2462 14.166 16.3202 14.036 16.3722 13.872C16.4282 13.708 16.4562 13.502 16.4562 13.254V12.732C16.4562 12.484 16.4282 12.278 16.3722 12.114C16.3202 11.95 16.2462 11.82 16.1502 11.724C16.0542 11.628 15.9422 11.562 15.8142 11.526C15.6862 11.486 15.5482 11.466 15.4002 11.466C15.2562 11.466 15.1202 11.486 14.9922 11.526C14.8642 11.562 14.7522 11.628 14.6562 11.724C14.5602 11.82 14.4842 11.95 14.4282 12.114C14.3722 12.278 14.3442 12.484 14.3442 12.732V13.254C14.3442 13.502 14.3722 13.708 14.4282 13.872C14.4842 14.036 14.5602 14.166 14.6562 14.262C14.7522 14.358 14.8642 14.426 14.9922 14.466C15.1202 14.502 15.2562 14.52 15.4002 14.52ZM19.5506 10.83C20.1946 10.83 20.6686 10.99 20.9726 11.31C21.2766 11.626 21.4286 12.084 21.4286 12.684V13.302C21.4286 13.602 21.3946 13.868 21.3266 14.1C21.2586 14.328 21.1486 14.52 20.9966 14.676C20.8486 14.832 20.6566 14.95 20.4206 15.03C20.1846 15.114 19.8986 15.156 19.5626 15.156H18.0446V10.83H19.5506ZM18.8066 14.508H19.4486C19.6406 14.508 19.8106 14.486 19.9586 14.442C20.1106 14.398 20.2366 14.328 20.3366 14.232C20.4406 14.136 20.5186 14.01 20.5706 13.854C20.6266 13.694 20.6546 13.5 20.6546 13.272V12.714C20.6546 12.258 20.5526 11.938 20.3486 11.754C20.1486 11.57 19.8486 11.478 19.4486 11.478H18.8066V14.508Z" fill="#737680"/>
<path d="M23.4675 7.17095C21.749 5.45243 19.675 4.6228 17.3046 4.6228C15.2305 4.6228 13.275 5.33391 11.5564 6.75614C9.83792 8.17836 8.83051 10.1339 8.59347 12.6821L6.5194 15.7043C6.2231 16.0598 6.2231 16.4154 6.34162 16.7709C6.5194 17.0672 6.8157 17.245 7.28977 17.245H8.53422V21.6895C8.53422 22.1043 8.71199 22.4598 9.00829 22.7561C9.30459 23.0524 9.66014 23.2302 10.075 23.2302H12.8601V26.4302C12.8601 26.7265 12.9787 26.9043 13.1564 27.1413C13.3342 27.3784 13.5713 27.4376 13.8675 27.4376H19.3787C19.675 27.4376 19.8527 27.3191 20.0898 27.1413C20.3268 26.9635 20.3861 26.7265 20.3861 26.4302V21.3932C22.1046 20.5635 23.5268 19.4376 24.5935 18.0747C25.6601 16.7117 26.1342 15.1117 26.1342 13.3339C26.075 10.9043 25.1861 8.88947 23.4675 7.17095ZM17.6009 18.2524C13.9861 18.2524 11.3787 15.8228 11.3787 12.8598C11.3787 9.89688 13.9861 7.46725 17.6009 7.46725C21.2157 7.46725 23.8231 9.89688 23.8231 12.8598C23.8231 15.8228 21.2157 18.2524 17.6009 18.2524Z" fill="#737680"/>
<mask id="mask0_1643_14741" style="mask-type:alpha" maskUnits="userSpaceOnUse" x="6" y="4" width="21" height="24">
<path d="M23.4675 7.17095C21.749 5.45243 19.675 4.6228 17.3046 4.6228C15.2305 4.6228 13.275 5.33391 11.5564 6.75614C9.83792 8.17836 8.83051 10.1339 8.59347 12.6821L6.5194 15.7043C6.2231 16.0598 6.2231 16.4154 6.34162 16.7709C6.5194 17.0672 6.8157 17.245 7.28977 17.245H8.53422V21.6895C8.53422 22.1043 8.71199 22.4598 9.00829 22.7561C9.30459 23.0524 9.66014 23.2302 10.075 23.2302H12.8601V26.4302C12.8601 26.7265 12.9787 26.9043 13.1564 27.1413C13.3342 27.3784 13.5713 27.4376 13.8675 27.4376H19.3787C19.675 27.4376 19.8527 27.3191 20.0898 27.1413C20.3268 26.9635 20.3861 26.7265 20.3861 26.4302V21.3932C22.1046 20.5635 23.5268 19.4376 24.5935 18.0747C25.6601 16.7117 26.1342 15.1117 26.1342 13.3339C26.075 10.9043 25.1861 8.88947 23.4675 7.17095ZM17.6009 18.2524C13.9861 18.2524 11.3787 15.8228 11.3787 12.8598C11.3787 9.89688 13.9861 7.46725 17.6009 7.46725C21.2157 7.46725 23.8231 9.89688 23.8231 12.8598C23.8231 15.8228 21.2157 18.2524 17.6009 18.2524Z" fill="#737680"/>
</mask>
<g mask="url(#mask0_1643_14741)">
<path d="M6.74557 29.9331C1.99551 29.6842 0.339085 23.5023 4.32829 20.9117C6.11232 19.7531 6.94744 17.5776 6.39687 15.5228C5.16578 10.9283 10.5332 7.44267 14.2298 10.4361C15.8829 11.7748 18.2101 11.8967 19.9941 10.7382C23.9833 8.14755 28.957 12.1752 27.2524 16.6158C26.4901 18.6017 27.0932 20.8527 28.7464 22.1914C32.4429 25.1848 30.1494 31.1596 25.3993 30.9107C23.275 30.7994 21.3206 32.0686 20.5583 34.0545C18.8537 38.4951 12.4625 38.1602 11.2314 33.5657C10.6809 31.511 8.86987 30.0444 6.74557 29.9331Z" fill="#3DB79F"/>
</g>
</svg>
