<svg width="32" height="32" viewBox="0 0 32 32" fill="none" xmlns="http://www.w3.org/2000/svg">
<path d="M14.3029 14.532C14.5789 14.532 14.7789 14.484 14.9029 14.388C15.0269 14.288 15.0889 14.164 15.0889 14.016V13.95C15.0889 13.774 15.0229 13.644 14.8909 13.56C14.7629 13.472 14.5749 13.4 14.3269 13.344C14.1469 13.304 13.9649 13.262 13.7809 13.218C13.6009 13.174 13.4369 13.108 13.2889 13.02C13.1449 12.932 13.0269 12.814 12.9349 12.666C12.8429 12.514 12.7969 12.312 12.7969 12.06V11.982C12.7969 11.85 12.8229 11.714 12.8749 11.574C12.9269 11.43 13.0129 11.298 13.1329 11.178C13.2529 11.058 13.4109 10.96 13.6069 10.884C13.8069 10.804 14.0529 10.764 14.3449 10.764C14.5849 10.764 14.8149 10.79 15.0349 10.842C15.2549 10.89 15.4749 10.984 15.6949 11.124L15.3349 11.718C15.1589 11.606 14.9949 11.534 14.8429 11.502C14.6909 11.466 14.5289 11.448 14.3569 11.448C14.2209 11.448 14.1029 11.464 14.0029 11.496C13.9029 11.528 13.8189 11.57 13.7509 11.622C13.6869 11.674 13.6389 11.73 13.6069 11.79C13.5749 11.85 13.5589 11.91 13.5589 11.97V12.042C13.5589 12.146 13.5829 12.23 13.6309 12.294C13.6829 12.358 13.7509 12.412 13.8349 12.456C13.9189 12.496 14.0169 12.53 14.1289 12.558C14.2449 12.582 14.3669 12.608 14.4949 12.636C14.7509 12.692 14.9649 12.762 15.1369 12.846C15.3129 12.926 15.4529 13.018 15.5569 13.122C15.6649 13.226 15.7409 13.342 15.7849 13.47C15.8329 13.594 15.8569 13.73 15.8569 13.878V13.956C15.8569 14.196 15.8129 14.398 15.7249 14.562C15.6409 14.722 15.5249 14.852 15.3769 14.952C15.2289 15.048 15.0589 15.116 14.8669 15.156C14.6749 15.2 14.4749 15.222 14.2669 15.222C14.1109 15.222 13.9569 15.208 13.8049 15.18C13.6569 15.156 13.5169 15.122 13.3849 15.078C13.2529 15.034 13.1289 14.982 13.0129 14.922C12.9009 14.858 12.8029 14.792 12.7189 14.724L13.0909 14.112C13.2229 14.224 13.3929 14.322 13.6009 14.406C13.8089 14.49 14.0429 14.532 14.3029 14.532ZM19.4448 10.83V11.466H17.4228V12.63H19.3188V13.254H17.4228V14.52H19.4868V15.156H16.6608V10.83H19.4448ZM21.7092 14.532C21.9852 14.532 22.1852 14.484 22.3092 14.388C22.4332 14.288 22.4952 14.164 22.4952 14.016V13.95C22.4952 13.774 22.4292 13.644 22.2972 13.56C22.1692 13.472 21.9812 13.4 21.7332 13.344C21.5532 13.304 21.3712 13.262 21.1872 13.218C21.0072 13.174 20.8432 13.108 20.6952 13.02C20.5512 12.932 20.4332 12.814 20.3412 12.666C20.2492 12.514 20.2032 12.312 20.2032 12.06V11.982C20.2032 11.85 20.2292 11.714 20.2812 11.574C20.3332 11.43 20.4192 11.298 20.5392 11.178C20.6592 11.058 20.8172 10.96 21.0132 10.884C21.2132 10.804 21.4592 10.764 21.7512 10.764C21.9912 10.764 22.2212 10.79 22.4412 10.842C22.6612 10.89 22.8812 10.984 23.1012 11.124L22.7412 11.718C22.5652 11.606 22.4012 11.534 22.2492 11.502C22.0972 11.466 21.9352 11.448 21.7632 11.448C21.6272 11.448 21.5092 11.464 21.4092 11.496C21.3092 11.528 21.2252 11.57 21.1572 11.622C21.0932 11.674 21.0452 11.73 21.0132 11.79C20.9812 11.85 20.9652 11.91 20.9652 11.97V12.042C20.9652 12.146 20.9892 12.23 21.0372 12.294C21.0892 12.358 21.1572 12.412 21.2412 12.456C21.3252 12.496 21.4232 12.53 21.5352 12.558C21.6512 12.582 21.7732 12.608 21.9012 12.636C22.1572 12.692 22.3712 12.762 22.5432 12.846C22.7192 12.926 22.8592 13.018 22.9632 13.122C23.0712 13.226 23.1472 13.342 23.1912 13.47C23.2392 13.594 23.2632 13.73 23.2632 13.878V13.956C23.2632 14.196 23.2192 14.398 23.1312 14.562C23.0472 14.722 22.9312 14.852 22.7832 14.952C22.6352 15.048 22.4652 15.116 22.2732 15.156C22.0812 15.2 21.8812 15.222 21.6732 15.222C21.5172 15.222 21.3632 15.208 21.2112 15.18C21.0632 15.156 20.9232 15.122 20.7912 15.078C20.6592 15.034 20.5352 14.982 20.4192 14.922C20.3072 14.858 20.2092 14.792 20.1252 14.724L20.4972 14.112C20.6292 14.224 20.7992 14.322 21.0072 14.406C21.2152 14.49 21.4492 14.532 21.7092 14.532Z" fill="#737680"/>
<path d="M23.4675 7.17095C21.749 5.45243 19.675 4.6228 17.3046 4.6228C15.2305 4.6228 13.275 5.33391 11.5564 6.75614C9.83792 8.17836 8.83051 10.1339 8.59347 12.6821L6.5194 15.7043C6.2231 16.0598 6.2231 16.4154 6.34162 16.7709C6.5194 17.0672 6.8157 17.245 7.28977 17.245H8.53422V21.6895C8.53422 22.1043 8.71199 22.4598 9.00829 22.7561C9.30459 23.0524 9.66014 23.2302 10.075 23.2302H12.8601V26.4302C12.8601 26.7265 12.9787 26.9043 13.1564 27.1413C13.3342 27.3784 13.5713 27.4376 13.8675 27.4376H19.3787C19.675 27.4376 19.8527 27.3191 20.0898 27.1413C20.3268 26.9635 20.3861 26.7265 20.3861 26.4302V21.3932C22.1046 20.5635 23.5268 19.4376 24.5935 18.0747C25.6601 16.7117 26.1342 15.1117 26.1342 13.3339C26.075 10.9043 25.1861 8.88947 23.4675 7.17095ZM17.6009 18.2524C13.9861 18.2524 11.3787 15.8228 11.3787 12.8598C11.3787 9.89688 13.9861 7.46725 17.6009 7.46725C21.2157 7.46725 23.8231 9.89688 23.8231 12.8598C23.8231 15.8228 21.2157 18.2524 17.6009 18.2524Z" fill="#737680"/>
<mask id="mask0_2219_175" style="mask-type:alpha" maskUnits="userSpaceOnUse" x="6" y="4" width="21" height="24">
<path d="M23.4675 7.17095C21.749 5.45243 19.675 4.6228 17.3046 4.6228C15.2305 4.6228 13.275 5.33391 11.5564 6.75614C9.83792 8.17836 8.83051 10.1339 8.59347 12.6821L6.5194 15.7043C6.2231 16.0598 6.2231 16.4154 6.34162 16.7709C6.5194 17.0672 6.8157 17.245 7.28977 17.245H8.53422V21.6895C8.53422 22.1043 8.71199 22.4598 9.00829 22.7561C9.30459 23.0524 9.66014 23.2302 10.075 23.2302H12.8601V26.4302C12.8601 26.7265 12.9787 26.9043 13.1564 27.1413C13.3342 27.3784 13.5713 27.4376 13.8675 27.4376H19.3787C19.675 27.4376 19.8527 27.3191 20.0898 27.1413C20.3268 26.9635 20.3861 26.7265 20.3861 26.4302V21.3932C22.1046 20.5635 23.5268 19.4376 24.5935 18.0747C25.6601 16.7117 26.1342 15.1117 26.1342 13.3339C26.075 10.9043 25.1861 8.88947 23.4675 7.17095ZM17.6009 18.2524C13.9861 18.2524 11.3787 15.8228 11.3787 12.8598C11.3787 9.89688 13.9861 7.46725 17.6009 7.46725C21.2157 7.46725 23.8231 9.89688 23.8231 12.8598C23.8231 15.8228 21.2157 18.2524 17.6009 18.2524Z" fill="#737680"/>
</mask>
<g mask="url(#mask0_2219_175)">
<path d="M6.74557 41.9331C1.99551 41.6842 0.339085 35.5023 4.32829 32.9117C6.11232 31.7531 6.94744 29.5776 6.39687 27.5228C5.16578 22.9283 10.5332 19.4427 14.2298 22.4361C15.8829 23.7748 18.2101 23.8967 19.9941 22.7382C23.9833 20.1476 28.957 24.1752 27.2524 28.6158C26.4901 30.6017 27.0932 32.8527 28.7464 34.1914C32.4429 37.1848 30.1494 43.1596 25.3993 42.9107C23.275 42.7994 21.3206 44.0686 20.5583 46.0545C18.8537 50.4951 12.4625 50.1602 11.2314 45.5657C10.6809 43.511 8.86987 42.0444 6.74557 41.9331Z" fill="#3DB79F"/>
</g>
</svg>
