<svg width="24" height="24" viewBox="0 0 24 24" fill="none" xmlns="http://www.w3.org/2000/svg">
<path d="M21.4775 15.9839V8.62295C21.4796 8.17267 21.3619 7.72993 21.1364 7.34015C20.911 6.95038 20.5859 6.6276 20.1945 6.40495L13.7825 2.71495C13.3931 2.48815 12.9506 2.36865 12.5 2.36865C12.0494 2.36865 11.6068 2.48815 11.2175 2.71495L4.80547 6.39195C4.41483 6.61865 4.09072 6.94416 3.8657 7.33576C3.64067 7.72737 3.52264 8.17129 3.52347 8.62295V15.9839C3.52107 16.4343 3.63854 16.8772 3.86383 17.2671C4.08913 17.6571 4.41413 17.9801 4.80547 18.2029L11.2175 21.8959C11.6068 22.1228 12.0494 22.2422 12.5 22.2422C12.9506 22.2422 13.3931 22.1228 13.7825 21.8959L20.1945 18.2029C20.586 17.9802 20.9112 17.6573 21.1367 17.2673C21.3622 16.8773 21.4798 16.4344 21.4775 15.9839V15.9839ZM11.2185 18.9339L6.08847 15.9839V10.0469L11.2185 13.0349V18.9339ZM12.5005 10.8149L7.42347 7.85395L12.5015 4.92995L17.5795 7.85395L12.5005 10.8149ZM18.9125 15.9829L13.7825 18.9329V13.0329L18.9125 10.0449V15.9829Z" fill="url(#paint0_linear_113_69)"/>
<defs>
<linearGradient id="paint0_linear_113_69" x1="12.5005" y1="2.36865" x2="12.5005" y2="22.2422" gradientUnits="userSpaceOnUse">
<stop stop-color="#3580E3"/>
<stop offset="0.49" stop-color="#8579F3"/>
<stop offset="1" stop-color="#B578EF"/>
</linearGradient>
</defs>
</svg>
