<svg width="20" height="20" viewBox="0 0 20 20" fill="none" xmlns="http://www.w3.org/2000/svg">
<path d="M10.0003 15.278C11.0168 15.278 12.0104 14.9766 12.8555 14.4119C13.7006 13.8471 14.3593 13.0445 14.7482 12.1054C15.1372 11.1663 15.2389 10.133 15.0405 9.13607C14.8421 8.13917 14.3526 7.22349 13.6338 6.50483C12.915 5.78616 11.9992 5.2968 11.0023 5.09862C10.0053 4.90045 8.97204 5.00236 8.03302 5.39147C7.09401 5.78058 6.29148 6.43942 5.72692 7.28465C5.16236 8.12989 4.86113 9.12356 4.86133 10.14C4.86186 11.5027 5.40349 12.8094 6.36715 13.7729C7.33082 14.7364 8.63763 15.2777 10.0003 15.278V15.278ZM10.5143 6.065C11.5072 6.18967 12.4203 6.67251 13.0823 7.42284C13.7443 8.17317 14.1096 9.13938 14.1096 10.14C14.1096 11.1406 13.7443 12.1068 13.0823 12.8572C12.4203 13.6075 11.5072 14.0903 10.5143 14.215V6.065Z" fill="white"/>
</svg>
