<svg width="30" height="30" viewBox="0 0 30 30" fill="none" xmlns="http://www.w3.org/2000/svg">
<rect width="30" height="30" rx="5" fill="white"/>
<path d="M17.5 22.4997H19.1667V20.833H17.5V22.4997ZM20.8333 12.4997H22.5V10.833H20.8333V12.4997ZM7.5 9.16634V20.833C7.5 21.7497 8.25 22.4997 9.16667 22.4997H12.5V20.833H9.16667V9.16634H12.5V7.49967H9.16667C8.25 7.49967 7.5 8.24967 7.5 9.16634ZM20.8333 7.49967V9.16634H22.5C22.5 8.24967 21.75 7.49967 20.8333 7.49967ZM14.1667 24.1663H15.8333V5.83301H14.1667V24.1663ZM20.8333 19.1663H22.5V17.4997H20.8333V19.1663ZM17.5 9.16634H19.1667V7.49967H17.5V9.16634ZM20.8333 15.833H22.5V14.1663H20.8333V15.833ZM20.8333 22.4997C21.75 22.4997 22.5 21.7497 22.5 20.833H20.8333V22.4997Z" fill="#414244"/>
</svg>
