<svg width="32" height="32" viewBox="0 0 32 32" fill="none" xmlns="http://www.w3.org/2000/svg">
<rect width="32" height="32" fill="#B5B5B5" rx="7px" ry="7px"></rect>

<path d="M12.8854 28.1237V22.1931L9.70235 19.0302C9.5669 18.8984 9.49917 18.7666 9.36372 18.569C9.22827 18.3713 9.16055 18.1736 9.09282 17.9759C9.43145 18.3054 9.8378 18.5031 10.3119 18.7007C10.7859 18.8984 11.1923 18.9643 11.7341 18.9643C12.2759 18.9643 12.8177 18.8984 13.224 18.7007C13.6981 18.5031 14.1722 18.1736 14.714 17.7782C14.9172 17.5805 15.1203 17.4487 15.3235 17.3829C15.5267 17.2511 15.7299 17.2511 15.8653 17.2511C16.0685 17.2511 16.2717 17.317 16.4748 17.3829C16.678 17.4487 16.8812 17.6464 17.0844 17.7782C17.6262 18.1736 18.168 18.5031 18.5743 18.7007C18.9807 18.8984 19.5225 18.9643 20.0643 19.0302C20.6061 19.0302 21.0801 18.9643 21.5542 18.7666C22.0283 18.569 22.4346 18.3713 22.7732 18.0418C22.7055 18.2395 22.6378 18.4372 22.5701 18.6348C22.4346 18.7666 22.3669 18.9643 22.1637 19.0961L18.9129 22.259V28.1895H12.8854V28.1237ZM11.7341 17.6464C10.9214 17.6464 10.2441 17.3829 9.70235 16.8557C9.16055 16.3285 8.88965 15.6696 8.88965 14.8789C8.88965 14.4835 8.95737 14.154 9.16055 13.8246C9.36372 13.4951 9.49917 13.1656 9.77007 12.902L12.9531 9.7391V3.80859H19.0484V9.6732L22.2992 12.8361C22.5701 13.0997 22.7732 13.4292 22.9087 13.7587C23.0441 14.0881 23.1119 14.4835 23.1119 14.8789C23.1119 15.6696 22.841 16.3285 22.2992 16.8557C21.7574 17.3829 21.0801 17.6464 20.2674 17.7123C19.7256 17.7123 19.3193 17.6464 19.0484 17.4487C18.7775 17.2511 18.4389 17.0534 18.168 16.7898C17.7616 16.4603 17.3553 16.2626 17.0166 16.1309C16.678 15.9991 16.3394 15.9332 16.0685 15.9332C15.7299 15.9332 15.3912 15.9991 15.0526 16.1309C14.714 16.2626 14.3754 16.4603 13.969 16.7898C13.6981 17.0534 13.3595 17.2511 13.0886 17.4487C12.8177 17.6464 12.2082 17.6464 11.7341 17.6464Z" fill="url(#paint0_linear_1193_9634)"/>
<defs>
<linearGradient id="paint0_linear_1193_9634" x1="16.0008" y1="3.80859" x2="16.0008" y2="28.1895" gradientUnits="userSpaceOnUse">
<stop stop-color="#3580E3"/>
<stop offset="0.49" stop-color="#8579F3"/>
<stop offset="1" stop-color="#B578EF"/>
</linearGradient>
</defs>
</svg>
