<svg width="21" height="24" viewBox="0 0 21 24" fill="none" xmlns="http://www.w3.org/2000/svg">
<path d="M17.4675 3.16924C15.749 1.45072 13.675 0.621094 11.3046 0.621094C9.23051 0.621094 7.27496 1.3322 5.55644 2.75443C3.83792 4.17665 2.83051 6.1322 2.59347 8.68035L0.519401 11.7026C0.223104 12.0581 0.223104 12.4137 0.341623 12.7692C0.519401 13.0655 0.815697 13.2433 1.28977 13.2433H2.53422V17.6878C2.53422 18.1026 2.71199 18.4581 3.00829 18.7544C3.30459 19.0507 3.66014 19.2285 4.07496 19.2285H6.86014V22.4285C6.86014 22.7248 6.97866 22.9026 7.15644 23.1396C7.33422 23.3766 7.57125 23.4359 7.86755 23.4359H13.3787C13.675 23.4359 13.8527 23.3174 14.0898 23.1396C14.3268 22.9618 14.3861 22.7248 14.3861 22.4285V17.3915C16.1046 16.5618 17.5268 15.4359 18.5935 14.0729C19.6601 12.71 20.1342 11.11 20.1342 9.3322C20.075 6.90257 19.1861 4.88776 17.4675 3.16924ZM11.6009 14.2507C7.98607 14.2507 5.37866 11.8211 5.37866 8.85813C5.37866 5.89517 7.98607 3.46554 11.6009 3.46554C15.2157 3.46554 17.8231 5.89517 17.8231 8.85813C17.8231 11.8211 15.2157 14.2507 11.6009 14.2507Z" fill="#737680"/>
</svg>
