<svg width="32" height="32" viewBox="0 0 32 32" fill="none" xmlns="http://www.w3.org/2000/svg">
<path d="M23.4675 7.17095C21.749 5.45243 19.675 4.6228 17.3046 4.6228C15.2305 4.6228 13.275 5.33391 11.5564 6.75614C9.83792 8.17836 8.83051 10.1339 8.59347 12.6821L6.5194 15.7043C6.2231 16.0598 6.2231 16.4154 6.34162 16.7709C6.5194 17.0672 6.8157 17.245 7.28977 17.245H8.53422V21.6895C8.53422 22.1043 8.71199 22.4598 9.00829 22.7561C9.30459 23.0524 9.66014 23.2302 10.075 23.2302H12.8601V26.4302C12.8601 26.7265 12.9787 26.9043 13.1564 27.1413C13.3342 27.3784 13.5713 27.4376 13.8675 27.4376H19.3787C19.675 27.4376 19.8527 27.3191 20.0898 27.1413C20.3268 26.9635 20.3861 26.7265 20.3861 26.4302V21.3932C22.1046 20.5635 23.5268 19.4376 24.5935 18.0747C25.6601 16.7117 26.1342 15.1117 26.1342 13.3339C26.075 10.9043 25.1861 8.88947 23.4675 7.17095ZM17.6009 18.2524C13.9861 18.2524 11.3787 15.8228 11.3787 12.8598C11.3787 9.89688 13.9861 7.46725 17.6009 7.46725C21.2157 7.46725 23.8231 9.89688 23.8231 12.8598C23.8231 15.8228 21.2157 18.2524 17.6009 18.2524Z" fill="#3DB79F"/>
<path d="M18.3976 13.218H16.6036V15.156H15.8356V10.83H16.6036V12.582H18.3976V10.83H19.1656V15.156H18.3976V13.218Z" fill="#3DB79F"/>
</svg>
