<svg width="18" height="19" viewBox="0 0 18 19" fill="none" xmlns="http://www.w3.org/2000/svg">
<path d="M9 3.70825C5.25 3.70825 2.0475 6.04075 0.75 9.33325C2.0475 12.6258 5.25 14.9583 9 14.9583C12.75 14.9583 15.9525 12.6258 17.25 9.33325C15.9525 6.04075 12.75 3.70825 9 3.70825ZM9 13.0833C6.93 13.0833 5.25 11.4033 5.25 9.33325C5.25 7.26325 6.93 5.58325 9 5.58325C11.07 5.58325 12.75 7.26325 12.75 9.33325C12.75 11.4033 11.07 13.0833 9 13.0833ZM9 7.08325C7.755 7.08325 6.75 8.08825 6.75 9.33325C6.75 10.5783 7.755 11.5833 9 11.5833C10.245 11.5833 11.25 10.5783 11.25 9.33325C11.25 8.08825 10.245 7.08325 9 7.08325Z" fill="white"/>
</svg>
