<svg width="24" height="24" viewBox="0 0 24 24" fill="none" xmlns="http://www.w3.org/2000/svg">
<circle cx="12" cy="12" r="12" fill="#F9FAFB"/>
<path d="M11.9999 16.9581L12.4374 16.6956V12.2623L16.1999 10.1331V9.60811L15.7624 9.34561L11.9999 11.5331L8.23743 9.37477L7.79994 9.63727V10.1623L11.5624 12.2914V16.7248L11.9999 16.9581ZM11.4458 17.5998L7.4791 15.2664C7.3041 15.1789 7.18743 15.0623 7.09993 14.8873C7.01243 14.7123 6.9541 14.5373 6.9541 14.3623V9.75394C6.9541 9.57894 7.01243 9.40394 7.09993 9.22894C7.18743 9.05394 7.33327 8.93727 7.4791 8.82061L11.4458 6.48727C11.6208 6.39977 11.7958 6.37061 11.9708 6.37061C12.1749 6.37061 12.3499 6.39977 12.4958 6.48727L16.4624 8.82061C16.6374 8.90811 16.7541 9.05394 16.8416 9.22894C16.9291 9.40394 16.9874 9.57894 16.9874 9.75394V14.3914C16.9874 14.5664 16.9291 14.7414 16.8416 14.9164C16.7541 15.0914 16.6083 15.2081 16.4333 15.2956L12.4374 17.6289C12.2624 17.7164 12.0874 17.7748 11.9124 17.7748C11.7666 17.7456 11.5916 17.6873 11.4458 17.5998Z" fill="url(#paint0_linear_1595_15012)"/>
<defs>
<linearGradient id="paint0_linear_1595_15012" x1="11.9708" y1="6.37061" x2="11.9708" y2="17.7748" gradientUnits="userSpaceOnUse">
<stop stop-color="#3580E3"/>
<stop offset="0.49" stop-color="#8579F3"/>
<stop offset="1" stop-color="#B578EF"/>
</linearGradient>
</defs>
</svg>
