<svg width="24" height="24" viewBox="0 0 24 24" fill="none" xmlns="http://www.w3.org/2000/svg">
<circle cx="12" cy="12" r="12" fill="#F9FAFB"/>
<path d="M7.4291 14.1982C7.79135 14.1982 8.05385 14.1352 8.2166 14.0092C8.37935 13.8779 8.46072 13.7152 8.46072 13.5209V13.4343C8.46072 13.2033 8.3741 13.0327 8.20085 12.9224C8.03285 12.8069 7.7861 12.7124 7.4606 12.6389C7.22435 12.5864 6.98547 12.5313 6.74397 12.4736C6.50772 12.4158 6.29247 12.3292 6.09822 12.2137C5.90922 12.0982 5.75435 11.9433 5.6336 11.7491C5.51285 11.5496 5.45247 11.2844 5.45247 10.9537V10.8513C5.45247 10.6781 5.4866 10.4996 5.55485 10.3158C5.6231 10.1268 5.73597 9.95356 5.89347 9.79606C6.05097 9.63856 6.25835 9.50994 6.5156 9.41019C6.7781 9.30519 7.10097 9.25269 7.48422 9.25269C7.79922 9.25269 8.1011 9.28681 8.38985 9.35506C8.6786 9.41806 8.96735 9.54144 9.2561 9.72519L8.7836 10.5048C8.5526 10.3578 8.33735 10.2633 8.13785 10.2213C7.93835 10.1741 7.72572 10.1504 7.49997 10.1504C7.32147 10.1504 7.1666 10.1714 7.03535 10.2134C6.9041 10.2554 6.79385 10.3106 6.7046 10.3788C6.6206 10.4471 6.5576 10.5206 6.5156 10.5993C6.4736 10.6781 6.4526 10.7568 6.4526 10.8356V10.9301C6.4526 11.0666 6.4841 11.1768 6.5471 11.2608C6.61535 11.3448 6.7046 11.4157 6.81485 11.4734C6.9251 11.5259 7.05372 11.5706 7.20072 11.6073C7.35297 11.6388 7.5131 11.6729 7.6811 11.7097C8.0171 11.7832 8.29797 11.8751 8.52372 11.9853C8.75472 12.0903 8.93847 12.2111 9.07497 12.3476C9.21672 12.4841 9.31647 12.6363 9.37422 12.8043C9.43722 12.9671 9.46872 13.1456 9.46872 13.3398V13.4422C9.46872 13.7572 9.41097 14.0223 9.29547 14.2376C9.18522 14.4476 9.03297 14.6182 8.83872 14.7494C8.64447 14.8754 8.42135 14.9647 8.16935 15.0172C7.91735 15.0749 7.65485 15.1038 7.38185 15.1038C7.1771 15.1038 6.97497 15.0854 6.77547 15.0487C6.58122 15.0172 6.39747 14.9726 6.22422 14.9148C6.05097 14.8571 5.88822 14.7888 5.73597 14.7101C5.58897 14.6261 5.46035 14.5394 5.3501 14.4502L5.83835 13.6469C6.0116 13.7939 6.23472 13.9226 6.50772 14.0328C6.78072 14.1431 7.08785 14.1982 7.4291 14.1982Z" fill="url(#paint0_linear_1595_14850)"/>
<path d="M14.1778 9.33931V10.1741H11.5239V11.7018H14.0124V12.5208H11.5239V14.1824H14.2329V15.0172H10.5238V9.33931H14.1778Z" fill="url(#paint1_linear_1595_14850)"/>
<path d="M17.1498 14.1982C17.5121 14.1982 17.7746 14.1352 17.9373 14.0092C18.1001 13.8779 18.1814 13.7152 18.1814 13.5209V13.4343C18.1814 13.2033 18.0948 13.0327 17.9215 12.9224C17.7536 12.8069 17.5068 12.7124 17.1813 12.6389C16.9451 12.5864 16.7062 12.5313 16.4647 12.4736C16.2284 12.4158 16.0132 12.3292 15.8189 12.2137C15.6299 12.0982 15.4751 11.9433 15.3543 11.7491C15.2336 11.5496 15.1732 11.2844 15.1732 10.9537V10.8513C15.1732 10.6781 15.2073 10.4996 15.2755 10.3158C15.3438 10.1268 15.4567 9.95356 15.6142 9.79606C15.7717 9.63856 15.979 9.50994 16.2363 9.41019C16.4988 9.30519 16.8217 9.25269 17.2049 9.25269C17.5199 9.25269 17.8218 9.28681 18.1105 9.35506C18.3993 9.41806 18.6881 9.54144 18.9768 9.72519L18.5043 10.5048C18.2733 10.3578 18.0581 10.2633 17.8586 10.2213C17.6591 10.1741 17.4464 10.1504 17.2207 10.1504C17.0422 10.1504 16.8873 10.1714 16.7561 10.2134C16.6248 10.2554 16.5146 10.3106 16.4253 10.3788C16.3413 10.4471 16.2783 10.5206 16.2363 10.5993C16.1943 10.6781 16.1733 10.7568 16.1733 10.8356V10.9301C16.1733 11.0666 16.2048 11.1768 16.2678 11.2608C16.3361 11.3448 16.4253 11.4157 16.5356 11.4734C16.6458 11.5259 16.7744 11.5706 16.9214 11.6073C17.0737 11.6388 17.2338 11.6729 17.4018 11.7097C17.7378 11.7832 18.0187 11.8751 18.2444 11.9853C18.4754 12.0903 18.6592 12.2111 18.7957 12.3476C18.9374 12.4841 19.0372 12.6363 19.0949 12.8043C19.1579 12.9671 19.1894 13.1456 19.1894 13.3398V13.4422C19.1894 13.7572 19.1317 14.0223 19.0162 14.2376C18.9059 14.4476 18.7537 14.6182 18.5594 14.7494C18.3652 14.8754 18.1421 14.9647 17.89 15.0172C17.6381 15.0749 17.3756 15.1038 17.1026 15.1038C16.8978 15.1038 16.6957 15.0854 16.4962 15.0487C16.3019 15.0172 16.1182 14.9726 15.9449 14.9148C15.7717 14.8571 15.6089 14.7888 15.4567 14.7101C15.3097 14.6261 15.1811 14.5394 15.0708 14.4502L15.5591 13.6469C15.7323 13.7939 15.9554 13.9226 16.2284 14.0328C16.5014 14.1431 16.8085 14.1982 17.1498 14.1982Z" fill="url(#paint2_linear_1595_14850)"/>
<defs>
<linearGradient id="paint0_linear_1595_14850" x1="12.2698" y1="9.25269" x2="12.2698" y2="15.1038" gradientUnits="userSpaceOnUse">
<stop stop-color="#3580E3"/>
<stop offset="0.49" stop-color="#8579F3"/>
<stop offset="1" stop-color="#B578EF"/>
</linearGradient>
<linearGradient id="paint1_linear_1595_14850" x1="12.2698" y1="9.25269" x2="12.2698" y2="15.1038" gradientUnits="userSpaceOnUse">
<stop stop-color="#3580E3"/>
<stop offset="0.49" stop-color="#8579F3"/>
<stop offset="1" stop-color="#B578EF"/>
</linearGradient>
<linearGradient id="paint2_linear_1595_14850" x1="12.2698" y1="9.25269" x2="12.2698" y2="15.1038" gradientUnits="userSpaceOnUse">
<stop stop-color="#3580E3"/>
<stop offset="0.49" stop-color="#8579F3"/>
<stop offset="1" stop-color="#B578EF"/>
</linearGradient>
</defs>
</svg>
