<svg width="24" height="24" viewBox="0 0 24 24" fill="none" xmlns="http://www.w3.org/2000/svg">
<circle cx="12" cy="12" r="12" fill="#F9FAFB"/>
<path d="M10.2481 18.8203V15.4844L8.45763 13.7052C8.38144 13.6311 8.34335 13.557 8.26715 13.4458C8.19096 13.3346 8.15287 13.2234 8.11477 13.1122C8.30525 13.2975 8.53382 13.4087 8.80049 13.5199C9.06715 13.6311 9.29573 13.6682 9.60049 13.6682C9.90525 13.6682 10.21 13.6311 10.4386 13.5199C10.7052 13.4087 10.9719 13.2234 11.2767 13.001C11.391 12.8898 11.5052 12.8157 11.6195 12.7786C11.7338 12.7045 11.8481 12.7045 11.9243 12.7045C12.0386 12.7045 12.1529 12.7415 12.2672 12.7786C12.3814 12.8157 12.4957 12.9268 12.61 13.001C12.9148 13.2234 13.2195 13.4087 13.4481 13.5199C13.6767 13.6311 13.9814 13.6682 14.2862 13.7052C14.591 13.7052 14.8576 13.6682 15.1243 13.557C15.391 13.4458 15.6195 13.3346 15.81 13.1492C15.7719 13.2604 15.7338 13.3716 15.6957 13.4828C15.6195 13.557 15.5814 13.6682 15.4672 13.7423L13.6386 15.5214V18.8574H10.2481V18.8203ZM9.60049 12.9268C9.14334 12.9268 8.76239 12.7786 8.45763 12.4821C8.15287 12.1855 8.00049 11.8149 8.00049 11.3701C8.00049 11.1477 8.03858 10.9624 8.15287 10.777C8.26715 10.5917 8.34335 10.4064 8.49573 10.2581L10.2862 8.47897V5.14307H13.7148V8.44191L15.5433 10.2211C15.6957 10.3693 15.81 10.5546 15.8862 10.74C15.9624 10.9253 16.0005 11.1477 16.0005 11.3701C16.0005 11.8149 15.8481 12.1855 15.5433 12.4821C15.2386 12.7786 14.8576 12.9268 14.4005 12.9639C14.0957 12.9639 13.8672 12.9268 13.7148 12.8157C13.5624 12.7045 13.3719 12.5933 13.2195 12.445C12.991 12.2597 12.7624 12.1485 12.5719 12.0743C12.3814 12.0002 12.191 11.9631 12.0386 11.9631C11.8481 11.9631 11.6576 12.0002 11.4672 12.0743C11.2767 12.1485 11.0862 12.2597 10.8576 12.445C10.7053 12.5933 10.5148 12.7045 10.3624 12.8157C10.21 12.9268 9.86715 12.9268 9.60049 12.9268Z" fill="url(#paint0_linear_1595_15040)"/>
<defs>
<linearGradient id="paint0_linear_1595_15040" x1="12.0005" y1="5.14307" x2="12.0005" y2="18.8574" gradientUnits="userSpaceOnUse">
<stop stop-color="#3580E3"/>
<stop offset="0.49" stop-color="#8579F3"/>
<stop offset="1" stop-color="#B578EF"/>
</linearGradient>
</defs>
</svg>
