<svg width="24" height="24" viewBox="0 0 24 24" fill="none" xmlns="http://www.w3.org/2000/svg">
<circle cx="12" cy="12" r="12" fill="#F9FAFB"/>
<path d="M7.7499 17.6001C7.3499 17.6001 7.0499 17.4501 6.7999 17.2001C6.5499 16.9501 6.3999 16.6001 6.3999 16.2501V7.7501C6.3999 7.3501 6.5499 7.0501 6.7999 6.7501C7.0499 6.5001 7.3999 6.3501 7.7499 6.3501H16.2499C16.6499 6.3501 16.9499 6.5001 17.2499 6.7501C17.4999 7.0001 17.6499 7.3501 17.6499 7.7501V16.2501C17.6499 16.6501 17.4999 16.9501 17.2499 17.2001C16.9999 17.4501 16.6499 17.6001 16.2499 17.6001H7.7499Z" fill="url(#paint0_linear_1595_14930)"/>
<defs>
<linearGradient id="paint0_linear_1595_14930" x1="12.0249" y1="6.3501" x2="12.0249" y2="17.6001" gradientUnits="userSpaceOnUse">
<stop stop-color="#3580E3"/>
<stop offset="0.49" stop-color="#8579F3"/>
<stop offset="1" stop-color="#B578EF"/>
</linearGradient>
</defs>
</svg>
