<svg width="24" height="24" viewBox="0 0 24 24" fill="none" xmlns="http://www.w3.org/2000/svg">
<circle cx="12" cy="12" r="12" fill="#F9FAFB"/>
<path d="M11.7419 10.2202C11.3419 10.2202 10.951 10.3388 10.6184 10.561C10.2859 10.7832 10.0267 11.099 9.87361 11.4685C9.72056 11.838 9.68051 12.2446 9.75854 12.6369C9.83656 13.0292 10.0292 13.3895 10.312 13.6723C10.5948 13.9551 10.9551 14.1477 11.3474 14.2258C11.7397 14.3038 12.1463 14.2637 12.5158 14.1107C12.8853 13.9576 13.2011 13.6984 13.4233 13.3659C13.6455 13.0333 13.7641 12.6424 13.7641 12.2424C13.7641 11.7061 13.5511 11.1917 13.1718 10.8125C12.7926 10.4332 12.2782 10.2202 11.7419 10.2202ZM8.20301 13.7591H7.19189V15.7813C7.19189 16.0495 7.29842 16.3066 7.48804 16.4963C7.67766 16.6859 7.93484 16.7924 8.20301 16.7924H10.2252V15.7813H8.20301V13.7591ZM8.20301 8.7035H10.2252V7.69238H8.20301C7.93484 7.69238 7.67766 7.79891 7.48804 7.98853C7.29842 8.17815 7.19189 8.43533 7.19189 8.7035V10.7257H8.20301V8.7035ZM15.2808 7.69238H13.2586V8.7035H15.2808V10.7257H16.2919V8.7035C16.2919 8.57072 16.2658 8.43923 16.215 8.31656C16.1641 8.19389 16.0897 8.08242 15.9958 7.98853C15.9019 7.89464 15.7904 7.82016 15.6677 7.76935C15.5451 7.71854 15.4136 7.69238 15.2808 7.69238ZM15.2808 15.7813H13.2586V16.7924H15.2808C15.549 16.7924 15.8062 16.6859 15.9958 16.4963C16.1854 16.3066 16.2919 16.0495 16.2919 15.7813V13.7591H15.2808V15.7813Z" fill="url(#paint0_linear_1595_14914)"/>
<defs>
<linearGradient id="paint0_linear_1595_14914" x1="11.7419" y1="7.69238" x2="11.7419" y2="16.7924" gradientUnits="userSpaceOnUse">
<stop stop-color="#3580E3"/>
<stop offset="0.49" stop-color="#8579F3"/>
<stop offset="1" stop-color="#B578EF"/>
</linearGradient>
</defs>
</svg>
