<svg width="24" height="24" viewBox="0 0 24 24" fill="none" xmlns="http://www.w3.org/2000/svg">
<circle cx="12" cy="12" r="12" fill="#F9FAFB"/>
<path d="M9.08366 13.1666C8.61953 13.1666 8.17441 13.351 7.84622 13.6792C7.51803 14.0074 7.33366 14.4525 7.33366 14.9166C7.32929 15.2247 7.20497 15.5189 6.98711 15.7368C6.76926 15.9546 6.47505 16.0789 6.16699 16.0833C6.4439 16.4399 6.79728 16.7298 7.2011 16.9318C7.60492 17.1337 8.0489 17.2424 8.50033 17.25C9.11916 17.25 9.71266 17.0041 10.1502 16.5666C10.5878 16.129 10.8337 15.5355 10.8337 14.9166C10.8337 14.4525 10.6493 14.0074 10.3211 13.6792C9.99291 13.351 9.54779 13.1666 9.08366 13.1666ZM17.0812 7.70081L16.2995 6.91914C16.1902 6.81049 16.0424 6.74951 15.8882 6.74951C15.7341 6.74951 15.5863 6.81049 15.477 6.91914L10.2503 12.1458L11.8545 13.75L17.0812 8.52331C17.1898 8.41401 17.2508 8.26617 17.2508 8.11206C17.2508 7.95795 17.1898 7.8101 17.0812 7.70081Z" fill="url(#paint0_linear_1595_14993)"/>
<defs>
<linearGradient id="paint0_linear_1595_14993" x1="11.7089" y1="6.74951" x2="11.7089" y2="17.25" gradientUnits="userSpaceOnUse">
<stop stop-color="#3580E3"/>
<stop offset="0.49" stop-color="#8579F3"/>
<stop offset="1" stop-color="#B578EF"/>
</linearGradient>
</defs>
</svg>
