<svg width="24" height="24" viewBox="0 0 24 24" fill="none" xmlns="http://www.w3.org/2000/svg">
<circle cx="12" cy="12" r="12" fill="#F9FAFB"/>
<path d="M9.59475 8.64752L10.9154 9.3866L10.1758 8.06652L10.9154 6.74585L9.59475 7.48552L8.27408 6.74585L9.01375 8.06652L8.27408 9.3866L9.59475 8.64752ZM15.9327 13.8234L14.612 13.0838L15.3517 14.4044L14.612 15.7251L15.9327 14.9854L17.2533 15.7251L16.5137 14.4044L17.2533 13.0838L15.9327 13.8234ZM17.2533 6.74585L15.9327 7.48552L14.6126 6.74585L15.3523 8.06652L14.6126 9.3866L15.9327 8.64752L17.2533 9.38718L16.5137 8.06652L17.2533 6.74585ZM13.2231 9.54002C13.1743 9.4909 13.1163 9.45191 13.0523 9.42531C12.9884 9.39871 12.9199 9.38502 12.8506 9.38502C12.7814 9.38502 12.7128 9.39871 12.6489 9.42531C12.585 9.45191 12.527 9.4909 12.4782 9.54002L6.31467 15.7035C6.26555 15.7523 6.22657 15.8103 6.19996 15.8743C6.17336 15.9382 6.15967 16.0067 6.15967 16.076C6.15967 16.1452 6.17336 16.2138 6.19996 16.2777C6.22657 16.3416 6.26555 16.3996 6.31467 16.4484L7.55075 17.6845C7.59955 17.7336 7.65758 17.7726 7.7215 17.7992C7.78542 17.8258 7.85397 17.8395 7.92321 17.8395C7.99245 17.8395 8.061 17.8258 8.12492 17.7992C8.18884 17.7726 8.24687 17.7336 8.29567 17.6845L14.4539 11.5257C14.503 11.4769 14.542 11.4189 14.5686 11.3549C14.5952 11.291 14.6089 11.2225 14.6089 11.1532C14.6089 11.084 14.5952 11.0154 14.5686 10.9515C14.542 10.8876 14.503 10.8296 14.4539 10.7808L13.2231 9.54002ZM12.6788 12.4398L11.5594 11.3198L12.848 10.0312L13.9674 11.1506L12.6794 12.4392L12.6788 12.4398Z" fill="url(#paint0_linear_1595_14896)"/>
<defs>
<linearGradient id="paint0_linear_1595_14896" x1="11.7065" y1="6.74585" x2="11.7065" y2="17.8395" gradientUnits="userSpaceOnUse">
<stop stop-color="#3580E3"/>
<stop offset="0.49" stop-color="#8579F3"/>
<stop offset="1" stop-color="#B578EF"/>
</linearGradient>
</defs>
</svg>
