<svg width="24" height="24" viewBox="0 0 24 24" fill="none" xmlns="http://www.w3.org/2000/svg">
<circle cx="12" cy="12" r="12" fill="#F9FAFB"/>
<path d="M9.24416 9.25269C9.56441 9.25269 9.86891 9.29994 10.1577 9.39444C10.4517 9.48369 10.7089 9.62806 10.9294 9.82756C11.1499 10.0218 11.3232 10.2738 11.4492 10.5836C11.5804 10.8933 11.646 11.2687 11.646 11.7097V12.6468C11.646 13.0931 11.5804 13.4737 11.4492 13.7887C11.3232 14.0984 11.1499 14.3504 10.9294 14.5447C10.7142 14.7389 10.4595 14.8807 10.1655 14.9699C9.87679 15.0592 9.56966 15.1038 9.24416 15.1038C8.91866 15.1038 8.60891 15.0592 8.31491 14.9699C8.02616 14.8807 7.77154 14.7389 7.55104 14.5447C7.33579 14.3504 7.16254 14.0984 7.03129 13.7887C6.90529 13.4737 6.84229 13.0931 6.84229 12.6468V11.7097C6.84229 11.2687 6.90529 10.8933 7.03129 10.5836C7.16254 10.2738 7.33841 10.0218 7.55891 9.82756C7.77941 9.62806 8.03404 9.48369 8.32279 9.39444C8.61679 9.29994 8.92391 9.25269 9.24416 9.25269ZM9.24416 14.1824C9.43841 14.1824 9.61954 14.1588 9.78754 14.1116C9.95554 14.0591 10.1025 13.9698 10.2285 13.8438C10.3545 13.7178 10.4517 13.5472 10.5199 13.3319C10.5934 13.1167 10.6302 12.8463 10.6302 12.5208V11.8357C10.6302 11.5102 10.5934 11.2398 10.5199 11.0246C10.4517 10.8093 10.3545 10.6387 10.2285 10.5127C10.1025 10.3867 9.95554 10.3001 9.78754 10.2528C9.61954 10.2003 9.43841 10.1741 9.24416 10.1741C9.05516 10.1741 8.87666 10.2003 8.70866 10.2528C8.54066 10.3001 8.39366 10.3867 8.26766 10.5127C8.14166 10.6387 8.04191 10.8093 7.96841 11.0246C7.89491 11.2398 7.85816 11.5102 7.85816 11.8357V12.5208C7.85816 12.8463 7.89491 13.1167 7.96841 13.3319C8.04191 13.5472 8.14166 13.7178 8.26766 13.8438C8.39366 13.9698 8.54066 14.0591 8.70866 14.1116C8.87666 14.1588 9.05516 14.1824 9.24416 14.1824Z" fill="url(#paint0_linear_1595_14856)"/>
<path d="M14.6915 9.33931C15.5368 9.33931 16.1589 9.54931 16.5579 9.96931C16.9569 10.3841 17.1564 10.9852 17.1564 11.7727V12.5838C17.1564 12.9776 17.1118 13.3267 17.0225 13.6312C16.9333 13.9304 16.7889 14.1824 16.5894 14.3872C16.3951 14.5919 16.1431 14.7468 15.8334 14.8518C15.5236 14.9621 15.1483 15.0172 14.7073 15.0172H12.7149V9.33931H14.6915ZM13.715 14.1667H14.5576C14.8096 14.1667 15.0328 14.1378 15.227 14.0801C15.4265 14.0223 15.5919 13.9304 15.7231 13.8044C15.8596 13.6784 15.962 13.5131 16.0303 13.3083C16.1038 13.0983 16.1405 12.8437 16.1405 12.5444V11.8121C16.1405 11.2136 16.0066 10.7936 15.7389 10.5521C15.4764 10.3106 15.0826 10.1898 14.5576 10.1898H13.715V14.1667Z" fill="url(#paint1_linear_1595_14856)"/>
<defs>
<linearGradient id="paint0_linear_1595_14856" x1="11.9993" y1="9.25269" x2="11.9993" y2="15.1038" gradientUnits="userSpaceOnUse">
<stop stop-color="#3580E3"/>
<stop offset="0.49" stop-color="#8579F3"/>
<stop offset="1" stop-color="#B578EF"/>
</linearGradient>
<linearGradient id="paint1_linear_1595_14856" x1="11.9993" y1="9.25269" x2="11.9993" y2="15.1038" gradientUnits="userSpaceOnUse">
<stop stop-color="#3580E3"/>
<stop offset="0.49" stop-color="#8579F3"/>
<stop offset="1" stop-color="#B578EF"/>
</linearGradient>
</defs>
</svg>
