<svg width="24" height="24" viewBox="0 0 24 24" fill="none" xmlns="http://www.w3.org/2000/svg">
<path d="M12 6.375C8.25 6.375 5.0475 8.7075 3.75 12C5.0475 15.2925 8.25 17.625 12 17.625C15.75 17.625 18.9525 15.2925 20.25 12C18.9525 8.7075 15.75 6.375 12 6.375ZM12 15.75C9.93 15.75 8.25 14.07 8.25 12C8.25 9.93 9.93 8.25 12 8.25C14.07 8.25 15.75 9.93 15.75 12C15.75 14.07 14.07 15.75 12 15.75ZM12 9.75C10.755 9.75 9.75 10.755 9.75 12C9.75 13.245 10.755 14.25 12 14.25C13.245 14.25 14.25 13.245 14.25 12C14.25 10.755 13.245 9.75 12 9.75Z" fill="#5F6164"/>
</svg>
