<svg width="24" height="24" viewBox="0 0 24 24" fill="none" xmlns="http://www.w3.org/2000/svg">
<circle cx="12" cy="12" r="12" fill="#F9FAFB"/>
<path d="M9.31201 9.33931H10.32V15.0172H9.31201V9.33931Z" fill="url(#paint0_linear_1595_14844)"/>
<path d="M13.4309 14.1982C13.7932 14.1982 14.0557 14.1352 14.2184 14.0092C14.3812 13.8779 14.4626 13.7152 14.4626 13.5209V13.4343C14.4626 13.2033 14.3759 13.0327 14.2027 12.9224C14.0347 12.8069 13.7879 12.7124 13.4624 12.6389C13.2262 12.5864 12.9873 12.5313 12.7458 12.4736C12.5096 12.4158 12.2943 12.3292 12.1001 12.2137C11.9111 12.0982 11.7562 11.9433 11.6354 11.7491C11.5147 11.5496 11.4543 11.2844 11.4543 10.9537V10.8513C11.4543 10.6781 11.4884 10.4996 11.5567 10.3158C11.6249 10.1268 11.7378 9.95356 11.8953 9.79606C12.0528 9.63856 12.2602 9.50994 12.5174 9.41019C12.7799 9.30519 13.1028 9.25269 13.4861 9.25269C13.8011 9.25269 14.1029 9.28681 14.3917 9.35506C14.6804 9.41806 14.9692 9.54144 15.2579 9.72519L14.7854 10.5048C14.5544 10.3578 14.3392 10.2633 14.1397 10.2213C13.9402 10.1741 13.7276 10.1504 13.5018 10.1504C13.3233 10.1504 13.1684 10.1714 13.0372 10.2134C12.9059 10.2554 12.7957 10.3106 12.7064 10.3788C12.6224 10.4471 12.5594 10.5206 12.5174 10.5993C12.4754 10.6781 12.4544 10.7568 12.4544 10.8356V10.9301C12.4544 11.0666 12.4859 11.1768 12.5489 11.2608C12.6172 11.3448 12.7064 11.4157 12.8167 11.4734C12.9269 11.5259 13.0556 11.5706 13.2026 11.6073C13.3548 11.6388 13.5149 11.6729 13.6829 11.7097C14.0189 11.7832 14.2998 11.8751 14.5256 11.9853C14.7566 12.0903 14.9403 12.2111 15.0768 12.3476C15.2186 12.4841 15.3183 12.6363 15.3761 12.8043C15.4391 12.9671 15.4706 13.1456 15.4706 13.3398V13.4422C15.4706 13.7572 15.4128 14.0223 15.2973 14.2376C15.1871 14.4476 15.0348 14.6182 14.8406 14.7494C14.6463 14.8754 14.4232 14.9647 14.1712 15.0172C13.9192 15.0749 13.6567 15.1038 13.3837 15.1038C13.1789 15.1038 12.9768 15.0854 12.7773 15.0487C12.5831 15.0172 12.3993 14.9726 12.2261 14.9148C12.0528 14.8571 11.8901 14.7888 11.7378 14.7101C11.5908 14.6261 11.4622 14.5394 11.3519 14.4502L11.8402 13.6469C12.0134 13.7939 12.2366 13.9226 12.5096 14.0328C12.7826 14.1431 13.0897 14.1982 13.4309 14.1982Z" fill="url(#paint1_linear_1595_14844)"/>
<defs>
<linearGradient id="paint0_linear_1595_14844" x1="12.3913" y1="9.25269" x2="12.3913" y2="15.1038" gradientUnits="userSpaceOnUse">
<stop stop-color="#3580E3"/>
<stop offset="0.49" stop-color="#8579F3"/>
<stop offset="1" stop-color="#B578EF"/>
</linearGradient>
<linearGradient id="paint1_linear_1595_14844" x1="12.3913" y1="9.25269" x2="12.3913" y2="15.1038" gradientUnits="userSpaceOnUse">
<stop stop-color="#3580E3"/>
<stop offset="0.49" stop-color="#8579F3"/>
<stop offset="1" stop-color="#B578EF"/>
</linearGradient>
</defs>
</svg>
