<svg width="24" height="24" viewBox="0 0 24 24" fill="none" xmlns="http://www.w3.org/2000/svg">
<circle cx="12" cy="12" r="12" fill="#F9FAFB"/>
<path d="M14.0252 7.95404L11.4543 5.25V7.07449C10.3624 7.21837 9.35809 7.77666 8.62995 8.64445C7.90181 9.51225 7.5 10.6298 7.5 11.7872C7.5 12.9447 7.90181 14.0622 8.62995 14.93C9.35809 15.7978 10.3624 16.3561 11.4543 16.5V15.2995C10.6647 15.1598 9.94767 14.7304 9.43056 14.0874C8.91345 13.4444 8.62971 12.6294 8.62971 11.7872C8.62971 10.9451 8.91345 10.1301 9.43056 9.48711C9.94767 8.84411 10.6647 8.41464 11.4543 8.27496V10.5987L14.0252 7.95404ZM16.5 11.1929C16.3993 10.3494 16.083 9.55045 15.5847 8.88114L14.7823 9.72504C15.0803 10.1606 15.2777 10.6632 15.3586 11.1929H16.5ZM12.5844 15.2936V16.4941C13.3876 16.3904 14.1491 16.0598 14.788 15.5372L13.9743 14.6815C13.5626 14.9966 13.0867 15.2062 12.5844 15.2936ZM14.7823 13.8554L15.5847 14.6933C16.083 14.024 16.3993 13.225 16.5 12.3815H15.3586C15.2766 12.9128 15.0794 13.4171 14.7823 13.8554Z" fill="url(#paint0_linear_1595_14598)"/>
<defs>
<linearGradient id="paint0_linear_1595_14598" x1="12" y1="5.25" x2="12" y2="16.5" gradientUnits="userSpaceOnUse">
<stop stop-color="#3580E3"/>
<stop offset="0.49" stop-color="#8579F3"/>
<stop offset="1" stop-color="#B578EF"/>
</linearGradient>
</defs>
</svg>
