<svg width="24" height="24" viewBox="0 0 24 24" fill="none" xmlns="http://www.w3.org/2000/svg">
<circle cx="12" cy="12" r="12" fill="#F9FAFB"/>
<path d="M17.2923 11.669L12.3258 6.70131C12.1149 6.49206 11.8298 6.37476 11.5327 6.375H7.49991C7.20184 6.37589 6.91624 6.49472 6.70547 6.70555C6.4947 6.91637 6.3759 7.20205 6.375 7.50019V11.534C6.37457 11.6817 6.40371 11.828 6.4607 11.9642C6.5177 12.1005 6.60139 12.2239 6.70685 12.3273L11.6733 17.295C11.7778 17.3996 11.9019 17.4826 12.0384 17.5392C12.175 17.5959 12.3214 17.625 12.4692 17.625C12.617 17.625 12.7634 17.5959 12.9 17.5392C13.0365 17.4826 13.1606 17.3996 13.2651 17.295L17.2979 13.2612C17.4021 13.1563 17.4846 13.0319 17.5408 12.8951C17.5969 12.7583 17.6255 12.6118 17.625 12.4639C17.6245 12.3161 17.5948 12.1698 17.5377 12.0334C17.4806 11.897 17.3972 11.7732 17.2923 11.669ZM8.90605 9.75058C8.73919 9.75058 8.57607 9.70109 8.43733 9.60836C8.29858 9.51563 8.19045 9.38383 8.12659 9.22963C8.06273 9.07543 8.04603 8.90575 8.07858 8.74205C8.11113 8.57835 8.19149 8.42798 8.30948 8.30996C8.42747 8.19194 8.5778 8.11157 8.74146 8.079C8.90512 8.04644 9.07475 8.06315 9.22892 8.12703C9.38308 8.1909 9.51484 8.29906 9.60755 8.43784C9.70025 8.57662 9.74973 8.73978 9.74973 8.90668C9.74973 9.1305 9.66085 9.34515 9.50263 9.50341C9.3444 9.66167 9.12981 9.75058 8.90605 9.75058Z" fill="url(#paint0_linear_1595_14576)"/>
<defs>
<linearGradient id="paint0_linear_1595_14576" x1="12" y1="6.375" x2="12" y2="17.625" gradientUnits="userSpaceOnUse">
<stop stop-color="#3580E3"/>
<stop offset="0.49" stop-color="#8579F3"/>
<stop offset="1" stop-color="#B578EF"/>
</linearGradient>
</defs>
</svg>
