<svg width="24" height="24" viewBox="0 0 24 24" fill="none" xmlns="http://www.w3.org/2000/svg">
<circle cx="12" cy="12" r="12" fill="#F9FAFB"/>
<path d="M7.625 17.2498C7.38194 17.2498 7.17535 17.1647 7.00521 16.9945C6.83507 16.8244 6.75 16.6178 6.75 16.3748V7.62476C6.75 7.3817 6.83507 7.1751 7.00521 7.00496C7.17535 6.83483 7.38194 6.74976 7.625 6.74976H10.6875C10.9306 6.74976 11.1372 6.83483 11.3073 7.00496C11.4774 7.1751 11.5625 7.3817 11.5625 7.62476V16.3748C11.5625 16.6178 11.4774 16.8244 11.3073 16.9945C11.1372 17.1647 10.9306 17.2498 10.6875 17.2498H7.625ZM13.3125 11.1102C13.0694 11.1102 12.8628 11.0251 12.6927 10.855C12.5226 10.6848 12.4375 10.4782 12.4375 10.2352V7.62476C12.4375 7.3817 12.5226 7.1751 12.6927 7.00496C12.8628 6.83483 13.0694 6.74976 13.3125 6.74976H16.375C16.6181 6.74976 16.8247 6.83483 16.9948 7.00496C17.1649 7.1751 17.25 7.3817 17.25 7.62476V10.2352C17.25 10.4782 17.1649 10.6848 16.9948 10.855C16.8247 11.0251 16.6181 11.1102 16.375 11.1102H13.3125ZM13.3125 17.2498C13.0694 17.2498 12.8628 17.1647 12.6927 16.9945C12.5226 16.8244 12.4375 16.6178 12.4375 16.3748V12.8602C12.4375 12.6171 12.5226 12.4105 12.6927 12.2404C12.8628 12.0702 13.0694 11.9852 13.3125 11.9852H16.375C16.6181 11.9852 16.8247 12.0702 16.9948 12.2404C17.1649 12.4105 17.25 12.6171 17.25 12.8602V16.3748C17.25 16.6178 17.1649 16.8244 16.9948 16.9945C16.8247 17.1647 16.6181 17.2498 16.375 17.2498H13.3125Z" fill="url(#paint0_linear_1595_15026)"/>
<defs>
<linearGradient id="paint0_linear_1595_15026" x1="12" y1="6.74976" x2="12" y2="17.2498" gradientUnits="userSpaceOnUse">
<stop stop-color="#3580E3"/>
<stop offset="0.49" stop-color="#8579F3"/>
<stop offset="1" stop-color="#B578EF"/>
</linearGradient>
</defs>
</svg>
