<svg width="24" height="24" viewBox="0 0 24 24" fill="none" xmlns="http://www.w3.org/2000/svg">
<circle cx="12" cy="12" r="12" fill="#F9FAFB"/>
<path d="M13.211 18.3198C12.4877 18.8815 11.4754 18.8802 10.7535 18.3167L5.56857 14.2689C5.18189 13.967 5.18899 13.3798 5.58288 13.0874C5.85129 12.8881 6.21977 12.8928 6.48307 13.0987L10.7526 16.4389C11.4747 17.0039 12.4886 17.0054 13.2125 16.4427L17.5171 13.0961C17.7802 12.8915 18.1475 12.8875 18.4151 13.0861C18.8094 13.3789 18.8158 13.967 18.4279 14.2682L13.211 18.3198ZM13.2114 15.017C12.4881 15.5802 11.4745 15.5796 10.7519 15.0154L6.82257 11.9479C5.79582 11.1463 5.79708 9.5928 6.82513 8.79291L10.7545 5.7356C11.4761 5.17416 12.4865 5.17352 13.2088 5.73405L17.1484 8.79136C18.1792 9.59124 18.1804 11.1479 17.151 11.9494L13.2114 15.017Z" fill="url(#paint0_linear_1595_14588)"/>
<defs>
<linearGradient id="paint0_linear_1595_14588" x1="11.9998" y1="4.78125" x2="11.9998" y2="19.275" gradientUnits="userSpaceOnUse">
<stop stop-color="#3580E3"/>
<stop offset="0.49" stop-color="#8579F3"/>
<stop offset="1" stop-color="#B578EF"/>
</linearGradient>
</defs>
</svg>
