<svg width="24" height="24" viewBox="0 0 24 24" fill="none" xmlns="http://www.w3.org/2000/svg">
<circle cx="12" cy="12" r="12" fill="#F9FAFB"/>
<path d="M12.0003 6.16675C10.8466 6.16675 9.71879 6.50887 8.7595 7.14984C7.80022 7.79082 7.05254 8.70186 6.61103 9.76776C6.16952 10.8337 6.054 12.0066 6.27908 13.1381C6.50416 14.2697 7.05973 15.3091 7.87554 16.1249C8.69135 16.9407 9.73075 17.4962 10.8623 17.7213C11.9939 17.9464 13.1667 17.8309 14.2326 17.3894C15.2986 16.9479 16.2096 16.2002 16.8506 15.2409C17.4915 14.2816 17.8337 13.1538 17.8337 12.0001C17.8337 11.234 17.6828 10.4755 17.3896 9.76776C17.0965 9.06003 16.6668 8.41697 16.1251 7.87529C15.5834 7.33362 14.9404 6.90394 14.2326 6.61078C13.5249 6.31763 12.7664 6.16675 12.0003 6.16675ZM12.0003 16.6667C11.0773 16.6667 10.1751 16.3931 9.40767 15.8803C8.64024 15.3675 8.0421 14.6387 7.68889 13.7859C7.33568 12.9332 7.24327 11.9949 7.42333 11.0897C7.60339 10.1844 8.04785 9.35289 8.7005 8.70025C9.35314 8.0476 10.1847 7.60315 11.0899 7.42308C11.9952 7.24302 12.9335 7.33543 13.7862 7.68864C14.6389 8.04185 15.3677 8.63999 15.8805 9.40742C16.3933 10.1748 16.667 11.0771 16.667 12.0001C16.667 13.2378 16.1753 14.4247 15.3002 15.2999C14.425 16.1751 13.238 16.6667 12.0003 16.6667Z" fill="url(#paint0_linear_1595_14972)"/>
<path d="M11.9997 14.9163C13.6105 14.9163 14.9163 13.6105 14.9163 11.9997C14.9163 10.3888 13.6105 9.08301 11.9997 9.08301C10.3888 9.08301 9.08301 10.3888 9.08301 11.9997C9.08301 13.6105 10.3888 14.9163 11.9997 14.9163Z" fill="url(#paint1_linear_1595_14972)"/>
<defs>
<linearGradient id="paint0_linear_1595_14972" x1="12.0003" y1="6.16675" x2="12.0003" y2="17.8334" gradientUnits="userSpaceOnUse">
<stop stop-color="#3580E3"/>
<stop offset="0.49" stop-color="#8579F3"/>
<stop offset="1" stop-color="#B578EF"/>
</linearGradient>
<linearGradient id="paint1_linear_1595_14972" x1="11.9997" y1="9.08301" x2="11.9997" y2="14.9163" gradientUnits="userSpaceOnUse">
<stop stop-color="#3580E3"/>
<stop offset="0.49" stop-color="#8579F3"/>
<stop offset="1" stop-color="#B578EF"/>
</linearGradient>
</defs>
</svg>
