<svg width="24" height="24" viewBox="0 0 24 24" fill="none" xmlns="http://www.w3.org/2000/svg">
<path d="M7.21855 19.7437C6.80605 19.7437 6.45605 19.5968 6.16855 19.3031C5.88105 19.0093 5.7373 18.6625 5.7373 18.2625V10.3125C5.7373 9.88745 5.88105 9.5312 6.16855 9.2437C6.45605 8.9562 6.80605 8.81245 7.21855 8.81245H14.1936V7.2562C14.1936 6.6187 13.9811 6.08745 13.5561 5.66245C13.1311 5.23745 12.6123 5.02495 11.9998 5.02495C11.4748 5.02495 11.0248 5.17808 10.6498 5.48433C10.2748 5.79058 10.0186 6.17495 9.88105 6.63745C9.79355 6.82495 9.68105 6.97495 9.54355 7.08745C9.40605 7.19995 9.2623 7.2562 9.1123 7.2562C8.8748 7.2562 8.68418 7.17183 8.54043 7.00308C8.39668 6.83433 8.3623 6.63745 8.4373 6.41245C8.6123 5.57495 9.02793 4.88745 9.68418 4.34995C10.3404 3.81245 11.1123 3.5437 11.9998 3.5437C13.0248 3.5437 13.8936 3.89995 14.6061 4.61245C15.3186 5.32495 15.6748 6.2062 15.6748 7.2562V8.81245H16.7811C17.1936 8.81245 17.5467 8.9562 17.8404 9.2437C18.1342 9.5312 18.2811 9.88745 18.2811 10.3125V18.2625C18.2811 18.6625 18.1342 19.0093 17.8404 19.3031C17.5467 19.5968 17.1936 19.7437 16.7811 19.7437H7.21855ZM11.9998 15.7312C12.3998 15.7312 12.7404 15.5937 13.0217 15.3187C13.3029 15.0437 13.4436 14.7125 13.4436 14.325C13.4436 13.95 13.3029 13.6093 13.0217 13.3031C12.7404 12.9968 12.3998 12.8437 11.9998 12.8437C11.5998 12.8437 11.2592 12.9968 10.9779 13.3031C10.6967 13.6093 10.5561 13.95 10.5561 14.325C10.5561 14.7125 10.6967 15.0437 10.9779 15.3187C11.2592 15.5937 11.5998 15.7312 11.9998 15.7312Z" fill="#5F6164"/>
</svg>
