<svg width="24" height="24" viewBox="0 0 24 24" fill="none" xmlns="http://www.w3.org/2000/svg">
<rect width="24" height="24" rx="4" fill="url(#paint0_linear_1595_10200)"/>
<path d="M16.8668 15.2332L14.5335 12.8999C14.6335 12.7443 14.7085 12.5527 14.7585 12.3249C14.8085 12.0971 14.8335 11.8777 14.8335 11.6666C14.8335 10.8777 14.5585 10.2082 14.0085 9.65822C13.4585 9.10822 12.7891 8.83322 12.0002 8.83322C11.7891 8.83322 11.5752 8.85822 11.3585 8.90822C11.1418 8.95822 10.9446 9.03322 10.7668 9.13322L8.76683 7.11655C9.15572 6.93878 9.66127 6.78322 10.2835 6.64989C10.9057 6.51655 11.5057 6.44989 12.0835 6.44989C13.5946 6.44989 15.0002 6.86377 16.3002 7.69155C17.6002 8.51933 18.6057 9.661 19.3168 11.1166C19.3502 11.1832 19.3752 11.2666 19.3918 11.3666C19.4085 11.4666 19.4168 11.5666 19.4168 11.6666C19.4168 11.7666 19.4085 11.8693 19.3918 11.9749C19.3752 12.0804 19.3502 12.1666 19.3168 12.2332C19.0168 12.8332 18.6585 13.386 18.2418 13.8916C17.8252 14.3971 17.3668 14.8443 16.8668 15.2332ZM17.1168 18.6166L14.8502 16.3832C14.4613 16.5388 14.0196 16.661 13.5252 16.7499C13.0307 16.8388 12.5224 16.8832 12.0002 16.8832C10.4446 16.8832 9.01405 16.4666 7.7085 15.6332C6.40294 14.7999 5.39461 13.661 4.6835 12.2166C4.65016 12.1388 4.62516 12.0527 4.6085 11.9582C4.59183 11.8638 4.5835 11.7666 4.5835 11.6666C4.5835 11.5666 4.59461 11.4638 4.61683 11.3582C4.63905 11.2527 4.66127 11.1666 4.6835 11.0999C4.91683 10.611 5.21127 10.136 5.56683 9.67489C5.92238 9.21378 6.3335 8.76655 6.80016 8.33322L5.1335 6.66655C5.02238 6.55544 4.96683 6.42489 4.96683 6.27489C4.96683 6.12489 5.02238 5.99989 5.1335 5.89989C5.24461 5.77766 5.37516 5.71655 5.52516 5.71655C5.67516 5.71655 5.80572 5.77766 5.91683 5.89989L17.8835 17.8499C17.9835 17.9499 18.0307 18.0721 18.0252 18.2166C18.0196 18.361 17.9724 18.4888 17.8835 18.5999C17.7835 18.7221 17.6557 18.7832 17.5002 18.7832C17.3446 18.7832 17.2168 18.7277 17.1168 18.6166ZM12.0002 14.4999C12.1335 14.4999 12.2779 14.486 12.4335 14.4582C12.5891 14.4304 12.7224 14.3943 12.8335 14.3499L9.30016 10.8332C9.25572 10.9554 9.22238 11.0888 9.20016 11.2332C9.17794 11.3777 9.16683 11.5221 9.16683 11.6666C9.16683 12.4666 9.44461 13.1388 10.0002 13.6832C10.5557 14.2277 11.2224 14.4999 12.0002 14.4999ZM13.5335 11.8999L11.8168 10.1832C12.2946 9.961 12.7641 10.0388 13.2252 10.4166C13.6863 10.7943 13.7891 11.2888 13.5335 11.8999Z" fill="white"/>
<defs>
<linearGradient id="paint0_linear_1595_10200" x1="12" y1="0" x2="12" y2="24" gradientUnits="userSpaceOnUse">
<stop stop-color="#3580E3"/>
<stop offset="0.49" stop-color="#8579F3"/>
<stop offset="1" stop-color="#B578EF"/>
</linearGradient>
</defs>
</svg>
