<svg width="24" height="24" viewBox="0 0 24 24" fill="none" xmlns="http://www.w3.org/2000/svg">
<rect width="24" height="24" rx="4" fill="url(#paint0_linear_1595_10198)"/>
<path d="M16.5 9.375H15.75V7.875C15.75 5.805 14.07 4.125 12 4.125C9.93 4.125 8.25 5.805 8.25 7.875V9.375H7.5C6.675 9.375 6 10.05 6 10.875V18.375C6 19.2 6.675 19.875 7.5 19.875H16.5C17.325 19.875 18 19.2 18 18.375V10.875C18 10.05 17.325 9.375 16.5 9.375ZM12 16.125C11.175 16.125 10.5 15.45 10.5 14.625C10.5 13.8 11.175 13.125 12 13.125C12.825 13.125 13.5 13.8 13.5 14.625C13.5 15.45 12.825 16.125 12 16.125ZM14.325 9.375H9.675V7.875C9.675 6.5925 10.7175 5.55 12 5.55C13.2825 5.55 14.325 6.5925 14.325 7.875V9.375Z" fill="white"/>
<defs>
<linearGradient id="paint0_linear_1595_10198" x1="-8.71768e-09" y1="2.28571" x2="22.2857" y2="24" gradientUnits="userSpaceOnUse">
<stop stop-color="#3580E3"/>
<stop offset="0.49" stop-color="#8579F3"/>
<stop offset="1" stop-color="#B578EF"/>
</linearGradient>
</defs>
</svg>
