<svg width="120" height="56" viewBox="0 0 120 56" fill="none" xmlns="http://www.w3.org/2000/svg">
<rect width="120" height="56" transform="matrix(-1 0 0 1 120 0)" fill="white"/>
<path d="M45.0851 25.1696H37.5511V27.2213H43.0412C42.3674 29.6563 40.1679 31.4426 37.5528 31.4426C34.4007 31.4426 31.8472 28.8515 31.8472 25.657C31.8472 22.4624 34.399 19.8713 37.5511 19.8713C39.0835 19.8713 40.4706 20.487 41.4951 21.4842L42.86 20.2234C41.4951 18.8515 39.6223 18 37.5511 18C33.3813 18 30 21.4287 30 25.657C30 29.8852 33.3813 33.3139 37.5511 33.3139C41.1924 33.3139 44.2316 30.7003 44.9431 27.2213C45.0458 26.7166 45.1022 26.1929 45.1022 25.657C45.1022 25.4939 45.0953 25.3309 45.0851 25.1696V25.1696Z" fill="#3E82F1"/>
<path d="M50.204 23.529C47.5086 23.529 45.3228 25.7454 45.3228 28.4787C45.3228 31.2119 47.5086 33.4284 50.204 33.4284C52.8995 33.4284 55.0853 31.2119 55.0853 28.4787C55.0853 25.7454 52.8995 23.529 50.204 23.529V23.529ZM50.204 31.453C48.5843 31.453 47.2708 30.1211 47.2708 28.4787C47.2708 26.8363 48.5843 25.5043 50.204 25.5043C51.8237 25.5043 53.1372 26.8363 53.1372 28.4787C53.1372 30.1211 51.8237 31.453 50.204 31.453Z" fill="#EA4335"/>
<path d="M61.0287 23.529C58.3333 23.529 56.1475 25.7454 56.1475 28.4787C56.1475 31.2119 58.3333 33.4284 61.0287 33.4284C63.7242 33.4284 65.91 31.2119 65.91 28.4787C65.91 25.7454 63.7242 23.529 61.0287 23.529V23.529ZM61.0287 31.453C59.4091 31.453 58.0955 30.1211 58.0955 28.4787C58.0955 26.8363 59.4091 25.5043 61.0287 25.5043C62.6484 25.5043 63.962 26.8363 63.962 28.4787C63.962 30.1211 62.6484 31.453 61.0287 31.453Z" fill="#FABB05"/>
<path d="M79.6388 18.2411H77.3059V33.1786H79.6388V18.2411Z" fill="#34A853"/>
<path d="M73.9639 23.6937V24.1412C73.2644 23.7527 72.4623 23.5272 71.6071 23.5272C68.9116 23.5272 66.7258 25.7437 66.7258 28.4769C66.7258 31.2102 68.9116 33.4266 71.6071 33.4266C72.6863 33.4266 73.68 33.0676 74.4873 32.4658C74.5232 32.6566 74.5437 32.8491 74.5437 33.0486C74.5437 33.7128 74.3265 34.325 73.9622 34.821C73.4269 35.5494 72.5751 36.0229 71.6105 36.0229C70.3808 36.0229 69.3289 35.2546 68.8928 34.1672L67.1654 35.0846C67.9316 36.8016 69.6317 37.9983 71.6105 37.9983C72.8009 37.9983 73.8921 37.5647 74.7387 36.8467C74.7455 36.8397 74.7541 36.8345 74.7609 36.8276C75.7615 35.9691 76.2968 34.6753 76.2968 33.3469V23.6937H73.9639V23.6937ZM71.6088 31.453C69.9891 31.453 68.6756 30.121 68.6756 28.4787C68.6756 26.8363 69.9891 25.5043 71.6088 25.5043C73.2285 25.5043 74.542 26.8363 74.542 28.4787C74.542 30.121 73.2285 31.453 71.6088 31.453Z" fill="#4285F4"/>
<path d="M85.3957 31.453C84.3815 31.453 83.4887 30.931 82.9619 30.1384L89.9999 26.8467C89.8306 26.3559 89.5877 25.8998 89.2833 25.4922C88.3922 24.3007 86.9846 23.529 85.3974 23.529C82.7019 23.529 80.5161 25.7454 80.5161 28.4787C80.5161 28.8429 80.5572 29.1984 80.6307 29.5401C80.7231 29.965 80.8684 30.3691 81.06 30.7437C81.8707 32.3358 83.5075 33.4266 85.3957 33.4266C87.1402 33.4266 88.6658 32.4953 89.5295 31.0992L87.9047 30.0118C87.3916 30.8737 86.4612 31.4513 85.3957 31.4513V31.453ZM82.4625 28.4787C82.4625 26.8363 83.776 25.5043 85.3957 25.5043C86.1944 25.5043 86.9162 25.8286 87.4446 26.3524L82.471 28.6781C82.4659 28.6122 82.4608 28.5463 82.4608 28.4787H82.4625Z" fill="#EA4335"/>
</svg>
