<svg width="28" height="28" viewBox="0 0 28 28" fill="none" xmlns="http://www.w3.org/2000/svg">
<path d="M14 8.16667C17.22 8.16667 19.8334 10.78 19.8334 14C19.8334 14.7583 19.6817 15.47 19.4134 16.135L22.82 19.5417C24.5817 18.0717 25.97 16.17 26.8217 14C24.8034 8.87833 19.8217 5.25 13.9884 5.25C12.355 5.25 10.7917 5.54167 9.34502 6.06667L11.865 8.58667C12.53 8.31833 13.2417 8.16667 14 8.16667ZM2.33335 4.98167L4.99335 7.64167L5.53002 8.17833C3.59335 9.68333 2.07669 11.69 1.16669 14C3.18502 19.1217 8.16669 22.75 14 22.75C15.8084 22.75 17.535 22.4 19.11 21.77L19.6 22.26L23.0184 25.6667L24.5 24.185L3.81502 3.5L2.33335 4.98167ZM8.78502 11.4333L10.5934 13.2417C10.535 13.4867 10.5 13.7433 10.5 14C10.5 15.9367 12.0634 17.5 14 17.5C14.2567 17.5 14.5134 17.465 14.7584 17.4067L16.5667 19.215C15.785 19.6 14.9217 19.8333 14 19.8333C10.78 19.8333 8.16669 17.22 8.16669 14C8.16669 13.0783 8.40002 12.215 8.78502 11.4333V11.4333ZM13.8134 10.5233L17.4884 14.1983L17.5117 14.0117C17.5117 12.075 15.9484 10.5117 14.0117 10.5117L13.8134 10.5233Z" fill="#243654"/>
</svg>
