<svg width="120" height="56" viewBox="0 0 120 56" fill="none" xmlns="http://www.w3.org/2000/svg">
<rect width="120" height="56" transform="matrix(-1 0 0 1 120 0)" fill="white"/>
<g clip-path="url(#clip0_5_696)">
<path d="M33.058 36.6885H31V19.4464L33.058 19V36.6885ZM38.5581 24.1755L40.1686 25.3357L36.2113 30.288L40.7956 35.7749L39.2085 37.0026L33.7943 30.397L38.5581 24.1755Z" fill="#FAE301"/>
<path d="M42.6143 33.4104C42.6143 32.1775 43.028 31.2353 43.8554 30.589C44.6827 29.9428 45.8873 29.6183 47.464 29.6183H49.8342V28.8371C49.8342 26.9475 48.999 26.0053 47.3287 26.0053C46.7928 26.0053 46.2308 26.0806 45.6428 26.2285C45.0522 26.3765 44.5136 26.5634 44.0219 26.7866L43.4183 25.3357C44.0297 24.9931 44.6879 24.7309 45.3982 24.544C46.1059 24.3598 46.7954 24.2663 47.464 24.2663C50.3572 24.2663 51.8011 25.8055 51.8011 28.8838V36.6911H50.2817L50.0345 35.3518C49.4231 35.8424 48.7701 36.2213 48.078 36.4887C47.386 36.756 46.7251 36.891 46.0981 36.891C45.0106 36.891 44.1572 36.5821 43.538 35.9644C42.9187 35.3466 42.6091 34.4953 42.6091 33.4104H42.6143ZM46.4701 35.2402C46.7511 35.2402 47.0451 35.2039 47.3495 35.1286C47.6539 35.0533 47.9583 34.9573 48.2627 34.8379C48.5672 34.7185 48.8533 34.5732 49.1213 34.4019C49.3893 34.2306 49.6261 34.0489 49.8342 33.8542V30.9991H47.6956C46.6132 30.9991 45.8223 31.186 45.3254 31.5572C44.8284 31.9283 44.5813 32.5175 44.5813 33.3195C44.5813 34.5991 45.2109 35.2376 46.4727 35.2376" fill="#FAE301"/>
<path d="M57.5223 36.6885H55.4644V19.4464L57.5223 19V36.6885ZM63.0225 24.1755L64.6329 25.3357L60.6757 30.288L65.2574 35.7749L63.6703 37.0026L58.2586 30.3996L63.0199 24.1781L63.0225 24.1755Z" fill="#FAE301"/>
<path d="M67.0786 33.4104C67.0786 32.1775 67.4923 31.2353 68.3197 30.589C69.147 29.9428 70.3516 29.6183 71.9309 29.6183H74.3011V28.8371C74.3011 26.9475 73.4659 26.0053 71.7982 26.0053C71.2622 26.0053 70.7003 26.0806 70.1097 26.2285C69.5191 26.3765 68.9805 26.5634 68.4888 26.7866L67.8852 25.3357C68.4966 24.9931 69.1548 24.7309 69.8625 24.544C70.5702 24.3598 71.2596 24.2663 71.9309 24.2663C74.8214 24.2663 76.268 25.8055 76.268 28.8838V36.6911H74.746L74.5014 35.3518C73.89 35.8424 73.2396 36.2213 72.5449 36.4887C71.8528 36.756 71.192 36.891 70.5676 36.891C69.4774 36.891 68.6267 36.5821 68.0074 35.9644C67.3882 35.3466 67.0812 34.4953 67.0812 33.4104H67.0786ZM70.9422 35.2402C71.2232 35.2402 71.5172 35.2039 71.8216 35.1286C72.126 35.0533 72.4304 34.9573 72.7348 34.8379C73.0392 34.7185 73.3254 34.5732 73.5934 34.4019C73.8588 34.2306 74.0981 34.0489 74.3063 33.8542V30.9991H72.1702C71.0853 30.9991 70.2944 31.186 69.8 31.5572C69.3031 31.9283 69.0559 32.5175 69.0559 33.3195C69.0559 34.5991 69.6856 35.2376 70.9474 35.2376" fill="#FAE301"/>
<path d="M84.5441 24.2871C86.243 24.2871 87.5777 24.8373 88.5456 25.9379C89.516 27.0384 90 28.6138 90 30.6669C90 32.72 89.5187 34.2435 88.5586 35.3285C87.5986 36.4134 86.2587 36.9559 84.5467 36.9559C82.8347 36.9559 81.5131 36.4134 80.5452 35.3285C79.5747 34.2435 79.0908 32.6888 79.0908 30.6669C79.0908 28.645 79.5773 27.0384 80.5556 25.9379C81.5313 24.8373 82.8634 24.2871 84.5467 24.2871H84.5441ZM84.5467 25.9379C83.4748 25.9379 82.65 26.3402 82.075 27.1422C81.5 27.9442 81.2139 29.12 81.2139 30.6669C81.2139 32.2138 81.5 33.3559 82.075 34.1345C82.65 34.9158 83.4722 35.3051 84.5467 35.3051C85.6212 35.3051 86.4642 34.9158 87.0392 34.1345C87.6116 33.3533 87.9004 32.1983 87.9004 30.6669C87.9004 29.1355 87.6142 27.9442 87.0392 27.1422C86.4642 26.3402 85.6316 25.9379 84.5467 25.9379Z" fill="#FAE301"/>
</g>
<defs>
<clipPath id="clip0_5_696">
<rect width="59" height="18" fill="white" transform="translate(31 19)"/>
</clipPath>
</defs>
</svg>
