<svg xmlns="http://www.w3.org/2000/svg" xmlns:xlink="http://www.w3.org/1999/xlink" width="108.91" height="24.704" viewBox="0 0 108.91 24.704"><defs><linearGradient id="a" x1="0.905" y1="0.144" x2="0.097" y2="0.853" gradientUnits="objectBoundingBox"><stop offset="0" stop-color="#3580e3"/><stop offset="0.159" stop-color="#8579f3"/><stop offset="0.334" stop-color="#b578ef"/><stop offset="0.5" stop-color="#d964b6"/><stop offset="0.666" stop-color="#de61a6"/><stop offset="0.837" stop-color="#f26a84"/><stop offset="1" stop-color="#ff4343"/></linearGradient></defs><g transform="translate(-29 -17)"><path d="M-129.11,1429.014h1.286v-2.181h-2.181v.253l-7.572-4.372v-1.495h-2.181v1.495l-7.572,4.372v-.253h-2.181v2.181h2.181v-.233l7.572,4.385v1.5h.9v9.081h-.9v.236l-7.572-4.371v-1.594h-2.181v2.181h2.181v-.136l7.572,4.371v1.495h2.181v-1.495l7.572-4.371v.235h2.181v-2.181h-2.181v.235l-7.572-4.372v-1.495h-.9V1423.4h.9v-.235l7.572,4.371v1.477Zm-9.753,3.468h-.9v.233l-7.572-4.385v-.792l7.572-4.372v.236h.9Zm1.286,2.181v-.235l7.572,4.372v.808l-7.572,4.371v-.236h-.9v-9.081Z" transform="translate(178.511 -1404.22)" fill="url(#a)"/><g transform="translate(65.777 24)"><path d="M-30.164,1472.471l-.007-.005a4.477,4.477,0,0,0-2.814-.943,4.717,4.717,0,0,0-1.512.243,4.349,4.349,0,0,0-1.309.7,3.564,3.564,0,0,0-.947,1.133,3.031,3.031,0,0,0-.347,1.419,3.126,3.126,0,0,0,.519,1.73A3.693,3.693,0,0,0-35.2,1478a4.441,4.441,0,0,0,1.294.42c.439.077.695.121.78.133a4.62,4.62,0,0,1,1.512.354,1.829,1.829,0,0,1,.6.548,1.039,1.039,0,0,1,.184.588,1.24,1.24,0,0,1-.554,1,2.445,2.445,0,0,1-1.606.521,2.922,2.922,0,0,1-.9-.138,2.132,2.132,0,0,1-.724-.4,1.238,1.238,0,0,1-.548-.98l-.03-.6-1.942-.006v.637a3.373,3.373,0,0,0,1.328,2.556,4.307,4.307,0,0,0,1.307.7,4.731,4.731,0,0,0,1.512.244,4.48,4.48,0,0,0,2.821-.949,3.44,3.44,0,0,0,.947-1.163,3.2,3.2,0,0,0,.333-1.422,3.056,3.056,0,0,0-.476-1.64,3.86,3.86,0,0,0-1.274-1.235,3.422,3.422,0,0,0-.8-.342,6.98,6.98,0,0,0-.883-.195l-.532-.083c-.381-.053-.7-.1-.94-.149a1.9,1.9,0,0,1-.507-.169,1.8,1.8,0,0,1-.629-.573,1.106,1.106,0,0,1-.229-.633.984.984,0,0,1,.13-.48,1.716,1.716,0,0,1,.445-.506,2.077,2.077,0,0,1,.7-.376,2.96,2.96,0,0,1,1.785,0,2.244,2.244,0,0,1,.713.378,1.719,1.719,0,0,1,.42.493,1.116,1.116,0,0,1,.139.5l.023.611,1.931.005v-.637A3.174,3.174,0,0,0-30.164,1472.471Z" transform="translate(37.133 -1471.522)"/><path d="M17.243,1472.47l-.006,0a4.477,4.477,0,0,0-2.814-.943,4.717,4.717,0,0,0-1.512.243,4.348,4.348,0,0,0-1.309.7,3.587,3.587,0,0,0-.946,1.132,3.033,3.033,0,0,0-.348,1.42,3.129,3.129,0,0,0,.519,1.731A3.691,3.691,0,0,0,12.208,1478a4.419,4.419,0,0,0,1.295.42c.438.077.694.12.779.134a4.622,4.622,0,0,1,1.512.354,1.8,1.8,0,0,1,.6.549,1.02,1.02,0,0,1,.184.587,1.243,1.243,0,0,1-.553,1,2.445,2.445,0,0,1-1.607.521,2.906,2.906,0,0,1-.9-.138,2.129,2.129,0,0,1-.724-.4,1.233,1.233,0,0,1-.548-.979l-.03-.6-1.941-.006v.637a3.37,3.37,0,0,0,1.328,2.556,4.312,4.312,0,0,0,1.306.7,4.731,4.731,0,0,0,1.512.244,4.483,4.483,0,0,0,2.821-.949,3.421,3.421,0,0,0,.945-1.162,3.177,3.177,0,0,0,.333-1.423,3.064,3.064,0,0,0-.475-1.64,3.876,3.876,0,0,0-1.274-1.235,3.424,3.424,0,0,0-.8-.34,6.72,6.72,0,0,0-.885-.2l-.532-.082c-.381-.053-.7-.1-.94-.149a1.9,1.9,0,0,1-.507-.169,1.824,1.824,0,0,1-.629-.573,1.106,1.106,0,0,1-.228-.633.965.965,0,0,1,.13-.48,1.7,1.7,0,0,1,.446-.507,2.07,2.07,0,0,1,.7-.375,2.949,2.949,0,0,1,1.785,0,2.219,2.219,0,0,1,.714.379,1.671,1.671,0,0,1,.418.493,1.1,1.1,0,0,1,.139.5l.023.611,1.931.005v-.638a3.166,3.166,0,0,0-1.292-2.539Z" transform="translate(10.549 -1471.522)"/><path d="M59.628,1471.81h-1.94V1483.6h8.26v-2h-6.32Z" transform="translate(-16.037 -1471.682)"/><path d="M112.239,1474.581a5.759,5.759,0,0,0-2.005-2.2,5.192,5.192,0,0,0-5.589,0,5.738,5.738,0,0,0-2,2.2,6.51,6.51,0,0,0,0,5.984,5.76,5.76,0,0,0,2.005,2.2,5.172,5.172,0,0,0,5.589,0,5.743,5.743,0,0,0,2.005-2.2,6.519,6.519,0,0,0,0-5.983Zm-1.718,5.016h0a3.853,3.853,0,0,1-1.315,1.447,3.265,3.265,0,0,1-3.534,0,3.9,3.9,0,0,1-1.324-1.451,4.371,4.371,0,0,1,0-4.043,3.909,3.909,0,0,1,1.324-1.451,3.251,3.251,0,0,1,3.534,0,3.848,3.848,0,0,1,1.315,1.449,4.421,4.421,0,0,1,0,4.047Z" transform="translate(-40.834 -1471.547)"/></g></g></svg>