<svg width="258" height="43" viewBox="0 0 258 43" fill="none" xmlns="http://www.w3.org/2000/svg">
<path d="M24.8607 3.38263L24.8357 3.36478C21.9698 1.1353 18.4295 -0.0509337 14.7987 0.0016776C12.9658 -0.00509939 11.1441 0.287787 9.40567 0.868466C7.71777 1.42694 6.13846 2.27123 4.73672 3.36478C3.34102 4.46115 2.19041 5.8378 1.35896 7.40573C0.53993 8.96652 0.115029 10.7037 0.121273 12.4663C0.117727 14.6602 0.76166 16.8068 1.97244 18.6365C3.20549 20.5216 4.90144 22.0588 6.89821 23.1015C8.35062 23.8349 9.90738 24.3403 11.5137 24.5996C13.0795 24.8742 13.9926 25.0309 14.2958 25.0737C16.1518 25.1872 17.9752 25.6141 19.6888 26.3362C20.5397 26.819 21.2711 27.4868 21.8289 28.2905C22.2547 28.9071 22.4835 29.6383 22.4852 30.3876C22.4661 31.097 22.2767 31.7913 21.9327 32.412C21.5888 33.0327 21.1005 33.5617 20.5092 33.954C18.881 35.2338 16.8504 35.8925 14.7809 35.8121C13.6917 35.8168 12.6085 35.6509 11.5707 35.3201C10.6251 35.0177 9.74776 34.533 8.98837 33.8935C8.41015 33.5062 7.93168 32.9876 7.59199 32.3802C7.25231 31.7728 7.06103 31.0939 7.03375 30.3985L6.92674 28.2587L0 28.2369V30.5091C0.0675285 32.2839 0.527285 34.0218 1.34626 35.5979C2.16524 37.174 3.32311 38.5494 4.73672 39.6249C6.13466 40.7203 7.71196 41.5648 9.39854 42.1212C11.137 42.7023 12.9586 42.9962 14.7916 42.9915C18.4333 43.0429 21.9833 41.8488 24.8535 39.6071C26.2709 38.4897 27.4242 37.0732 28.2313 35.459C29.0129 33.8827 29.4194 32.147 29.4191 30.3876C29.4205 28.3163 28.8315 26.2873 27.7213 24.5386C26.5692 22.7375 25.0134 21.2296 23.1771 20.1342C22.2818 19.6078 21.3229 19.1983 20.3237 18.9147C19.29 18.6151 18.238 18.3825 17.1742 18.219L15.2766 17.923C13.9177 17.734 12.7799 17.5666 11.9238 17.3919C11.2957 17.2771 10.6869 17.074 10.1155 16.7889C9.21505 16.2968 8.44572 15.596 7.87196 14.7454C7.37171 14.096 7.08622 13.3071 7.05516 12.488C7.06058 11.8871 7.22023 11.2973 7.51883 10.7758C7.92343 10.0753 8.4629 9.462 9.10606 8.97126C9.84425 8.36777 10.692 7.91254 11.6028 7.63037C13.6745 6.9753 15.8979 6.9753 17.9696 7.63037C18.8918 7.92238 19.7535 8.37932 20.5127 8.97866C21.119 9.46454 21.6274 10.0609 22.0108 10.7366C22.3139 11.2838 22.4838 11.8947 22.5066 12.5198L22.5886 14.6992L29.4761 14.7171V12.4449C29.467 10.6791 29.0449 8.9401 28.2435 7.36655C27.4421 5.793 26.2836 4.42853 24.8607 3.38263V3.38263Z" fill="white"/>
<path d="M99.1324 3.37914H99.111C96.2451 1.14966 92.7048 -0.0365751 89.074 0.0160361C87.2411 0.00925914 85.4194 0.302145 83.681 0.882824C81.9931 1.44124 80.4137 2.28553 79.012 3.37914C77.6197 4.47657 76.4707 5.85165 75.6378 7.4166C74.8173 8.97825 74.3911 10.7166 74.3966 12.4806C74.393 14.6757 75.0369 16.8234 76.2477 18.6544C77.4829 20.5331 79.1787 22.064 81.1735 23.1015C82.6266 23.8364 84.1847 24.3418 85.7925 24.5996C87.3548 24.8742 88.2679 25.0272 88.5711 25.0771C90.4271 25.1908 92.2505 25.6177 93.9641 26.3397C94.8175 26.8205 95.5496 27.4905 96.1042 28.2979C96.5332 28.9115 96.7624 29.6423 96.7605 30.3911C96.741 31.0999 96.5517 31.794 96.2084 32.4146C95.8652 33.0351 95.3781 33.5641 94.788 33.9575C93.1589 35.2381 91.1269 35.8968 89.0562 35.8156C87.9669 35.8212 86.8836 35.6553 85.846 35.3236C84.9003 35.0215 84.0229 34.5367 83.2637 33.897C82.6849 33.511 82.206 32.9932 81.8662 32.3863C81.5264 31.7793 81.3355 31.1005 81.3091 30.4054L81.2021 28.2657L74.2789 28.2443V30.516C74.3457 32.291 74.8051 34.0291 75.6241 35.6053C76.4432 37.1815 77.6014 38.5568 79.0156 39.6319C80.4126 40.7266 81.9887 41.571 83.6739 42.1282C85.4123 42.7092 87.2339 43.0032 89.0669 42.9985C92.7085 43.0489 96.2582 41.855 99.1288 39.614C100.545 38.4985 101.696 37.0833 102.499 35.4699C103.284 33.8935 103.691 32.1559 103.687 30.395C103.688 28.3242 103.101 26.2958 101.993 24.546C100.839 22.7463 99.2838 21.2386 97.4489 20.1415C96.5531 19.6178 95.5942 19.21 94.5954 18.9286C93.5605 18.6201 92.5059 18.3819 91.4388 18.2155L89.5413 17.923C88.1823 17.734 87.0445 17.5666 86.1885 17.3918C85.5603 17.2771 84.9515 17.074 84.3801 16.7889C83.4816 16.2941 82.7128 15.5938 82.1366 14.7453C81.6376 14.0955 81.3534 13.3067 81.3233 12.488C81.3257 11.8867 81.4855 11.2961 81.787 10.7758C82.191 10.0728 82.732 9.45807 83.3778 8.96777C84.1159 8.36503 84.9638 7.91087 85.8746 7.63036C87.9459 6.97272 90.17 6.97272 92.2413 7.63036C93.1658 7.92121 94.0291 8.37947 94.788 8.98213C95.3947 9.46561 95.9012 10.063 96.279 10.7405C96.5841 11.2869 96.7541 11.8983 96.7748 12.5237L96.8568 14.7027L103.744 14.7205V12.4449C103.737 10.6805 103.317 8.94255 102.516 7.37002C101.716 5.79749 100.558 4.43439 99.136 3.39002L99.1324 3.37914Z" fill="white"/>
<path d="M155.484 0.455063H148.565V42.5028H178.027V35.37H155.484V0.455063Z" fill="white"/>
<path d="M254.692 10.819C253.037 7.62225 250.571 4.91624 247.54 2.97268C244.563 1.07178 241.105 0.0619049 237.573 0.0619049C234.041 0.0619049 230.582 1.07178 227.605 2.97268C224.579 4.91593 222.119 7.62241 220.472 10.819C218.765 14.117 217.874 17.7761 217.874 21.4896C217.874 25.203 218.765 28.8621 220.472 32.1601C222.127 35.3568 224.593 38.0627 227.623 40.0064C230.597 41.9157 234.057 42.9307 237.591 42.9307C241.125 42.9307 244.584 41.9157 247.558 40.0064C250.59 38.0649 253.057 35.3584 254.71 32.1601C256.413 28.8617 257.302 25.2036 257.302 21.4913C257.302 17.779 256.413 14.1209 254.71 10.8225L254.692 10.819ZM248.564 28.7081C247.47 30.803 245.855 32.5801 243.874 33.8684C241.994 35.0779 239.806 35.7213 237.571 35.7213C235.336 35.7213 233.148 35.0779 231.268 33.8684C229.279 32.5745 227.653 30.7933 226.546 28.6938C225.385 26.468 224.779 23.9947 224.779 21.4843C224.779 18.9739 225.385 16.5007 226.546 14.2749C227.654 12.1761 229.279 10.3948 231.268 9.09984C233.146 7.88438 235.335 7.23783 237.571 7.23783C239.808 7.23783 241.996 7.88438 243.874 9.09984C245.856 10.3895 247.472 12.1696 248.564 14.2675C249.713 16.4995 250.313 18.9739 250.313 21.4843C250.313 23.9948 249.713 26.4687 248.564 28.7007V28.7081Z" fill="white"/>
</svg>
