<svg width="120" height="56" viewBox="0 0 120 56" fill="none" xmlns="http://www.w3.org/2000/svg">
<rect width="120" height="56" transform="matrix(-1 0 0 1 120 0)" fill="white"/>
<path d="M34.6116 22V28.5594L29.9937 22H25V35H29.9764V28.4406L34.5957 35H39.5867V22H34.6116Z" fill="#04CF5C"/>
<path d="M92.977 30.1363C94.7456 29.6572 95.8848 28.4173 95.8848 26.4246C95.8848 23.0758 93.1523 22 89.5514 22H83.3362V35H88.3113V30.9409L91.2815 35H97.0001L92.977 30.1363V30.1363ZM90.5326 27.4888C90.2418 27.7174 89.6828 27.8297 89.2208 27.8297H88.1533V25.27H89.2009C89.7028 25.27 90.275 25.3863 90.5538 25.6187C90.8313 25.8525 90.9588 26.1702 90.9588 26.5731C90.9588 26.9761 90.8234 27.2602 90.5339 27.4875L90.5326 27.4888Z" fill="#04CF5C"/>
<path d="M71.2097 22H81.298V25.385H76.1383V26.9154H80.8917V30.1105H76.1383V31.6137H81.456V35H71.2097V22Z" fill="#04CF5C"/>
<path d="M51.5631 22H45.8883L40.6543 35H46.1897L46.673 33.303H50.7824L51.2657 35H56.7984L51.5631 22ZM47.4869 30.2964L48.658 26.0087H48.7934L49.9658 30.2964H47.4869Z" fill="#04CF5C"/>
<path d="M64.7185 22L62.2661 29.838H62.128L59.677 22H54.2505L59.8483 35H64.5459L70.1437 22H64.7185Z" fill="#04CF5C"/>
</svg>
