<svg width="109" height="25" viewBox="0 0 109 25" fill="none" xmlns="http://www.w3.org/2000/svg">
<path d="M20.401 7.79404H21.687V5.61301H19.506V5.86606L11.934 1.49399V-0.00100708H9.75301V1.49399L2.181 5.86606V5.61301H0V7.79404H2.181V7.561L9.75301 11.946V13.446H10.653V22.5269H9.75301V22.763L2.181 18.3921V16.7979H0V18.979H2.181V18.843L9.75301 23.214V24.709H11.934V23.214L19.506 18.843V19.078H21.687V16.8969H19.506V17.132L11.934 12.76V11.265H11.034V2.18002H11.934V1.94504L19.506 6.31601V7.79294L20.401 7.79404ZM10.648 11.2621H9.748V11.495L2.17599 7.10995V6.31796L9.748 1.94601V2.18198H10.648V11.2621ZM11.934 13.443V13.208L19.506 17.58V18.388L11.934 22.759V22.523H11.034V13.442L11.934 13.443Z" fill="url(#paint0_linear_191_2)"/>
<path d="M43.746 7.94893L43.739 7.94392C42.9355 7.31879 41.9429 6.98618 40.925 7.00093C40.4111 6.99903 39.9004 7.08115 39.413 7.24397C38.9398 7.40056 38.497 7.6373 38.104 7.94392C37.7127 8.25134 37.3901 8.63734 37.157 9.07698C36.9274 9.51461 36.8083 10.0017 36.81 10.4959C36.809 11.1111 36.9895 11.713 37.329 12.226C37.6747 12.7546 38.1502 13.1856 38.71 13.478C39.1172 13.6836 39.5537 13.8253 40.004 13.898C40.443 13.975 40.699 14.019 40.784 14.031C41.3044 14.0628 41.8156 14.1825 42.296 14.385C42.5346 14.5203 42.7396 14.7076 42.896 14.9329C43.0154 15.1058 43.0795 15.3109 43.08 15.5209C43.0747 15.7199 43.0215 15.9145 42.9251 16.0886C42.8287 16.2626 42.6918 16.4109 42.526 16.5209C42.0695 16.8798 41.5002 17.0645 40.92 17.0419C40.6146 17.0433 40.3109 16.9967 40.02 16.904C39.7549 16.8192 39.5089 16.6833 39.296 16.504C39.1339 16.3954 38.9997 16.25 38.9045 16.0797C38.8093 15.9094 38.7556 15.719 38.748 15.524L38.718 14.924L36.776 14.9179V15.555C36.7949 16.0527 36.9238 16.54 37.1534 16.9819C37.3831 17.4238 37.7077 17.8095 38.104 18.111C38.4959 18.4182 38.9381 18.655 39.411 18.811C39.8984 18.9739 40.4091 19.0563 40.923 19.055C41.944 19.0694 42.9393 18.7346 43.744 18.106C44.1414 17.7927 44.4647 17.3955 44.691 16.9429C44.9101 16.5009 45.0241 16.0143 45.024 15.5209C45.0244 14.9402 44.8593 14.3713 44.548 13.8809C44.225 13.3759 43.7888 12.9531 43.274 12.6459C43.023 12.4984 42.7541 12.3835 42.474 12.304C42.1842 12.22 41.8892 12.1548 41.591 12.109L41.059 12.026C40.678 11.973 40.359 11.926 40.119 11.877C39.9429 11.8449 39.7722 11.7879 39.612 11.708C39.3596 11.57 39.1439 11.3735 38.983 11.135C38.8428 10.9529 38.7627 10.7317 38.754 10.502C38.7555 10.3335 38.8003 10.1682 38.884 10.0219C38.9974 9.82551 39.1487 9.65354 39.329 9.51594C39.536 9.34673 39.7736 9.21908 40.029 9.13997C40.6098 8.95629 41.2332 8.95629 41.814 9.13997C42.0726 9.22184 42.3141 9.34997 42.527 9.51802C42.697 9.65426 42.8395 9.82148 42.947 10.0109C43.032 10.1644 43.0796 10.3357 43.086 10.5109L43.109 11.122L45.04 11.127V10.4899C45.0374 9.99482 44.9191 9.5072 44.6944 9.06599C44.4697 8.62478 44.1449 8.24219 43.746 7.94893Z" fill="#243654"/>
<path d="M64.569 7.94795H64.563C63.7595 7.32282 62.7669 6.9902 61.749 7.00496C61.2351 7.00306 60.7244 7.08518 60.237 7.248C59.7638 7.40457 59.321 7.64131 58.928 7.94795C58.5377 8.25566 58.2155 8.64123 57.982 9.08003C57.752 9.51791 57.6325 10.0053 57.634 10.5C57.633 11.1154 57.8135 11.7176 58.153 12.231C58.4993 12.7578 58.9747 13.1871 59.534 13.478C59.9414 13.684 60.3782 13.8258 60.829 13.898C61.267 13.975 61.523 14.0179 61.608 14.0319C62.1284 14.0638 62.6396 14.1835 63.12 14.3859C63.3593 14.5208 63.5645 14.7086 63.72 14.935C63.8403 15.1071 63.9046 15.312 63.904 15.5219C63.8985 15.7207 63.8455 15.9153 63.7492 16.0893C63.653 16.2633 63.5165 16.4116 63.351 16.5219C62.8943 16.881 62.3246 17.0657 61.744 17.0429C61.4386 17.0445 61.1349 16.998 60.844 16.905C60.5789 16.8203 60.3329 16.6843 60.12 16.505C59.9578 16.3967 59.8235 16.2516 59.7282 16.0814C59.6329 15.9112 59.5794 15.7208 59.572 15.526L59.542 14.926L57.601 14.92V15.557C57.6197 16.0547 57.7485 16.542 57.9782 16.984C58.2078 17.4259 58.5325 17.8116 58.929 18.113C59.3207 18.4199 59.7626 18.6567 60.235 18.8129C60.7224 18.9759 61.2331 19.0583 61.747 19.057C62.768 19.0711 63.7632 18.7363 64.568 18.108C64.965 17.7952 65.2877 17.3984 65.513 16.946C65.7331 16.504 65.8471 16.0168 65.846 15.523C65.8463 14.9424 65.6815 14.3736 65.371 13.883C65.0476 13.3784 64.6115 12.9556 64.097 12.648C63.8459 12.5012 63.577 12.3868 63.297 12.3079C63.0069 12.2214 62.7112 12.1546 62.412 12.108L61.88 12.026C61.499 11.973 61.18 11.926 60.94 11.877C60.7639 11.8449 60.5932 11.7879 60.433 11.708C60.1811 11.5692 59.9656 11.3729 59.804 11.135C59.6641 10.9528 59.5844 10.7316 59.576 10.502C59.5767 10.3334 59.6215 10.1678 59.706 10.0219C59.8193 9.8248 59.9709 9.65244 60.152 9.51497C60.359 9.34596 60.5967 9.21862 60.852 9.13997C61.4327 8.95557 62.0563 8.95557 62.637 9.13997C62.8962 9.22152 63.1382 9.35001 63.351 9.51899C63.5211 9.65456 63.6631 9.82207 63.769 10.012C63.8546 10.1652 63.9022 10.3367 63.908 10.512L63.931 11.123L65.862 11.128V10.4899C65.86 9.99521 65.7421 9.5079 65.5177 9.06697C65.2934 8.62604 64.9688 8.24384 64.57 7.951L64.569 7.94795Z" fill="#243654"/>
<path d="M80.368 7.12805H78.428V18.918H86.688V16.918H80.368V7.12805Z" fill="#243654"/>
<path d="M108.182 10.0341C107.718 9.13769 107.027 8.37895 106.177 7.83398C105.342 7.30099 104.373 7.01782 103.382 7.01782C102.392 7.01782 101.423 7.30099 100.588 7.83398C99.7396 8.37886 99.0498 9.13774 98.588 10.0341C98.1094 10.9588 97.8597 11.9848 97.8597 13.026C97.8597 14.0672 98.1094 15.0932 98.588 16.0179C99.052 16.9143 99.7434 17.673 100.593 18.218C101.427 18.7534 102.397 19.038 103.387 19.038C104.378 19.038 105.348 18.7534 106.182 18.218C107.032 17.6736 107.724 16.9147 108.187 16.0179C108.665 15.0931 108.914 14.0674 108.914 13.0265C108.914 11.9856 108.665 10.9599 108.187 10.035L108.182 10.0341ZM106.464 15.05C106.157 15.6374 105.704 16.1357 105.149 16.4969C104.622 16.8361 104.009 17.0165 103.382 17.0165C102.755 17.0165 102.142 16.8361 101.615 16.4969C101.057 16.1342 100.601 15.6347 100.291 15.046C99.9654 14.4219 99.7954 13.7284 99.7954 13.0245C99.7954 12.3206 99.9654 11.6272 100.291 11.0031C100.602 10.4146 101.057 9.91509 101.615 9.552C102.141 9.2112 102.755 9.02991 103.382 9.02991C104.009 9.02991 104.623 9.2112 105.149 9.552C105.705 9.91362 106.158 10.4127 106.464 11.001C106.786 11.6268 106.954 12.3206 106.954 13.0245C106.954 13.7284 106.786 14.4221 106.464 15.048V15.05Z" fill="#243654"/>
<defs>
<linearGradient id="paint0_linear_191_2" x1="19.6267" y1="3.55723" x2="0.158208" y2="18.5505" gradientUnits="userSpaceOnUse">
<stop stop-color="#3580E3"/>
<stop offset="0.159" stop-color="#8579F3"/>
<stop offset="0.334" stop-color="#B578EF"/>
<stop offset="0.5" stop-color="#D964B6"/>
<stop offset="0.666" stop-color="#DE61A6"/>
<stop offset="0.837" stop-color="#F26A84"/>
<stop offset="1" stop-color="#FF4343"/>
</linearGradient>
</defs>
</svg>
