<svg id="icon-menu6-1" xmlns="http://www.w3.org/2000/svg" width="18" height="18" viewBox="0 0 18 18">
  <g id="그룹_20" data-name="그룹 20">
    <path id="패스_56" data-name="패스 56" d="M0,0H18V18H0Z" fill="none"/>
  </g>
  <g id="그룹_21" data-name="그룹 21" transform="translate(2 2)">
    <path id="패스_57" data-name="패스 57" d="M3.4,4.8H2v9.8A1.4,1.4,0,0,0,3.4,16h9.8V14.6H3.4ZM14.6,2H6.2A1.4,1.4,0,0,0,4.8,3.4v8.4a1.4,1.4,0,0,0,1.4,1.4h8.4A1.4,1.4,0,0,0,16,11.8V3.4A1.4,1.4,0,0,0,14.6,2Zm0,9.8H6.2V3.4h8.4ZM10.057,7.712c.287-.511.826-.812,1.141-1.26a.864.864,0,0,0-.8-1.358,1.112,1.112,0,0,0-1.05.861l-.959-.4a2.086,2.086,0,0,1,2-1.456,1.98,1.98,0,0,1,1.757.882,1.755,1.755,0,0,1,.007,1.8c-.441.651-.861.847-1.092,1.267-.091.168-.126.28-.126.826H9.875A2.369,2.369,0,0,1,10.057,7.712Zm-.392,2.653a.725.725,0,0,1,.735-.728.732.732,0,0,1,0,1.463A.735.735,0,0,1,9.665,10.365Z" transform="translate(-2 -2)" fill="#3580e3"/>
  </g>
</svg>
