<svg width="16" height="16" viewBox="0 0 16 16" fill="none" xmlns="http://www.w3.org/2000/svg">
<path d="M7.92578 12.5008C8.22578 12.5008 8.47903 12.3975 8.68553 12.191C8.89153 11.985 8.99453 11.7383 8.99453 11.4508C8.99453 11.1508 8.89153 10.9008 8.68553 10.7008C8.47903 10.5008 8.22578 10.4008 7.92578 10.4008C7.63828 10.4008 7.39153 10.5008 7.18553 10.7008C6.97903 10.9008 6.87578 11.1508 6.87578 11.4508C6.87578 11.7383 6.97903 11.985 7.18553 12.191C7.39153 12.3975 7.63828 12.5008 7.92578 12.5008ZM7.13828 9.61328H8.73203C8.73203 9.22578 8.78203 8.91003 8.88203 8.66603C8.98203 8.42253 9.23203 8.10703 9.63203 7.71953C9.93203 7.43203 10.1758 7.13528 10.3633 6.82928C10.5508 6.52278 10.6445 6.15703 10.6445 5.73203C10.6445 5.00703 10.3945 4.45078 9.89453 4.06328C9.39453 3.67578 8.79453 3.48203 8.09453 3.48203C7.35703 3.48203 6.74778 3.68828 6.26678 4.10078C5.78528 4.51328 5.45078 5.00078 5.26328 5.56328L6.74453 6.12578C6.81953 5.88828 6.95703 5.64128 7.15703 5.38478C7.35703 5.12878 7.65078 5.00078 8.03828 5.00078C8.36328 5.00078 8.60703 5.09153 8.76953 5.27303C8.93203 5.45403 9.01328 5.65703 9.01328 5.88203C9.01328 6.09453 8.94453 6.30378 8.80703 6.50978C8.66953 6.71628 8.51328 6.89453 8.33828 7.04453C7.81328 7.51953 7.48203 7.89453 7.34453 8.16953C7.20703 8.44453 7.13828 8.92578 7.13828 9.61328ZM8.00078 15.857C6.90078 15.857 5.87578 15.6508 4.92578 15.2383C3.97578 14.8258 3.14778 14.2665 2.44178 13.5605C1.73528 12.854 1.17578 12.0258 0.763281 11.0758C0.350781 10.1258 0.144531 9.10078 0.144531 8.00078C0.144531 6.90078 0.350781 5.87578 0.763281 4.92578C1.17578 3.97578 1.73528 3.14753 2.44178 2.44103C3.14778 1.73503 3.97578 1.17578 4.92578 0.763281C5.87578 0.350781 6.90078 0.144531 8.00078 0.144531C9.10078 0.144531 10.1258 0.350781 11.0758 0.763281C12.0258 1.17578 12.854 1.73503 13.5605 2.44103C14.2665 3.14753 14.8258 3.97578 15.2383 4.92578C15.6508 5.87578 15.857 6.90078 15.857 8.00078C15.857 9.10078 15.6508 10.1258 15.2383 11.0758C14.8258 12.0258 14.2665 12.854 13.5605 13.5605C12.854 14.2665 12.0258 14.8258 11.0758 15.2383C10.1258 15.6508 9.10078 15.857 8.00078 15.857Z" fill="#FF4343"/>
</svg>
