<svg xmlns="http://www.w3.org/2000/svg" xmlns:xlink="http://www.w3.org/1999/xlink" width="472.512" height="98.94" viewBox="0 0 472.512 98.94">
  <defs>
    <filter id="패스_6463" x="0" y="0" width="75.364" height="98.94" filterUnits="userSpaceOnUse">
      <feOffset input="SourceAlpha"/>
      <feGaussianBlur stdDeviation="4" result="blur"/>
      <feFlood flood-opacity="0.702"/>
      <feComposite operator="in" in2="blur"/>
      <feComposite in="SourceGraphic"/>
    </filter>
    <filter id="패스_6464" x="129.492" y="0" width="75.35" height="98.94" filterUnits="userSpaceOnUse">
      <feOffset input="SourceAlpha"/>
      <feGaussianBlur stdDeviation="4" result="blur-2"/>
      <feFlood flood-opacity="0.702"/>
      <feComposite operator="in" in2="blur-2"/>
      <feComposite in="SourceGraphic"/>
    </filter>
    <filter id="패스_6465" x="258.983" y="0.797" width="75.36" height="97.33" filterUnits="userSpaceOnUse">
      <feOffset input="SourceAlpha"/>
      <feGaussianBlur stdDeviation="4" result="blur-3"/>
      <feFlood flood-opacity="0.702"/>
      <feComposite operator="in" in2="blur-3"/>
      <feComposite in="SourceGraphic"/>
    </filter>
    <filter id="패스_6466" x="379.783" y="0.123" width="92.73" height="98.717" filterUnits="userSpaceOnUse">
      <feOffset input="SourceAlpha"/>
      <feGaussianBlur stdDeviation="4" result="blur-4"/>
      <feFlood flood-opacity="0.702"/>
      <feComposite operator="in" in2="blur-4"/>
      <feComposite in="SourceGraphic"/>
    </filter>
  </defs>
  <g id="그룹_102" data-name="그룹 102" transform="translate(12.012 11.999)">
    <g transform="matrix(1, 0, 0, 1, -12.01, -12)" filter="url(#패스_6463)">
      <path id="패스_6463-2" data-name="패스 6463" d="M6.2,1477.42l-.044-.031a27.834,27.834,0,0,0-17.5-5.864,29.34,29.34,0,0,0-9.4,1.512,27.02,27.02,0,0,0-8.14,4.382,22.164,22.164,0,0,0-5.886,7.047,18.843,18.843,0,0,0-2.158,8.825A19.441,19.441,0,0,0-33.7,1504.05a22.96,22.96,0,0,0,8.585,7.734,27.6,27.6,0,0,0,8.047,2.611c2.732.478,4.319.751,4.848.83,6.408.819,8.735,1.824,9.4,2.2a11.375,11.375,0,0,1,3.753,3.409,6.461,6.461,0,0,1,1.145,3.654c0,2.349-1.087,4.31-3.442,6.193a15.2,15.2,0,0,1-9.989,3.242,18.153,18.153,0,0,1-5.613-.858,13.24,13.24,0,0,1-4.5-2.477,7.7,7.7,0,0,1-3.409-6.094l-.186-3.741-12.073-.038v3.963c0,5.8,3.087,11.743,8.257,15.9a26.8,26.8,0,0,0,8.126,4.371,29.431,29.431,0,0,0,9.4,1.515,27.855,27.855,0,0,0,17.539-5.9,21.4,21.4,0,0,0,5.886-7.231,19.91,19.91,0,0,0,2.068-8.839,19,19,0,0,0-2.958-10.2,24,24,0,0,0-7.919-7.678,21.3,21.3,0,0,0-5-2.125,43.4,43.4,0,0,0-5.493-1.212l-3.308-.513c-2.368-.328-4.338-.636-5.845-.926a11.825,11.825,0,0,1-3.152-1.049,11.177,11.177,0,0,1-3.912-3.565,6.871,6.871,0,0,1-1.426-3.936,6.117,6.117,0,0,1,.811-2.985,10.664,10.664,0,0,1,2.764-3.147,12.921,12.921,0,0,1,4.365-2.339,18.409,18.409,0,0,1,11.1,0,13.961,13.961,0,0,1,4.433,2.352,10.7,10.7,0,0,1,2.609,3.064,6.946,6.946,0,0,1,.866,3.1l.145,3.8,12.008.033v-3.958c.011-6.146-2.622-11.308-8.031-15.785Z" transform="translate(49.13 -1459.52)" fill="#fff"/>
    </g>
    <g transform="matrix(1, 0, 0, 1, -12.01, -12)" filter="url(#패스_6464)">
      <path id="패스_6464-2" data-name="패스 6464" d="M53.592,1477.42l-.036-.031a27.839,27.839,0,0,0-17.5-5.864,29.34,29.34,0,0,0-9.4,1.512,27.018,27.018,0,0,0-8.14,4.382,22.3,22.3,0,0,0-5.881,7.041,18.862,18.862,0,0,0-2.163,8.832,19.46,19.46,0,0,0,3.229,10.762,22.949,22.949,0,0,0,8.585,7.73,27.482,27.482,0,0,0,8.052,2.611c2.726.478,4.313.746,4.843.83,6.408.819,8.735,1.824,9.4,2.2a11.208,11.208,0,0,1,3.756,3.414,6.339,6.339,0,0,1,1.142,3.649c0,2.343-1.087,4.31-3.436,6.193a15.21,15.21,0,0,1-9.992,3.242,18.1,18.1,0,0,1-5.611-.858,13.26,13.26,0,0,1-4.5-2.482,7.67,7.67,0,0,1-3.409-6.089l-.186-3.741-12.068-.038v3.963c0,5.8,3.081,11.743,8.257,15.9a26.812,26.812,0,0,0,8.121,4.371,29.435,29.435,0,0,0,9.4,1.515,27.872,27.872,0,0,0,17.539-5.9,21.263,21.263,0,0,0,5.878-7.224,19.755,19.755,0,0,0,2.073-8.846,19.057,19.057,0,0,0-2.953-10.2,24.106,24.106,0,0,0-7.921-7.676,21.242,21.242,0,0,0-5-2.116,41.745,41.745,0,0,0-5.5-1.219l-3.308-.513c-2.368-.328-4.338-.636-5.845-.926a11.825,11.825,0,0,1-3.152-1.049,11.347,11.347,0,0,1-3.912-3.565,6.88,6.88,0,0,1-1.42-3.936,6,6,0,0,1,.806-2.985,10.591,10.591,0,0,1,2.772-3.153,12.888,12.888,0,0,1,4.357-2.334,18.341,18.341,0,0,1,11.1,0,13.8,13.8,0,0,1,4.439,2.357,10.389,10.389,0,0,1,2.6,3.065,6.813,6.813,0,0,1,.866,3.1l.145,3.8,12.008.033V1493.2c.015-6.151-2.618-11.314-8.035-15.785Z" transform="translate(131.22 -1459.52)" fill="#fff"/>
    </g>
    <g transform="matrix(1, 0, 0, 1, -12.01, -12)" filter="url(#패스_6465)">
      <path id="패스_6465-2" data-name="패스 6465" d="M69.748,1471.81H57.688v73.33h51.36v-12.429h-39.3Z" transform="translate(213.3 -1459.01)" fill="#fff"/>
    </g>
    <g transform="matrix(1, 0, 0, 1, -12.01, -12)" filter="url(#패스_6466)">
      <path id="패스_6466-2" data-name="패스 6466" d="M166.122,1490.31a35.809,35.809,0,0,0-12.467-13.669,32.283,32.283,0,0,0-34.75,0,35.682,35.682,0,0,0-12.461,13.666,40.476,40.476,0,0,0,0,37.208,35.815,35.815,0,0,0,12.467,13.671,32.159,32.159,0,0,0,34.75,0,35.71,35.71,0,0,0,12.467-13.671,40.534,40.534,0,0,0,0-37.2Zm-10.68,31.188v.005a23.973,23.973,0,0,1-8.175,9,20.306,20.306,0,0,1-21.972,0,24.277,24.277,0,0,1-8.235-9.022,27.179,27.179,0,0,1,0-25.139,24.3,24.3,0,0,1,8.235-9.023,20.216,20.216,0,0,1,21.972,0,23.926,23.926,0,0,1,8.175,9.01,27.494,27.494,0,0,1,0,25.166Z" transform="translate(289.87 -1459.44)" fill="#fff"/>
    </g>
  </g>
</svg>
