<svg xmlns="http://www.w3.org/2000/svg" width="252.893" height="42.255" viewBox="0 0 252.893 42.255">
  <g id="그룹_102" data-name="그룹 102" transform="translate(0.012 -0.001)">
    <path id="패스_1" data-name="패스 1" d="M-12.7,1474.848l-.025-.017a15.694,15.694,0,0,0-9.867-3.306,16.543,16.543,0,0,0-5.3.853,15.24,15.24,0,0,0-4.59,2.471,12.5,12.5,0,0,0-3.319,3.973,10.625,10.625,0,0,0-1.217,4.976,10.962,10.962,0,0,0,1.821,6.066,12.949,12.949,0,0,0,4.841,4.361,15.564,15.564,0,0,0,4.537,1.472c1.54.27,2.435.423,2.734.468,3.613.462,4.925,1.028,5.3,1.24a6.414,6.414,0,0,1,2.116,1.922,3.642,3.642,0,0,1,.646,2.06,4.349,4.349,0,0,1-1.941,3.492,8.572,8.572,0,0,1-5.632,1.828,10.243,10.243,0,0,1-3.165-.484,7.469,7.469,0,0,1-2.537-1.4,4.342,4.342,0,0,1-1.922-3.436l-.1-2.109-6.807-.021v2.234a11.826,11.826,0,0,0,4.656,8.962,15.107,15.107,0,0,0,4.582,2.465,16.6,16.6,0,0,0,5.3.854,15.706,15.706,0,0,0,9.889-3.327,12.066,12.066,0,0,0,3.319-4.077,11.227,11.227,0,0,0,1.166-4.984,10.713,10.713,0,0,0-1.668-5.751,13.532,13.532,0,0,0-4.465-4.329,12.008,12.008,0,0,0-2.819-1.2,24.458,24.458,0,0,0-3.1-.684l-1.865-.289c-1.335-.185-2.446-.359-3.3-.522a6.676,6.676,0,0,1-1.777-.591,6.3,6.3,0,0,1-2.206-2.01,3.874,3.874,0,0,1-.8-2.219,3.45,3.45,0,0,1,.457-1.683,6.013,6.013,0,0,1,1.558-1.774,7.285,7.285,0,0,1,2.461-1.319,10.378,10.378,0,0,1,6.259,0,7.876,7.876,0,0,1,2.5,1.326,6.035,6.035,0,0,1,1.471,1.728,3.915,3.915,0,0,1,.488,1.748l.082,2.143,6.771.019v-2.231c.006-3.466-1.478-6.376-4.528-8.9Z" transform="translate(37.121 -1471.521)" fill="#243654"/>
    <path id="패스_2" data-name="패스 2" d="M34.7,1474.848l-.02-.018a15.7,15.7,0,0,0-9.867-3.306,16.543,16.543,0,0,0-5.3.853,15.234,15.234,0,0,0-4.59,2.471,12.578,12.578,0,0,0-3.316,3.97,10.636,10.636,0,0,0-1.22,4.98,10.971,10.971,0,0,0,1.821,6.068,12.943,12.943,0,0,0,4.841,4.359,15.508,15.508,0,0,0,4.54,1.472c1.537.27,2.432.421,2.731.468,3.613.462,4.925,1.028,5.3,1.24a6.319,6.319,0,0,1,2.118,1.925,3.574,3.574,0,0,1,.644,2.058,4.358,4.358,0,0,1-1.937,3.492,8.575,8.575,0,0,1-5.634,1.828,10.2,10.2,0,0,1-3.164-.484,7.478,7.478,0,0,1-2.537-1.4,4.325,4.325,0,0,1-1.922-3.433l-.1-2.109-6.8-.021v2.235a11.816,11.816,0,0,0,4.656,8.962,15.115,15.115,0,0,0,4.579,2.464,16.592,16.592,0,0,0,5.3.854,15.716,15.716,0,0,0,9.889-3.327,11.987,11.987,0,0,0,3.314-4.073,11.14,11.14,0,0,0,1.169-4.988,10.744,10.744,0,0,0-1.665-5.751,13.592,13.592,0,0,0-4.466-4.328,12,12,0,0,0-2.819-1.193,23.578,23.578,0,0,0-3.1-.687l-1.865-.289c-1.335-.185-2.446-.359-3.3-.522a6.668,6.668,0,0,1-1.777-.592,6.4,6.4,0,0,1-2.206-2.01,3.88,3.88,0,0,1-.8-2.219,3.383,3.383,0,0,1,.454-1.683,5.973,5.973,0,0,1,1.563-1.778,7.265,7.265,0,0,1,2.457-1.316,10.341,10.341,0,0,1,6.259,0,7.771,7.771,0,0,1,2.5,1.329,5.853,5.853,0,0,1,1.466,1.728,3.84,3.84,0,0,1,.488,1.748l.082,2.143,6.771.019v-2.237c.008-3.468-1.476-6.379-4.531-8.9Z" transform="translate(62.725 -1471.521)" fill="#243654"/>
    <path id="패스_3" data-name="패스 3" d="M64.488,1471.81h-6.8v41.347H86.647v-7.008H64.488Z" transform="translate(88.327 -1471.36)" fill="#243654"/>
    <path id="패스_4" data-name="패스 4" d="M138.117,1482.135a20.187,20.187,0,0,0-7.03-7.707,18.2,18.2,0,0,0-19.594,0,20.117,20.117,0,0,0-7.026,7.706,22.822,22.822,0,0,0,0,20.98,20.194,20.194,0,0,0,7.029,7.708,18.133,18.133,0,0,0,19.594,0,20.134,20.134,0,0,0,7.029-7.708,22.855,22.855,0,0,0,0-20.975ZM132.1,1499.72v0a13.518,13.518,0,0,1-4.609,5.074,11.449,11.449,0,0,1-12.389,0,13.69,13.69,0,0,1-4.643-5.087,15.325,15.325,0,0,1,0-14.175,13.7,13.7,0,0,1,4.643-5.087,11.4,11.4,0,0,1,12.389,0,13.492,13.492,0,0,1,4.609,5.08,15.5,15.5,0,0,1,0,14.19Z" transform="translate(112.216 -1471.497)" fill="#243654"/>
  </g>
</svg>
