<svg xmlns="http://www.w3.org/2000/svg" xmlns:xlink="http://www.w3.org/1999/xlink" width="232.401" height="41.307" viewBox="0 0 232.401 41.307">
  <defs>
    <linearGradient id="linear-gradient" x1="0.905" y1="0.144" x2="0.097" y2="0.853" gradientUnits="objectBoundingBox">
      <stop offset="0" stop-color="#3580e3"/>
      <stop offset="0.159" stop-color="#8579f3"/>
      <stop offset="0.334" stop-color="#b578ef"/>
      <stop offset="0.5" stop-color="#d964b6"/>
      <stop offset="0.666" stop-color="#de61a6"/>
      <stop offset="0.837" stop-color="#f26a84"/>
      <stop offset="1" stop-color="#ff4343"/>
    </linearGradient>
  </defs>
  <g id="그룹_4648" data-name="그룹 4648" transform="translate(-153.599 -30)">
    <g id="그룹_102" data-name="그룹 102" transform="translate(221.656 36.999)">
      <path id="패스_1" data-name="패스 1" d="M-21.254,1473.683l-.016-.011a10.2,10.2,0,0,0-6.413-2.149,10.75,10.75,0,0,0-3.445.554,9.9,9.9,0,0,0-2.983,1.606,8.122,8.122,0,0,0-2.157,2.582,6.9,6.9,0,0,0-.791,3.234,7.124,7.124,0,0,0,1.183,3.943,8.414,8.414,0,0,0,3.146,2.834,10.113,10.113,0,0,0,2.949.957c1,.175,1.583.275,1.777.3a10.52,10.52,0,0,1,3.445.806,4.168,4.168,0,0,1,1.375,1.249,2.367,2.367,0,0,1,.42,1.339,2.826,2.826,0,0,1-1.261,2.269,5.57,5.57,0,0,1-3.66,1.188,6.655,6.655,0,0,1-2.057-.314,4.853,4.853,0,0,1-1.649-.908,2.822,2.822,0,0,1-1.249-2.233l-.068-1.371-4.424-.014V1491a7.686,7.686,0,0,0,3.026,5.825,9.82,9.82,0,0,0,2.978,1.6,10.785,10.785,0,0,0,3.445.555,10.207,10.207,0,0,0,6.427-2.162,7.841,7.841,0,0,0,2.157-2.65,7.3,7.3,0,0,0,.758-3.239,6.962,6.962,0,0,0-1.084-3.738,8.794,8.794,0,0,0-2.9-2.813,7.8,7.8,0,0,0-1.832-.779,15.907,15.907,0,0,0-2.013-.444l-1.212-.188c-.868-.12-1.59-.233-2.142-.339a4.34,4.34,0,0,1-1.155-.384,4.1,4.1,0,0,1-1.434-1.306,2.518,2.518,0,0,1-.523-1.442,2.242,2.242,0,0,1,.3-1.094,3.908,3.908,0,0,1,1.013-1.153,4.734,4.734,0,0,1,1.6-.857,6.747,6.747,0,0,1,4.068,0,5.117,5.117,0,0,1,1.624.862,3.922,3.922,0,0,1,.956,1.123,2.545,2.545,0,0,1,.317,1.136l.053,1.393,4.4.012v-1.45a7.231,7.231,0,0,0-2.943-5.784Z" transform="translate(37.121 -1471.521)" fill="#fff"/>
      <path id="패스_2" data-name="패스 2" d="M26.15,1473.683l-.013-.011a10.2,10.2,0,0,0-6.413-2.149,10.75,10.75,0,0,0-3.445.554,9.9,9.9,0,0,0-2.983,1.606,8.173,8.173,0,0,0-2.155,2.58,6.912,6.912,0,0,0-.793,3.237,7.131,7.131,0,0,0,1.183,3.944,8.411,8.411,0,0,0,3.146,2.833,10.076,10.076,0,0,0,2.951.957c1,.175,1.58.273,1.775.3a10.528,10.528,0,0,1,3.445.806,4.106,4.106,0,0,1,1.376,1.251,2.322,2.322,0,0,1,.418,1.337,2.832,2.832,0,0,1-1.259,2.269,5.573,5.573,0,0,1-3.662,1.188,6.632,6.632,0,0,1-2.056-.314,4.858,4.858,0,0,1-1.649-.909,2.81,2.81,0,0,1-1.249-2.231l-.068-1.371-4.422-.014V1491a7.679,7.679,0,0,0,3.026,5.825,9.825,9.825,0,0,0,2.976,1.6,10.786,10.786,0,0,0,3.445.555,10.214,10.214,0,0,0,6.427-2.162,7.79,7.79,0,0,0,2.154-2.647,7.239,7.239,0,0,0,.76-3.242,6.983,6.983,0,0,0-1.082-3.738,8.833,8.833,0,0,0-2.9-2.813,7.79,7.79,0,0,0-1.832-.775,15.307,15.307,0,0,0-2.015-.447l-1.212-.188c-.868-.12-1.59-.233-2.142-.339a4.331,4.331,0,0,1-1.155-.384,4.158,4.158,0,0,1-1.434-1.306,2.521,2.521,0,0,1-.52-1.442,2.2,2.2,0,0,1,.3-1.094,3.883,3.883,0,0,1,1.016-1.155,4.722,4.722,0,0,1,1.6-.855,6.72,6.72,0,0,1,4.068,0,5.055,5.055,0,0,1,1.627.864,3.807,3.807,0,0,1,.953,1.123,2.5,2.5,0,0,1,.317,1.136l.053,1.393,4.4.012v-1.454a7.214,7.214,0,0,0-2.944-5.784Z" transform="translate(37.163 -1471.521)" fill="#fff"/>
      <path id="패스_3" data-name="패스 3" d="M62.107,1471.81H57.688v26.871H76.509v-4.555h-14.4Z" transform="translate(37.203 -1471.517)" fill="#fff"/>
      <path id="패스_4" data-name="패스 4" d="M125.442,1478.435a13.12,13.12,0,0,0-4.568-5.009,11.83,11.83,0,0,0-12.734,0,13.075,13.075,0,0,0-4.566,5.008,14.832,14.832,0,0,0,0,13.635,13.124,13.124,0,0,0,4.568,5.01,11.785,11.785,0,0,0,12.734,0,13.085,13.085,0,0,0,4.568-5.01,14.854,14.854,0,0,0,0-13.632Zm-3.914,11.429v0a8.785,8.785,0,0,1-3,3.3,7.441,7.441,0,0,1-8.052,0,8.9,8.9,0,0,1-3.018-3.306,9.96,9.96,0,0,1,0-9.212,8.9,8.9,0,0,1,3.018-3.306,7.408,7.408,0,0,1,8.052,0,8.768,8.768,0,0,1,3,3.3,10.075,10.075,0,0,1,0,9.222Z" transform="translate(37.245 -1471.521)" fill="#fff"/>
    </g>
    <path id="패스_63" data-name="패스 63" d="M-115.4,1434.252h2.15v-3.646H-116.9v.423l-12.661-7.31v-2.5H-133.2v2.5l-12.66,7.31v-.423h-3.647v3.646h3.647v-.39l12.66,7.333v2.5h1.5v15.184h-1.5v.394l-12.66-7.309V1449.3h-3.647v3.647h3.647v-.228l12.66,7.31v2.5h3.647v-2.5l12.661-7.31v.394h3.647v-3.647H-116.9v.394l-12.661-7.31v-2.5h-1.5v-15.184h1.5v-.394l12.661,7.31v2.47Zm-16.308,5.8h-1.5v.39l-12.66-7.333v-1.324l12.66-7.31v.394h1.5Zm2.15,3.647v-.394l12.661,7.31v1.352l-12.661,7.309v-.394h-1.5V1443.7Z" transform="translate(303.11 -1391.22)" fill="url(#linear-gradient)"/>
  </g>
</svg>
