<svg width="28" height="28" viewBox="0 0 28 28" fill="none" xmlns="http://www.w3.org/2000/svg">
<path d="M2.33398 13.9999C2.33398 20.4399 7.56065 25.6666 14.0007 25.6666C20.4407 25.6666 25.6673 20.4399 25.6673 13.9999C25.6673 7.55992 20.4407 2.33325 14.0007 2.33325C7.56065 2.33325 2.33398 7.55992 2.33398 13.9999ZM23.334 13.9999C23.334 19.1566 19.1573 23.3333 14.0007 23.3333C8.84398 23.3333 4.66732 19.1566 4.66732 13.9999C4.66732 8.84325 8.84398 4.66659 14.0007 4.66659C19.1573 4.66659 23.334 8.84325 23.334 13.9999ZM9.33398 13.9999L14.0007 9.33325L15.6457 10.9783L13.8023 12.8333H18.6673V15.1666H13.8023L15.6573 17.0216L14.0007 18.6666L9.33398 13.9999Z" fill="white"/>
</svg>
