<svg width="24" height="24" viewBox="0 0 24 24" fill="none" xmlns="http://www.w3.org/2000/svg">
<path d="M23.666 12.0007C23.666 18.4407 18.4393 23.6673 11.9993 23.6673C5.55935 23.6673 0.332681 18.4407 0.332681 12.0007C0.332681 5.56065 5.55935 0.333984 11.9993 0.333984C18.4393 0.333984 23.666 5.56065 23.666 12.0007ZM2.66601 12.0007C2.66601 17.1573 6.84268 21.334 11.9993 21.334C17.156 21.334 21.3327 17.1573 21.3327 12.0007C21.3327 6.84398 17.156 2.66732 11.9993 2.66732C6.84268 2.66732 2.66601 6.84398 2.66601 12.0007ZM16.666 12.0007L11.9993 7.33398L10.3543 8.97898L12.1977 10.834H7.33268V13.1673H12.1977L10.3427 15.0223L11.9993 16.6673L16.666 12.0007Z" fill="#737680"/>
</svg>
