<svg width="20" height="20" viewBox="0 0 20 20" fill="none" xmlns="http://www.w3.org/2000/svg">
<path d="M9.99935 1.66675C5.39935 1.66675 1.66602 5.40008 1.66602 10.0001C1.66602 14.6001 5.39935 18.3334 9.99935 18.3334C14.5993 18.3334 18.3327 14.6001 18.3327 10.0001C18.3327 5.40008 14.5993 1.66675 9.99935 1.66675ZM10.8327 15.8334H9.16602V14.1667H10.8327V15.8334ZM12.5577 9.37508L11.8077 10.1417C11.2077 10.7501 10.8327 11.2501 10.8327 12.5001H9.16602V12.0834C9.16602 11.1667 9.54102 10.3334 10.141 9.72508L11.1743 8.67508C11.4827 8.37508 11.666 7.95842 11.666 7.50008C11.666 6.58341 10.916 5.83341 9.99935 5.83341C9.08268 5.83341 8.33268 6.58341 8.33268 7.50008H6.66602C6.66602 5.65841 8.15768 4.16675 9.99935 4.16675C11.841 4.16675 13.3327 5.65841 13.3327 7.50008C13.3327 8.23342 13.0327 8.90008 12.5577 9.37508Z" fill="#E9D1FD"/>
</svg>
