<svg width="21" height="21" viewBox="0 0 21 21" fill="none" xmlns="http://www.w3.org/2000/svg">
<path d="M20.3326 16.4031L4.5956 0.666016H18.7771C19.1919 0.666016 19.5549 0.821571 19.866 1.13268C20.1771 1.44379 20.3326 1.80676 20.3326 2.22157V16.4031ZM18.9067 20.4216L17.7919 19.3327H3.22153C2.80671 19.3327 2.44375 19.1771 2.13264 18.866C1.82153 18.5549 1.66597 18.1919 1.66597 17.7771V3.20676L0.577083 2.11787C0.421528 1.96231 0.34375 1.77651 0.34375 1.56046C0.34375 1.34441 0.421528 1.15861 0.577083 1.00305C0.732639 0.847497 0.918441 0.769719 1.13449 0.769719C1.35054 0.769719 1.53634 0.847497 1.6919 1.00305L20.0215 19.3327C20.1771 19.4882 20.2549 19.6697 20.2549 19.8771C20.2549 20.0845 20.1771 20.266 20.0215 20.4216C19.866 20.5771 19.6802 20.6549 19.4641 20.6549C19.2481 20.6549 19.0623 20.5771 18.9067 20.4216ZM5.45116 15.2623H13.7475L11.4141 12.929L10.1178 14.6142L8.01782 11.7364C7.9314 11.6327 7.8277 11.5808 7.70671 11.5808C7.58572 11.5808 7.48202 11.6327 7.3956 11.7364L5.16597 14.6401C5.06227 14.7784 5.04498 14.9166 5.11412 15.0549C5.18326 15.1932 5.2956 15.2623 5.45116 15.2623Z" fill="#5F6164"/>
</svg>
