<svg width="24" height="24" viewBox="0 0 24 24" fill="none" xmlns="http://www.w3.org/2000/svg">
<path d="M19.6804 7.71469V16.2863H4.32039V7.71469H19.6804ZM19.6804 5.99989H4.32039C3.84016 5.97597 3.36994 6.14277 3.01212 6.46395C2.65431 6.78513 2.43788 7.23468 2.40999 7.71469L2.40039 16.2851C2.43041 16.7661 2.64881 17.2158 3.00822 17.5368C3.36764 17.8578 3.83911 18.0242 4.32039 17.9999H19.6804C20.1617 18.0242 20.6331 17.8578 20.9926 17.5368C21.352 17.2158 21.5704 16.7661 21.6004 16.2851V7.71469C21.5704 7.23373 21.352 6.78399 20.9926 6.46298C20.6331 6.14198 20.1617 5.97559 19.6804 5.99989ZM11.0404 8.57149H12.9604V10.2851H11.0404V8.57149ZM11.0404 11.1431H12.9604V12.8579H11.0404V11.1431ZM8.16039 8.57149H10.0804V10.2851H8.16039V8.57149ZM8.16039 11.1431H10.0804V12.8579H8.16039V11.1431ZM5.28039 11.1431H7.20039V12.8579H5.28039V11.1431ZM5.28039 8.57149H7.20039V10.2851H5.28039V8.57149ZM8.16039 13.7147H15.8404V15.4295H8.16039V13.7147ZM13.9204 11.1431H15.8404V12.8579H13.9204V11.1431ZM13.9204 8.57149H15.8404V10.2851H13.9204V8.57149ZM16.8004 11.1431H18.7204V12.8579H16.8004V11.1431ZM16.8004 8.57149H18.7204V10.2851H16.8004V8.57149Z" fill="white"/>
</svg>
