<svg width="24" height="24" viewBox="0 0 24 24" fill="none" xmlns="http://www.w3.org/2000/svg">
<path d="M8.50006 20.4246H5.67413C5.08648 20.4246 4.59388 20.2215 4.19635 19.8153C3.79882 19.4091 3.60006 18.9209 3.60006 18.3505V15.5505L1.50006 13.4505C1.11981 13.0357 0.929688 12.5517 0.929688 11.9986C0.929688 11.4456 1.11981 10.9616 1.50006 10.5468L3.60006 8.44679V5.62086C3.60006 5.05049 3.79882 4.56654 4.19635 4.16901C4.59388 3.77148 5.08648 3.57271 5.67413 3.57271H8.47413L10.5741 1.47271C10.9717 1.09247 11.4513 0.902344 12.013 0.902344C12.5747 0.902344 13.063 1.10111 13.4778 1.49864L15.526 3.57271H18.3778C18.9482 3.57271 19.4365 3.77148 19.8426 4.16901C20.2488 4.56654 20.4519 5.05049 20.4519 5.62086V8.44679L22.526 10.5468C22.9235 10.9616 23.1223 11.4456 23.1223 11.9986C23.1223 12.5517 22.9235 13.0357 22.526 13.4505L20.4519 15.5505V18.3505C20.4519 18.9209 20.2488 19.4091 19.8426 19.8153C19.4365 20.2215 18.9482 20.4246 18.3778 20.4246H15.526L13.4778 22.4468C13.0803 22.8443 12.6007 23.0431 12.0389 23.0431C11.4772 23.0431 10.9976 22.8443 10.6001 22.4468L8.50006 20.4246ZM12.026 16.769C13.3741 16.769 14.5106 16.311 15.4352 15.3949C16.3599 14.4789 16.8223 13.3381 16.8223 11.9727C16.8223 10.6246 16.3643 9.48815 15.4482 8.56345C14.5322 7.63876 13.3914 7.17642 12.026 7.17642V16.769Z" fill="#5F6164"/>
</svg>
