<svg width="21" height="21" viewBox="0 0 21 21" fill="none" xmlns="http://www.w3.org/2000/svg">
<path d="M4.55462 16.4959H15.4694C15.7287 16.4959 15.9188 16.3835 16.0398 16.1589C16.1608 15.9342 16.1435 15.7181 15.9879 15.5107L13.0583 11.4922C12.92 11.3193 12.7429 11.2329 12.5268 11.2329C12.3108 11.2329 12.1423 11.3107 12.0213 11.4663L9.11758 15.2255L7.22499 12.6329C7.104 12.4601 6.93548 12.3737 6.71943 12.3737C6.50338 12.3737 6.33486 12.4601 6.21387 12.6329L4.06202 15.5107C3.92375 15.7181 3.90647 15.9342 4.01017 16.1589C4.11387 16.3835 4.29536 16.4959 4.55462 16.4959ZM2.45462 20.9811C1.78054 20.9811 1.20585 20.7434 0.730541 20.2681C0.255232 19.7928 0.0175781 19.2181 0.0175781 18.544V3.45515C0.0175781 2.78108 0.255232 2.20206 0.730541 1.71811C1.20585 1.23416 1.78054 0.992188 2.45462 0.992188H17.5435C18.2176 0.992188 18.7966 1.23416 19.2805 1.71811C19.7645 2.20206 20.0065 2.78108 20.0065 3.45515V18.544C20.0065 19.2181 19.7645 19.7928 19.2805 20.2681C18.7966 20.7434 18.2176 20.9811 17.5435 20.9811H2.45462Z" fill="#8579F3"/>
</svg>
