<svg width="22" height="15" viewBox="0 0 22 15" fill="none" xmlns="http://www.w3.org/2000/svg">
<path d="M2.50039 14.975C1.95039 14.975 1.48372 14.7792 1.10039 14.3875C0.717057 13.9958 0.525391 13.5333 0.525391 13V2C0.525391 1.45 0.717057 0.979167 1.10039 0.5875C1.48372 0.195833 1.95039 0 2.50039 0H19.5004C20.0504 0 20.5212 0.195833 20.9129 0.5875C21.3046 0.979167 21.5004 1.45 21.5004 2V13C21.5004 13.5333 21.3046 13.9958 20.9129 14.3875C20.5212 14.7792 20.0504 14.975 19.5004 14.975H2.50039ZM6.50039 11.375H15.5004V9.875H6.50039V11.375ZM4.07539 8.25H5.57539V6.75H4.07539V8.25ZM7.17539 8.25H8.67539V6.75H7.17539V8.25ZM10.2504 8.25H11.7504V6.75H10.2504V8.25ZM13.3504 8.25H14.8504V6.75H13.3504V8.25ZM16.4254 8.25H17.9254V6.75H16.4254V8.25ZM4.07539 5.125H5.57539V3.625H4.07539V5.125ZM7.17539 5.125H8.67539V3.625H7.17539V5.125ZM10.2504 5.125H11.7504V3.625H10.2504V5.125ZM13.3504 5.125H14.8504V3.625H13.3504V5.125ZM16.4254 5.125H17.9254V3.625H16.4254V5.125Z" fill="#737680"/>
</svg>
