<svg width="25" height="21" viewBox="0 0 25 21" fill="none" xmlns="http://www.w3.org/2000/svg">
<path d="M0.591797 12.0734V6.88824H2.14735V9.42898L5.20661 6.36972L6.2955 7.45861L3.23624 10.5179H5.77698V12.0734H0.591797ZM7.38439 6.36972L6.2955 5.28083L9.35476 2.22157H6.81402V0.666016H11.9992V5.8512H10.4436V3.31046L7.38439 6.36972ZM14.6436 20.3697C14.3325 20.3697 14.0733 20.3179 13.814 20.2142C13.5548 20.1105 13.3474 19.9549 13.1399 19.7475L7.7992 14.4068L9.25106 12.9031C9.51032 12.6438 9.76957 12.4882 10.0807 12.3327C10.3918 12.229 10.7029 12.1771 11.014 12.2808L13.0362 12.7475V4.29565C13.0362 3.56972 13.2955 2.9475 13.814 2.42898C14.3325 1.91046 14.9029 1.70305 15.6288 1.70305C16.3548 1.70305 16.977 1.96231 17.4436 2.42898C17.9103 2.89564 18.2214 3.56972 18.2214 4.29565V8.7549H18.8955C18.9992 8.7549 19.0511 8.7549 19.1548 8.80676C19.2585 8.85861 19.3103 8.85861 19.414 8.91046L23.2511 10.7771C23.6659 10.9845 23.977 11.2956 24.1844 11.7105C24.3918 12.1253 24.4436 12.5919 24.3399 13.0068L23.4066 18.6586C23.3029 19.1771 23.0955 19.5919 22.6807 19.9031C22.2659 20.2142 21.8511 20.3697 21.3325 20.3697H14.6436Z" fill="#5F6164"/>
</svg>
