<svg width="28" height="28" viewBox="0 0 28 28" fill="none" xmlns="http://www.w3.org/2000/svg">
<path d="M25.666 13.9999C25.666 20.4399 20.4393 25.6666 13.9993 25.6666C7.55935 25.6666 2.33268 20.4399 2.33268 13.9999C2.33268 7.55992 7.55935 2.33325 13.9993 2.33325C20.4393 2.33325 25.666 7.55992 25.666 13.9999ZM4.66601 13.9999C4.66601 19.1566 8.84268 23.3333 13.9993 23.3333C19.156 23.3333 23.3327 19.1566 23.3327 13.9999C23.3327 8.84325 19.156 4.66659 13.9993 4.66659C8.84268 4.66659 4.66601 8.84325 4.66601 13.9999ZM18.666 13.9999L13.9993 9.33325L12.3543 10.9783L14.1977 12.8333H9.33268V15.1666H14.1977L12.3427 17.0216L13.9993 18.6666L18.666 13.9999Z" fill="white"/>
</svg>
