<svg width="24" height="24" viewBox="0 0 24 24" fill="none" xmlns="http://www.w3.org/2000/svg">
<path d="M17 3H5C4.46957 3 3.96086 3.21071 3.58579 3.58579C3.21071 3.96086 3 4.46957 3 5V19C3 19.5304 3.21071 20.0391 3.58579 20.4142C3.96086 20.7893 4.46957 21 5 21H19C19.5299 20.9984 20.0377 20.7872 20.4125 20.4125C20.7872 20.0377 20.9984 19.5299 21 19V7L17 3ZM19 19H5V5H16.17L19 7.83V19ZM12 12C11.4067 12 10.8266 12.1759 10.3333 12.5056C9.83994 12.8352 9.45542 13.3038 9.22836 13.8519C9.0013 14.4001 8.94189 15.0033 9.05764 15.5853C9.1734 16.1672 9.45912 16.7018 9.87868 17.1213C10.2982 17.5409 10.8328 17.8266 11.4147 17.9424C11.9967 18.0581 12.5999 17.9987 13.1481 17.7716C13.6962 17.5446 14.1648 17.1601 14.4944 16.6667C14.8241 16.1734 15 15.5933 15 15C15 14.2044 14.6839 13.4413 14.1213 12.8787C13.5587 12.3161 12.7956 12 12 12ZM6 6H15V10H6V6Z" fill="white"/>
</svg>
