<svg width="20" height="20" viewBox="0 0 20 20" fill="none" xmlns="http://www.w3.org/2000/svg">
<path d="M3.77611 13.0057C3.49957 13.0057 3.26624 12.9107 3.07611 12.7206C2.88599 12.5304 2.79093 12.2971 2.79093 12.0206C2.79093 11.744 2.88599 11.5107 3.07611 11.3206C3.26624 11.1304 3.49957 11.0354 3.77611 11.0354C4.05266 11.0354 4.28599 11.1304 4.47611 11.3206C4.66624 11.5107 4.7613 11.744 4.7613 12.0206C4.7613 12.2971 4.66624 12.5304 4.47611 12.7206C4.28599 12.9107 4.05266 13.0057 3.77611 13.0057ZM3.77611 17.2057C3.49957 17.2057 3.26624 17.1107 3.07611 16.9206C2.88599 16.7304 2.79093 16.4971 2.79093 16.2206C2.79093 15.944 2.88599 15.7107 3.07611 15.5206C3.26624 15.3304 3.49957 15.2354 3.77611 15.2354C4.05266 15.2354 4.28599 15.3304 4.47611 15.5206C4.66624 15.7107 4.7613 15.944 4.7613 16.2206C4.7613 16.4971 4.66624 16.7304 4.47611 16.9206C4.28599 17.1107 4.05266 17.2057 3.77611 17.2057ZM3.77611 8.9613C3.49957 8.9613 3.26624 8.86624 3.07611 8.67611C2.88599 8.48599 2.79093 8.25266 2.79093 7.97611C2.79093 7.69957 2.88599 7.46624 3.07611 7.27611C3.26624 7.08599 3.49957 6.99093 3.77611 6.99093C4.05266 6.99093 4.28599 7.08599 4.47611 7.27611C4.66624 7.46624 4.7613 7.69957 4.7613 7.97611C4.7613 8.25266 4.66624 8.48599 4.47611 8.67611C4.28599 8.86624 4.05266 8.9613 3.77611 8.9613ZM0.690929 8.52056C0.535373 8.52056 0.405744 8.46871 0.30204 8.365C0.198336 8.2613 0.146484 8.13167 0.146484 7.97611C0.146484 7.82056 0.198336 7.69093 0.30204 7.58722C0.405744 7.48352 0.535373 7.43167 0.690929 7.43167C0.846484 7.43167 0.976114 7.48352 1.07982 7.58722C1.18352 7.69093 1.23537 7.82056 1.23537 7.97611C1.23537 8.13167 1.18352 8.2613 1.07982 8.365C0.976114 8.46871 0.846484 8.52056 0.690929 8.52056ZM3.77611 4.7613C3.49957 4.7613 3.26624 4.66624 3.07611 4.47611C2.88599 4.28599 2.79093 4.05266 2.79093 3.77611C2.79093 3.49957 2.88599 3.26624 3.07611 3.07611C3.26624 2.88599 3.49957 2.79093 3.77611 2.79093C4.05266 2.79093 4.28599 2.88599 4.47611 3.07611C4.66624 3.26624 4.7613 3.49957 4.7613 3.77611C4.7613 4.05266 4.66624 4.28599 4.47611 4.47611C4.28599 4.66624 4.05266 4.7613 3.77611 4.7613ZM0.690929 12.565C0.535373 12.565 0.405744 12.5132 0.30204 12.4094C0.198336 12.3057 0.146484 12.1761 0.146484 12.0206C0.146484 11.865 0.198336 11.7354 0.30204 11.6317C0.405744 11.528 0.535373 11.4761 0.690929 11.4761C0.846484 11.4761 0.976114 11.528 1.07982 11.6317C1.18352 11.7354 1.23537 11.865 1.23537 12.0206C1.23537 12.1761 1.18352 12.3057 1.07982 12.4094C0.976114 12.5132 0.846484 12.565 0.690929 12.565ZM7.97611 19.8502C7.82056 19.8502 7.69093 19.7983 7.58722 19.6946C7.48352 19.5909 7.43167 19.4613 7.43167 19.3057C7.43167 19.1502 7.48352 19.0206 7.58722 18.9169C7.69093 18.8132 7.82056 18.7613 7.97611 18.7613C8.13167 18.7613 8.2613 18.8132 8.365 18.9169C8.46871 19.0206 8.52056 19.1502 8.52056 19.3057C8.52056 19.4613 8.46871 19.5909 8.365 19.6946C8.2613 19.7983 8.13167 19.8502 7.97611 19.8502ZM7.97611 1.23537C7.82056 1.23537 7.69093 1.18352 7.58722 1.07982C7.48352 0.976114 7.43167 0.846484 7.43167 0.690929C7.43167 0.535373 7.48352 0.405744 7.58722 0.30204C7.69093 0.198336 7.82056 0.146484 7.97611 0.146484C8.13167 0.146484 8.2613 0.198336 8.365 0.30204C8.46871 0.405744 8.52056 0.535373 8.52056 0.690929C8.52056 0.846484 8.46871 0.976114 8.365 1.07982C8.2613 1.18352 8.13167 1.23537 7.97611 1.23537ZM7.97611 4.7613C7.69957 4.7613 7.46624 4.66624 7.27611 4.47611C7.08599 4.28599 6.99093 4.05266 6.99093 3.77611C6.99093 3.49957 7.08599 3.26624 7.27611 3.07611C7.46624 2.88599 7.69957 2.79093 7.97611 2.79093C8.25266 2.79093 8.48599 2.88599 8.67611 3.07611C8.86624 3.26624 8.9613 3.49957 8.9613 3.77611C8.9613 4.05266 8.86624 4.28599 8.67611 4.47611C8.48599 4.66624 8.25266 4.7613 7.97611 4.7613ZM7.97611 13.4206C7.59587 13.4206 7.26747 13.2823 6.99093 13.0057C6.71439 12.7292 6.57611 12.4008 6.57611 12.0206C6.57611 11.623 6.71439 11.2903 6.99093 11.0224C7.26747 10.7545 7.59587 10.6206 7.97611 10.6206C8.37364 10.6206 8.70636 10.7545 8.97426 11.0224C9.24216 11.2903 9.37611 11.623 9.37611 12.0206C9.37611 12.4008 9.24216 12.7292 8.97426 13.0057C8.70636 13.2823 8.37364 13.4206 7.97611 13.4206ZM7.97611 9.37611C7.59587 9.37611 7.26747 9.23784 6.99093 8.9613C6.71439 8.68476 6.57611 8.35636 6.57611 7.97611C6.57611 7.57858 6.71439 7.24587 6.99093 6.97797C7.26747 6.71006 7.59587 6.57611 7.97611 6.57611C8.37364 6.57611 8.70636 6.71006 8.97426 6.97797C9.24216 7.24587 9.37611 7.57858 9.37611 7.97611C9.37611 8.35636 9.24216 8.68476 8.97426 8.9613C8.70636 9.23784 8.37364 9.37611 7.97611 9.37611ZM7.97611 17.2057C7.69957 17.2057 7.46624 17.1107 7.27611 16.9206C7.08599 16.7304 6.99093 16.4971 6.99093 16.2206C6.99093 15.944 7.08599 15.7107 7.27611 15.5206C7.46624 15.3304 7.69957 15.2354 7.97611 15.2354C8.25266 15.2354 8.48599 15.3304 8.67611 15.5206C8.86624 15.7107 8.9613 15.944 8.9613 16.2206C8.9613 16.4971 8.86624 16.7304 8.67611 16.9206C8.48599 17.1107 8.25266 17.2057 7.97611 17.2057ZM10.2576 19.0724V0.924262C11.4848 0.95883 12.6298 1.22241 13.6928 1.715C14.7557 2.2076 15.6891 2.86006 16.4928 3.67241C17.2965 4.48476 17.9273 5.43537 18.3854 6.52426C18.8434 7.61315 19.0724 8.77118 19.0724 9.99834C19.0724 11.2255 18.8434 12.3835 18.3854 13.4724C17.9273 14.5613 17.2965 15.5119 16.4928 16.3243C15.6891 17.1366 14.7557 17.7891 13.6928 18.2817C12.6298 18.7743 11.4848 19.0378 10.2576 19.0724Z" fill="url(#paint0_linear_1125_15623)"/>
<defs>
<linearGradient id="paint0_linear_1125_15623" x1="9.60945" y1="0.146484" x2="9.60945" y2="19.8502" gradientUnits="userSpaceOnUse">
<stop stop-color="#3580E3"/>
<stop offset="0.49" stop-color="#8579F3"/>
<stop offset="1" stop-color="#B578EF"/>
</linearGradient>
</defs>
</svg>
