<svg width="22" height="22" viewBox="0 0 22 22" fill="none" xmlns="http://www.w3.org/2000/svg">
<path d="M11.077 21.3696C9.62518 21.3696 8.26839 21.1017 7.00666 20.5659C5.74493 20.0301 4.6474 19.2956 3.71406 18.3622C2.78073 17.4289 2.04616 16.3314 1.51036 15.0696C0.974559 13.8079 0.706657 12.4511 0.706657 10.9993C0.706657 9.6857 0.927028 8.46286 1.36777 7.33076C1.80851 6.19866 2.40913 5.18323 3.16962 4.28446L0.836287 1.95113C0.680732 1.79557 0.607275 1.61409 0.615917 1.40668C0.624559 1.19928 0.706657 1.0178 0.862213 0.862239C1.01777 0.706684 1.19925 0.628906 1.40666 0.628906C1.61406 0.628906 1.79555 0.706684 1.9511 0.862239L21.2141 20.1252C21.3696 20.2808 21.4431 20.4622 21.4344 20.6696C21.4258 20.8771 21.3437 21.0585 21.1881 21.2141C21.0326 21.3696 20.8511 21.4474 20.6437 21.4474C20.4363 21.4474 20.2548 21.3696 20.0993 21.2141L17.7918 18.9067C16.8067 19.719 15.761 20.3326 14.6548 20.7474C13.5486 21.1622 12.356 21.3696 11.077 21.3696ZM19.84 16.5474L18.6992 15.4067C19.0622 14.8363 19.3517 14.1622 19.5678 13.3845C19.7838 12.6067 19.8918 11.8116 19.8918 10.9993C19.8918 10.5153 19.8616 10.0875 19.8011 9.71594C19.7406 9.34434 19.6499 8.93384 19.5289 8.48446C19.1486 8.57088 18.7684 8.63138 18.3881 8.66594C18.0079 8.70051 17.5931 8.7178 17.1437 8.7178C15.7264 8.7178 14.2875 8.44989 12.827 7.91409C11.3665 7.37829 10.0918 6.64372 9.00295 5.71039L5.52888 2.23631C6.28937 1.75236 7.14061 1.36347 8.08258 1.06965C9.02456 0.77582 10.0227 0.628906 11.077 0.628906C12.5116 0.628906 13.8597 0.901128 15.1215 1.44557C16.3832 1.99002 17.4807 2.72891 18.4141 3.66224C19.3474 4.59557 20.0863 5.6931 20.6307 6.95483C21.1752 8.21656 21.4474 9.56471 21.4474 10.9993C21.4474 12.0363 21.3048 13.0258 21.0196 13.9678C20.7344 14.9098 20.3412 15.7696 19.84 16.5474ZM7.81036 13.5141C7.41283 13.5141 7.08011 13.3801 6.81221 13.1122C6.54431 12.8443 6.41036 12.5116 6.41036 12.1141C6.41036 11.7166 6.54431 11.3838 6.81221 11.1159C7.08011 10.848 7.41283 10.7141 7.81036 10.7141C8.20789 10.7141 8.54061 10.848 8.80851 11.1159C9.07641 11.3838 9.21036 11.7166 9.21036 12.1141C9.21036 12.5116 9.07641 12.8443 8.80851 13.1122C8.54061 13.3801 8.20789 13.5141 7.81036 13.5141ZM11.077 19.8141C12.1313 19.8141 13.1511 19.6283 14.1363 19.2567C15.1215 18.8851 15.9684 18.3968 16.677 17.7919L6.64369 7.75854C6.09061 8.39804 5.42518 8.9857 4.6474 9.5215C3.86962 10.0573 3.07456 10.4894 2.26221 10.8178V10.9993C2.26221 13.419 3.12641 15.4931 4.8548 17.2215C6.5832 18.9499 8.65727 19.8141 11.077 19.8141Z" fill="#5F6164"/>
</svg>
