<svg width="24" height="24" viewBox="0 0 24 24" fill="none" xmlns="http://www.w3.org/2000/svg">
<path d="M0.333984 12.0007C0.333984 18.4407 5.56065 23.6673 12.0007 23.6673C18.4407 23.6673 23.6673 18.4407 23.6673 12.0007C23.6673 5.56065 18.4407 0.333984 12.0007 0.333984C5.56065 0.333984 0.333984 5.56065 0.333984 12.0007ZM21.334 12.0007C21.334 17.1573 17.1573 21.334 12.0007 21.334C6.84398 21.334 2.66732 17.1573 2.66732 12.0007C2.66732 6.84398 6.84398 2.66732 12.0007 2.66732C17.1573 2.66732 21.334 6.84398 21.334 12.0007ZM7.33398 12.0007L12.0007 7.33398L13.6457 8.97898L11.8023 10.834H16.6673V13.1673H11.8023L13.6573 15.0223L12.0007 16.6673L7.33398 12.0007Z" fill="#737680"/>
</svg>
