<svg width="26" height="26" viewBox="0 0 26 26" fill="none" xmlns="http://www.w3.org/2000/svg">
<path d="M12.3258 6.72461H10.9258V11.0802H12.3258V6.72461Z" fill="#5F6164"/>
<path d="M17.7691 14.918H16.3691V19.2735H17.7691V14.918Z" fill="#5F6164"/>
<path d="M21.866 4.13268C21.5549 3.82157 21.1919 3.66602 20.7771 3.66602H5.22157C4.80676 3.66602 4.44379 3.82157 4.13268 4.13268C3.82157 4.44379 3.66602 4.80676 3.66602 5.22157V20.7771C3.66602 21.1919 3.82157 21.5549 4.13268 21.866C4.44379 22.1771 4.80676 22.3327 5.22157 22.3327H20.7771C21.1919 22.3327 21.5549 22.1771 21.866 21.866C22.1771 21.5549 22.3327 21.1919 22.3327 20.7771V5.22157C22.3327 4.80676 22.1771 4.44379 21.866 4.13268ZM6.93268 6.10305C6.93268 5.89565 6.98453 5.74009 7.14009 5.63639C7.24379 5.53268 7.39935 5.42898 7.60676 5.42898C7.81416 5.42898 7.96972 5.48083 8.07342 5.63639C8.17713 5.74009 8.28083 5.89565 8.28083 6.10305V11.7549C8.28083 11.9623 8.22898 12.1179 8.07342 12.2216C7.96972 12.3253 7.81416 12.429 7.60676 12.429C7.39935 12.429 7.24379 12.3771 7.14009 12.2216C7.03639 12.1179 6.93268 11.9623 6.93268 11.7549V6.10305ZM10.9253 19.8956C10.9253 20.0512 10.8734 20.2068 10.7179 20.3623C10.6142 20.466 10.4586 20.5697 10.2512 20.5697H7.5549C7.39935 20.5697 7.24379 20.5179 7.08824 20.3623C6.98453 20.2586 6.88083 20.1031 6.88083 19.8956V14.2438C6.88083 14.0882 6.93268 13.9327 7.08824 13.7771C7.19194 13.6734 7.3475 13.5697 7.5549 13.5697H10.2512C10.4068 13.5697 10.5623 13.6216 10.7179 13.7771C10.8216 13.8808 10.9253 14.0364 10.9253 14.2438V19.8956ZM13.6216 19.8956C13.6216 20.1031 13.5697 20.2586 13.4142 20.3623C13.3105 20.466 13.1549 20.5697 12.9475 20.5697C12.7401 20.5697 12.5845 20.5179 12.4808 20.3623C12.3771 20.2586 12.2734 20.1031 12.2734 19.8956V14.2438C12.2734 14.0364 12.3253 13.8808 12.4808 13.7771C12.5845 13.6734 12.7401 13.5697 12.9475 13.5697C13.1549 13.5697 13.3105 13.6216 13.4142 13.7771C13.5179 13.8808 13.6216 14.0364 13.6216 14.2438V19.8956ZM13.6216 11.7549C13.6216 11.9105 13.5697 12.066 13.4142 12.2216C13.3105 12.3253 13.1549 12.429 12.9475 12.429H10.2512C10.0956 12.429 9.94009 12.3771 9.78453 12.2216C9.68083 12.1179 9.57713 11.9623 9.57713 11.7549V6.10305C9.57713 5.9475 9.62898 5.79194 9.78453 5.63639C9.88824 5.53268 10.0438 5.42898 10.2512 5.42898H12.9993C13.1549 5.42898 13.3105 5.48083 13.466 5.63639C13.5697 5.74009 13.6734 5.89565 13.6734 6.10305V11.7549H13.6216ZM19.066 19.8956C19.066 20.0512 19.0142 20.2068 18.8586 20.3623C18.7549 20.466 18.5994 20.5697 18.3919 20.5697H15.6956C15.5401 20.5697 15.3845 20.5179 15.229 20.3623C15.1253 20.2586 15.0216 20.1031 15.0216 19.8956V14.2438C15.0216 14.0882 15.0734 13.9327 15.229 13.7771C15.3327 13.6734 15.4882 13.5697 15.6956 13.5697H18.3919C18.5475 13.5697 18.7031 13.6216 18.8586 13.7771C18.9623 13.8808 19.066 14.0364 19.066 14.2438V19.8956ZM19.066 11.7549C19.066 11.9105 19.0142 12.066 18.8586 12.2216C18.7549 12.3253 18.5994 12.429 18.3919 12.429H15.5919C15.4364 12.429 15.2808 12.3771 15.1253 12.2216C15.0216 12.1179 14.9179 11.9623 14.9179 11.7549V6.10305C14.9179 5.9475 14.9697 5.79194 15.1253 5.63639C15.229 5.53268 15.3845 5.42898 15.5919 5.42898H18.3919C18.5475 5.42898 18.7031 5.48083 18.8586 5.63639C18.9623 5.74009 19.066 5.89565 19.066 6.10305V11.7549Z" fill="#5F6164"/>
<path d="M9.62852 14.918H8.22852V19.2735H9.62852V14.918Z" fill="#5F6164"/>
<path d="M17.7693 6.72461H16.2656V11.0802H17.7693V6.72461Z" fill="#5F6164"/>
</svg>
