<svg width="18" height="18" viewBox="0 0 18 18" fill="none" xmlns="http://www.w3.org/2000/svg">
<path d="M14 0H2C1.46957 0 0.960859 0.210714 0.585786 0.585786C0.210714 0.960859 0 1.46957 0 2V16C0 16.5304 0.210714 17.0391 0.585786 17.4142C0.960859 17.7893 1.46957 18 2 18H16C16.5299 17.9984 17.0377 17.7872 17.4125 17.4125C17.7872 17.0377 17.9984 16.5299 18 16V4L14 0ZM16 16H2V2H13.17L16 4.83V16ZM9 9C8.40666 9 7.82664 9.17595 7.33329 9.50559C6.83994 9.83524 6.45542 10.3038 6.22836 10.8519C6.0013 11.4001 5.94189 12.0033 6.05764 12.5853C6.1734 13.1672 6.45912 13.7018 6.87868 14.1213C7.29824 14.5409 7.83279 14.8266 8.41473 14.9424C8.99667 15.0581 9.59987 14.9987 10.1481 14.7716C10.6962 14.5446 11.1648 14.1601 11.4944 13.6667C11.8241 13.1734 12 12.5933 12 12C12 11.2044 11.6839 10.4413 11.1213 9.87868C10.5587 9.31607 9.79565 9 9 9ZM3 3H12V7H3V3Z" fill="#737680"/>
</svg>
