<svg width="20" height="20" viewBox="0 0 20 20" fill="none" xmlns="http://www.w3.org/2000/svg">
<path d="M18.866 1.13268C18.5549 0.821571 18.1919 0.666016 17.7771 0.666016H2.22157C1.80676 0.666016 1.44379 0.821571 1.13268 1.13268C0.821571 1.44379 0.666016 1.80676 0.666016 2.22157V17.7771C0.666016 18.1919 0.821571 18.5549 1.13268 18.866C1.44379 19.1771 1.80676 19.3327 2.22157 19.3327H17.7771C18.1919 19.3327 18.5549 19.1771 18.866 18.866C19.1771 18.5549 19.3327 18.1919 19.3327 17.7771V2.22157C19.3327 1.80676 19.1771 1.44379 18.866 1.13268ZM3.93268 3.10305C3.93268 2.89565 3.98453 2.74009 4.14009 2.63639C4.24379 2.53268 4.39935 2.42898 4.60676 2.42898C4.81416 2.42898 4.96972 2.48083 5.07342 2.63639C5.17713 2.74009 5.28083 2.89565 5.28083 3.10305V8.75491C5.28083 8.96231 5.22898 9.11787 5.07342 9.22157C4.96972 9.32528 4.81416 9.42898 4.60676 9.42898C4.39935 9.42898 4.24379 9.37713 4.14009 9.22157C4.03639 9.11787 3.93268 8.96231 3.93268 8.75491V3.10305ZM7.92528 16.8956C7.92528 17.0512 7.87342 17.2068 7.71787 17.3623C7.61416 17.466 7.45861 17.5697 7.2512 17.5697H4.5549C4.39935 17.5697 4.24379 17.5179 4.08824 17.3623C3.98453 17.2586 3.88083 17.1031 3.88083 16.8956V11.2438C3.88083 11.0882 3.93268 10.9327 4.08824 10.7771C4.19194 10.6734 4.3475 10.5697 4.5549 10.5697H7.2512C7.40676 10.5697 7.56231 10.6216 7.71787 10.7771C7.82157 10.8808 7.92528 11.0364 7.92528 11.2438V16.8956ZM10.6216 16.8956C10.6216 17.1031 10.5697 17.2586 10.4142 17.3623C10.3105 17.466 10.1549 17.5697 9.9475 17.5697C9.74009 17.5697 9.58453 17.5179 9.48083 17.3623C9.37713 17.2586 9.27342 17.1031 9.27342 16.8956V11.2438C9.27342 11.0364 9.32528 10.8808 9.48083 10.7771C9.58453 10.6734 9.74009 10.5697 9.9475 10.5697C10.1549 10.5697 10.3105 10.6216 10.4142 10.7771C10.5179 10.8808 10.6216 11.0364 10.6216 11.2438V16.8956ZM10.6216 8.75491C10.6216 8.91046 10.5697 9.06602 10.4142 9.22157C10.3105 9.32528 10.1549 9.42898 9.9475 9.42898H7.2512C7.09565 9.42898 6.94009 9.37713 6.78453 9.22157C6.68083 9.11787 6.57713 8.96231 6.57713 8.75491V3.10305C6.57713 2.9475 6.62898 2.79194 6.78453 2.63639C6.88824 2.53268 7.04379 2.42898 7.2512 2.42898H9.99935C10.1549 2.42898 10.3105 2.48083 10.466 2.63639C10.5697 2.74009 10.6734 2.89565 10.6734 3.10305V8.75491H10.6216ZM16.066 16.8956C16.066 17.0512 16.0142 17.2068 15.8586 17.3623C15.7549 17.466 15.5994 17.5697 15.3919 17.5697H12.6956C12.5401 17.5697 12.3845 17.5179 12.229 17.3623C12.1253 17.2586 12.0216 17.1031 12.0216 16.8956V11.2438C12.0216 11.0882 12.0734 10.9327 12.229 10.7771C12.3327 10.6734 12.4882 10.5697 12.6956 10.5697H15.3919C15.5475 10.5697 15.7031 10.6216 15.8586 10.7771C15.9623 10.8808 16.066 11.0364 16.066 11.2438V16.8956ZM16.066 8.75491C16.066 8.91046 16.0142 9.06602 15.8586 9.22157C15.7549 9.32528 15.5994 9.42898 15.3919 9.42898H12.5919C12.4364 9.42898 12.2808 9.37713 12.1253 9.22157C12.0216 9.11787 11.9179 8.96231 11.9179 8.75491V3.10305C11.9179 2.9475 11.9697 2.79194 12.1253 2.63639C12.229 2.53268 12.3845 2.42898 12.5919 2.42898H15.3919C15.5475 2.42898 15.7031 2.48083 15.8586 2.63639C15.9623 2.74009 16.066 2.89565 16.066 3.10305V8.75491Z" fill="url(#paint0_linear_1125_15585)"/>
<defs>
<linearGradient id="paint0_linear_1125_15585" x1="9.99935" y1="0.666016" x2="9.99935" y2="19.3327" gradientUnits="userSpaceOnUse">
<stop stop-color="#3580E3"/>
<stop offset="0.49" stop-color="#8579F3"/>
<stop offset="1" stop-color="#B578EF"/>
</linearGradient>
</defs>
</svg>
