<svg width="24" height="24" viewBox="0 0 24 24" fill="none" xmlns="http://www.w3.org/2000/svg">
<path d="M17.1318 15.5763V6.86518H8.42073V4.42814H17.1318C17.8059 4.42814 18.3806 4.66579 18.8559 5.1411C19.3312 5.61641 19.5689 6.1911 19.5689 6.86518V15.5763H17.1318ZM18.3504 23.5615C18.0047 23.5615 17.7152 23.4448 17.4818 23.2115C17.2485 22.9781 17.1318 22.6886 17.1318 22.343V19.5689H6.86518C6.1911 19.5689 5.61641 19.3312 5.1411 18.8559C4.66579 18.3806 4.42814 17.8059 4.42814 17.1318V6.86518H1.65407C1.30839 6.86518 1.01888 6.74851 0.785547 6.51518C0.552214 6.28184 0.435547 5.99234 0.435547 5.64666C0.435547 5.30098 0.552214 5.01147 0.785547 4.77814C1.01888 4.54481 1.30839 4.42814 1.65407 4.42814H4.42814V1.65407C4.42814 1.30839 4.54481 1.01888 4.77814 0.785547C5.01147 0.552214 5.30098 0.435547 5.64666 0.435547C5.99234 0.435547 6.28184 0.552214 6.51518 0.785547C6.74851 1.01888 6.86518 1.30839 6.86518 1.65407V17.1318H22.343C22.6886 17.1318 22.9781 17.2485 23.2115 17.4818C23.4448 17.7152 23.5615 18.0047 23.5615 18.3504C23.5615 18.696 23.4448 18.9855 23.2115 19.2189C22.9781 19.4522 22.6886 19.5689 22.343 19.5689H19.5689V22.343C19.5689 22.6886 19.4522 22.9781 19.2189 23.2115C18.9855 23.4448 18.696 23.5615 18.3504 23.5615Z" fill="url(#paint0_linear_1125_15617)"/>
<defs>
<linearGradient id="paint0_linear_1125_15617" x1="11.9985" y1="0.435547" x2="11.9985" y2="23.5615" gradientUnits="userSpaceOnUse">
<stop stop-color="#3580E3"/>
<stop offset="0.49" stop-color="#8579F3"/>
<stop offset="1" stop-color="#B578EF"/>
</linearGradient>
</defs>
</svg>
