<svg width="22" height="22" viewBox="0 0 22 22" fill="none" xmlns="http://www.w3.org/2000/svg">
<path d="M6.99844 9.3C7.09844 9.5 7.19844 9.5 7.39844 9.5C7.59844 9.5 7.69844 9.4 7.79844 9.3L12.4984 1.2C12.5984 1 12.5984 0.9 12.5984 0.8C12.4984 0.7 12.3984 0.6 12.2984 0.6C11.9984 0.6 11.8984 0.5 11.6984 0.5C11.4984 0.5 11.2984 0.5 11.0984 0.5C9.89844 0.5 8.69844 0.8 7.49844 1.2C6.29844 1.7 5.29844 2.3 4.29844 3.2C3.99844 3.4 3.89844 3.5 3.89844 3.6C3.89844 3.7 3.89844 3.9 3.99844 4L6.99844 9.3Z" fill="#737680"/>
<path opacity="0.9" d="M10.3992 7.09913C10.4992 7.19913 10.5992 7.29913 10.7992 7.29913H20.0992C20.2992 7.29913 20.3992 7.19913 20.4992 7.09913C20.5992 6.99913 20.5992 6.89913 20.4992 6.69913C19.8992 5.39913 18.9992 4.19913 17.8992 3.19913C16.7992 2.19913 15.4992 1.49913 14.1992 1.09913C14.0992 0.999132 13.8992 1.09913 13.7992 1.09913C13.6992 1.09913 13.5992 1.29913 13.4992 1.39913L10.3992 6.69913C10.2992 6.89913 10.2992 6.99913 10.3992 7.09913Z" fill="#737680"/>
<path opacity="0.5" d="M7.89922 13.3992C7.99922 13.2992 7.99922 13.0992 7.89922 12.9992L3.29922 4.89922C3.19922 4.79922 3.09922 4.69922 2.99922 4.69922C2.79922 4.69922 2.69922 4.79922 2.69922 4.89922C1.99922 5.79922 1.59922 6.79922 1.19922 7.79922C0.799219 8.79922 0.699219 9.89922 0.699219 11.0992C0.699219 11.4992 0.699219 11.7992 0.799219 12.1992C0.899219 12.5992 0.899219 12.8992 0.999219 13.1992C1.09922 13.3992 1.09922 13.4992 1.19922 13.4992C1.29922 13.5992 1.39922 13.5992 1.49922 13.5992H7.69922C7.79922 13.5992 7.89922 13.4992 7.89922 13.3992Z" fill="#737680"/>
<path opacity="0.6" d="M11.5988 14.7996C11.4988 14.6996 11.3988 14.5996 11.1988 14.5996H1.89883C1.69883 14.5996 1.59883 14.6996 1.49883 14.7996C1.39883 14.8996 1.39883 14.9996 1.49883 15.1996C2.09883 16.4996 2.99883 17.6996 3.99883 18.6996C5.09883 19.6996 6.29883 20.3996 7.69883 20.8996C7.79883 20.9996 7.99883 20.8996 8.09883 20.8996C8.19883 20.7996 8.29883 20.6996 8.39883 20.5996L11.4988 15.2996C11.5988 15.0996 11.5988 14.9996 11.5988 14.7996Z" fill="#737680"/>
<path opacity="0.8" d="M21.2992 10C21.1992 9.6 21.1992 9.3 21.0992 8.9C20.9992 8.7 20.9992 8.6 20.8992 8.6C20.7992 8.5 20.6992 8.5 20.4992 8.5H14.2992C14.0992 8.5 13.9992 8.6 13.8992 8.7C13.7992 8.8 13.7992 9 13.8992 9.1L18.5992 17.2C18.6992 17.4 18.7992 17.4 18.8992 17.5C18.9992 17.5 19.0992 17.4 19.1992 17.3C19.8992 16.4 20.2992 15.4 20.6992 14.4C21.0992 13.4 21.1992 12.3 21.1992 11.2C21.3992 10.6 21.3992 10.3 21.2992 10Z" fill="#737680"/>
<path opacity="0.7" d="M14.8984 12.7C14.7984 12.5 14.6984 12.5 14.5984 12.5C14.4984 12.5 14.2984 12.6 14.1984 12.7L9.49844 20.8C9.39844 21 9.39844 21.1 9.39844 21.2C9.49844 21.3 9.59844 21.4 9.69844 21.4C9.89844 21.5 10.0984 21.5 10.3984 21.5C10.6984 21.5 10.8984 21.5 11.0984 21.5C12.2984 21.5 13.4984 21.3 14.5984 20.8C15.6984 20.3 16.7984 19.7 17.7984 18.8C17.8984 18.7 17.9984 18.6 17.9984 18.5C17.9984 18.4 17.9984 18.2 17.8984 18.1L14.8984 12.7Z" fill="#737680"/>
</svg>
