<svg width="23" height="22" viewBox="0 0 23 22" fill="none" xmlns="http://www.w3.org/2000/svg">
<path d="M13.0616 21.4725C12.1283 21.4725 11.2641 21.3731 10.469 21.1744C9.67395 20.9756 8.93938 20.6343 8.26531 20.1503C8.07518 20.012 7.97148 19.8219 7.9542 19.5799C7.93691 19.338 8.02333 19.1219 8.21346 18.9318C8.35173 18.7935 8.51592 18.7157 8.70605 18.6985C8.89617 18.6812 9.06901 18.7244 9.22457 18.8281C9.77765 19.191 10.3696 19.4633 11.0005 19.6448C11.6314 19.8262 12.3184 19.917 13.0616 19.917C15.1702 19.917 16.9894 19.1478 18.519 17.6096C20.0486 16.0713 20.8135 14.2478 20.8135 12.1392C20.8135 10.0306 20.04 8.18981 18.4931 6.61697C16.9462 5.04413 15.1184 4.25771 13.0098 4.25771H12.206L13.5801 5.63179C13.7357 5.78734 13.8135 5.96882 13.8135 6.17623C13.8135 6.38364 13.7357 6.56512 13.5801 6.72067C13.4246 6.87623 13.2431 6.95401 13.0357 6.95401C12.8283 6.95401 12.6468 6.87623 12.4912 6.72067L9.79494 4.02438C9.70852 3.93796 9.64802 3.84722 9.61345 3.75216C9.57889 3.65709 9.5616 3.56635 9.5616 3.47993C9.5616 3.37623 9.57889 3.28117 9.61345 3.19475C9.64802 3.10833 9.70852 3.02191 9.79494 2.93549L12.4912 0.239193C12.6468 0.0836372 12.8283 0.00585938 13.0357 0.00585938C13.2431 0.00585938 13.4246 0.0836372 13.5801 0.239193C13.7357 0.394748 13.8135 0.57623 13.8135 0.783637C13.8135 0.991045 13.7357 1.17253 13.5801 1.32808L12.206 2.70216H13.0098C14.2888 2.70216 15.4943 2.95709 16.6264 3.46697C17.7585 3.97685 18.748 4.65956 19.5949 5.51512C20.4419 6.37067 21.1159 7.36882 21.6172 8.50956C22.1184 9.65031 22.369 10.8602 22.369 12.1392C22.369 14.6972 21.4573 16.8923 19.6338 18.7244C17.8104 20.5565 15.6196 21.4725 13.0616 21.4725ZM6.34679 17.5318C6.24308 17.5318 6.14802 17.5145 6.0616 17.4799C5.97518 17.4454 5.88876 17.3849 5.80234 17.2985L1.13568 12.6318C1.04926 12.5454 0.988764 12.4589 0.954196 12.3725C0.919628 12.2861 0.902344 12.191 0.902344 12.0873C0.902344 11.9836 0.919628 11.8886 0.954196 11.8022C0.988764 11.7157 1.04926 11.6293 1.13568 11.5429L5.80234 6.87623C5.88876 6.78981 5.97518 6.72932 6.0616 6.69475C6.14802 6.66018 6.24308 6.6429 6.34679 6.6429C6.45049 6.6429 6.54555 6.66018 6.63197 6.69475C6.71839 6.72932 6.80481 6.78981 6.89123 6.87623L11.5579 11.5429C11.6443 11.6293 11.7048 11.7157 11.7394 11.8022C11.7739 11.8886 11.7912 11.9836 11.7912 12.0873C11.7912 12.191 11.7739 12.2861 11.7394 12.3725C11.7048 12.4589 11.6443 12.5454 11.5579 12.6318L6.89123 17.2985C6.80481 17.3849 6.71839 17.4454 6.63197 17.4799C6.54555 17.5145 6.45049 17.5318 6.34679 17.5318Z" fill="url(#paint0_linear_1125_15599)"/>
<defs>
<linearGradient id="paint0_linear_1125_15599" x1="11.6357" y1="0.00585938" x2="11.6357" y2="21.4725" gradientUnits="userSpaceOnUse">
<stop stop-color="#3580E3"/>
<stop offset="0.49" stop-color="#8579F3"/>
<stop offset="1" stop-color="#B578EF"/>
</linearGradient>
</defs>
</svg>
