<svg width="20" height="24" viewBox="0 0 20 24" fill="none" xmlns="http://www.w3.org/2000/svg">
<path d="M9.1694 23.7428C8.92743 23.7428 8.72866 23.6607 8.57311 23.4965C8.41755 23.3323 8.33977 23.1292 8.33977 22.8872V21.6946H2.35088C1.7978 21.6946 1.31817 21.4916 0.911994 21.0854C0.505821 20.6792 0.302734 20.1996 0.302734 19.6465V4.3502C0.302734 3.77983 0.505821 3.29156 0.911994 2.88539C1.31817 2.47921 1.7978 2.27613 2.35088 2.27613H8.33977V1.10946C8.33977 0.867486 8.41755 0.6644 8.57311 0.500203C8.72866 0.336005 8.93607 0.253906 9.19533 0.253906C9.4373 0.253906 9.64039 0.336005 9.80459 0.500203C9.96879 0.6644 10.0509 0.867486 10.0509 1.10946V22.8872C10.0509 23.1292 9.96879 23.3323 9.80459 23.4965C9.64039 23.6607 9.42866 23.7428 9.1694 23.7428ZM2.35088 18.5576H8.33977V11.6872L2.35088 18.5576ZM11.762 21.6946V11.7909L17.6472 18.5317V4.3502H11.762V2.27613H17.6472C18.2176 2.27613 18.7058 2.47921 19.112 2.88539C19.5182 3.29156 19.7213 3.77983 19.7213 4.3502V19.6465C19.7213 20.1996 19.5182 20.6792 19.112 21.0854C18.7058 21.4916 18.2176 21.6946 17.6472 21.6946H11.762Z" fill="#5F6164"/>
</svg>
