<svg width="50" height="60" viewBox="0 0 50 60" fill="none" xmlns="http://www.w3.org/2000/svg">
<path d="M50 0H0V60H50V0Z" fill="url(#paint0_linear_17_3605)"/>
<path d="M33.5014 25.8041H34.6244V23.9041H32.7244V24.125L26.1144 20.308V19.0081H24.2014V20.308L17.5914 24.124V23.9031H15.6914V25.803H17.5914V25.603L24.2014 29.431V30.738H24.9834V38.665H24.2014V38.87L17.5914 35.0541V33.6631H15.6914V35.563H17.5914V35.444L24.2014 39.26V40.5601H26.1014V39.26L32.7114 35.444V35.649H34.6114V33.749H32.7114V33.9551L26.1014 30.1381V28.838H25.3194V20.911H26.1014V20.7061L32.7114 24.522V25.811L33.5014 25.8041ZM24.9874 28.8311H24.2014V29.031L17.5914 25.203V24.5121L24.2014 20.696V20.902H24.9834L24.9874 28.8311ZM26.1094 30.7311V30.525L32.7194 34.3411V35.047L26.1094 38.863V38.6581H25.3274V30.7311H26.1094Z" fill="white"/>
<defs>
<linearGradient id="paint0_linear_17_3605" x1="-8.54179e-07" y1="-1.86" x2="59.343" y2="49.1255" gradientUnits="userSpaceOnUse">
<stop stop-color="#3580E3"/>
<stop offset="0.49" stop-color="#8579F3"/>
<stop offset="1" stop-color="#B578EF"/>
</linearGradient>
</defs>
</svg>
