<svg width="101" height="60" viewBox="0 0 101 60" fill="none" xmlns="http://www.w3.org/2000/svg">
<path d="M84.7158 0H63.2958C61.4636 0.00238135 59.7071 0.731267 58.4116 2.02682C57.116 3.32236 56.3871 5.07882 56.3847 6.911V6.964H23.8387C22.007 6.96559 20.2507 7.69367 18.9551 8.98852C17.6595 10.2834 16.9304 12.0393 16.9277 13.871V13.927H13.0507C12.1615 13.9145 11.2805 14.0992 10.4711 14.4679C9.6617 14.8365 8.94406 15.3799 8.36974 16.059C7.7923 16.7827 7.3822 17.6253 7.16885 18.5262C6.9555 19.4272 6.94419 20.3642 7.13574 21.27L13.3227 53.522C13.6871 55.3092 14.644 56.9212 16.0386 58.0968C17.4331 59.2725 19.1836 59.9431 21.0067 60H84.9587C85.3388 59.9976 85.7179 59.9618 86.0917 59.893C86.1277 59.886 86.1627 59.883 86.1997 59.876C86.5692 59.8024 86.9313 59.696 87.2817 59.558L87.3117 59.545C88.1139 59.2277 88.8354 58.7358 89.4237 58.105C90.1154 57.4655 90.6677 56.6903 91.0462 55.8278C91.4248 54.9653 91.6214 54.0339 91.6237 53.092V6.911C91.6211 5.07942 90.8925 3.32357 89.5977 2.02816C88.3029 0.732759 86.5473 0.00343843 84.7158 0ZM87.0447 15.583V32.66L84.6957 20.405C84.3288 18.6176 83.37 17.0061 81.9743 15.8307C80.5787 14.6553 78.8275 13.9846 77.0037 13.927H21.5127V13.871C21.5127 13.2554 21.7573 12.6651 22.1926 12.2298C22.6278 11.7945 23.2182 11.55 23.8337 11.55H83.0117C84.0814 11.55 85.1072 11.9749 85.8635 12.7312C86.6198 13.4876 87.0447 14.5134 87.0447 15.583Z" fill="#5F6164"/>
</svg>
