<svg width="100" height="60" viewBox="0 0 100 60" fill="none" xmlns="http://www.w3.org/2000/svg">
<path d="M91.637 9.146V6.912C91.6341 5.07868 90.9041 3.32137 89.6072 2.02557C88.3103 0.729782 86.5523 0.00132177 84.719 0H63.3C61.4674 0.00211678 59.7104 0.730991 58.4145 2.02676C57.1185 3.32252 56.3894 5.07938 56.387 6.912V6.964H22.91C21.0786 6.96585 19.3227 7.69391 18.0273 8.98852C16.732 10.2831 16.0029 12.0386 16 13.87V53.094C16.0026 54.9255 16.7316 56.6811 18.0271 57.9758C19.3225 59.2704 21.0785 59.9984 22.91 60H84.719C86.5514 59.9995 88.3088 59.2721 89.6056 57.9774C90.9023 56.6827 91.6326 54.9264 91.636 53.094V17.313L91.66 9.413C91.6567 9.32463 91.6487 9.23651 91.636 9.149" fill="#5F6164"/>
</svg>
