<svg width="22" height="22" viewBox="0 0 22 22" fill="none" xmlns="http://www.w3.org/2000/svg">
<path d="M11 16.8042C11.2722 16.8042 11.5104 16.7021 11.7146 16.4979C11.9187 16.2937 12.0208 16.0556 12.0208 15.7833C12.0208 15.5111 11.9187 15.2729 11.7146 15.0687C11.5104 14.8646 11.2722 14.7625 11 14.7625C10.7278 14.7625 10.4896 14.8646 10.2854 15.0687C10.0812 15.2729 9.97917 15.5111 9.97917 15.7833C9.97917 16.0556 10.0812 16.2937 10.2854 16.4979C10.4896 16.7021 10.7278 16.8042 11 16.8042ZM10.125 12.6042H11.875V4.93333H10.125V12.6042ZM6.625 21.5L0.5 15.375V6.625L6.625 0.5H15.375L21.5 6.625V15.375L15.375 21.5H6.625Z" fill="#A248E9"/>
</svg>
