<svg width="49" height="48" viewBox="0 0 49 48" fill="none" xmlns="http://www.w3.org/2000/svg">
<path d="M5.8001 42.7992C4.73343 42.7992 3.80843 42.4076 3.0251 41.6242C2.24176 40.8409 1.8501 39.9159 1.8501 38.8492V10.4992H5.8001V38.8492H42.5001V42.7992H5.8001ZM12.8001 35.8492C11.7001 35.8492 10.7584 35.4576 9.9751 34.6742C9.19176 33.8909 8.8001 32.9492 8.8001 31.8492V6.69922C8.8001 5.59922 9.19176 4.65755 9.9751 3.87422C10.7584 3.09089 11.7001 2.69922 12.8001 2.69922H24.5001L27.8001 5.99922H43.2001C44.2668 5.99922 45.1918 6.39089 45.9751 7.17422C46.7584 7.95755 47.1501 8.89922 47.1501 9.99922V31.8492C47.1501 32.9492 46.7584 33.8909 45.9751 34.6742C45.1918 35.4576 44.2668 35.8492 43.2001 35.8492H12.8001Z" fill="#3580E3"/>
</svg>
