<svg width="80" height="81" viewBox="0 0 80 81" fill="none" xmlns="http://www.w3.org/2000/svg">
<path d="M37.9334 64.1025H42.9334V47.3525L49.7668 54.1859L53.2668 50.6859L40.2668 38.0192L27.4334 50.8525L30.9334 54.3525L37.9334 47.3525V64.1025ZM18.6001 74.2692C17.2668 74.2692 16.1001 73.7692 15.1001 72.7692C14.1001 71.7692 13.6001 70.6025 13.6001 69.2692V12.6025C13.6001 11.2692 14.1001 10.1025 15.1001 9.10254C16.1001 8.10254 17.2668 7.60254 18.6001 7.60254H48.6834L66.9334 25.8525V69.2692C66.9334 70.6025 66.4334 71.7692 65.4334 72.7692C64.4334 73.7692 63.2668 74.2692 61.9334 74.2692H18.6001ZM46.1834 28.1025H61.9334L46.1834 12.6025V28.1025Z" fill="#3580E3"/>
</svg>
