<svg width="48" height="49" viewBox="0 0 48 49" fill="none" xmlns="http://www.w3.org/2000/svg">
<path d="M11 44.9355C10.2 44.9355 9.5 44.6355 8.9 44.0355C8.3 43.4355 8 42.7355 8 41.9355V7.93555C8 7.13555 8.3 6.43555 8.9 5.83555C9.5 5.23555 10.2 4.93555 11 4.93555H29L40 15.8355V41.8355C40 42.6355 39.7 43.3355 39.1 43.9355C38.5 44.6355 37.8 44.9355 37 44.9355H11ZM27.5 17.2355H37L27.5 7.93555V17.2355Z" fill="#3580E3"/>
<!-- <path d="M13.9143 34.9355V27.6628H16.7836C17.3353 27.6628 17.8052 27.7682 18.1934 27.9789C18.5817 28.1872 18.8776 28.4772 19.0812 28.8489C19.2872 29.2182 19.3902 29.6444 19.3902 30.1273C19.3902 30.6103 19.286 31.0364 19.0777 31.4057C18.8693 31.775 18.5675 32.0627 18.1721 32.2686C17.7791 32.4746 17.3033 32.5776 16.7446 32.5776H14.9157V31.3453H16.496C16.7919 31.3453 17.0358 31.2944 17.2275 31.1926C17.4217 31.0885 17.5661 30.9453 17.6608 30.763C17.7578 30.5783 17.8064 30.3664 17.8064 30.1273C17.8064 29.8858 17.7578 29.6751 17.6608 29.4952C17.5661 29.3129 17.4217 29.1721 17.2275 29.0726C17.0334 28.9708 16.7872 28.9199 16.4889 28.9199H15.452V34.9355H13.9143ZM26.472 27.6628V34.9355H25.1439L21.9798 30.3581H21.9266V34.9355H20.3889V27.6628H21.7384L24.8776 32.2367H24.9415V27.6628H26.472ZM32.5649 30.0137C32.5152 29.8408 32.4453 29.6882 32.3554 29.5556C32.2654 29.4206 32.1553 29.307 32.0251 29.2147C31.8973 29.12 31.7505 29.0478 31.5848 28.998C31.4214 28.9483 31.2403 28.9235 31.0415 28.9235C30.6698 28.9235 30.3431 29.0158 30.0613 29.2005C29.782 29.3851 29.5642 29.6538 29.4079 30.0066C29.2517 30.3569 29.1736 30.7855 29.1736 31.2921C29.1736 31.7987 29.2505 32.2296 29.4044 32.5847C29.5583 32.9398 29.7761 33.2109 30.0578 33.3979C30.3395 33.5826 30.6721 33.6749 31.0557 33.6749C31.4037 33.6749 31.7008 33.6133 31.947 33.4902C32.1956 33.3648 32.385 33.1884 32.5152 32.9611C32.6478 32.7338 32.714 32.4651 32.714 32.155L33.0265 32.2012H31.1515V31.0435H34.1949V31.9597C34.1949 32.5989 34.0599 33.1481 33.79 33.6074C33.5202 34.0643 33.1485 34.4171 32.675 34.6657C32.2015 34.9119 31.6594 35.035 31.0486 35.035C30.3667 35.035 29.7678 34.8846 29.2517 34.584C28.7356 34.281 28.3331 33.8513 28.0443 33.2949C27.7578 32.7362 27.6146 32.0733 27.6146 31.3063C27.6146 30.7168 27.6998 30.1912 27.8703 29.7296C28.0431 29.2656 28.2846 28.8726 28.5947 28.5506C28.9049 28.2286 29.2659 27.9836 29.6778 27.8155C30.0898 27.6474 30.536 27.5634 31.0166 27.5634C31.4285 27.5634 31.8121 27.6238 32.1672 27.7445C32.5223 27.8629 32.8372 28.031 33.1118 28.2488C33.3888 28.4666 33.6148 28.7258 33.79 29.0265C33.9652 29.3248 34.0777 29.6538 34.1274 30.0137H32.5649Z" fill="white"/> -->
</svg>
