<svg width="20" height="21" viewBox="0 0 20 21" fill="none" xmlns="http://www.w3.org/2000/svg">
<path d="M10 0.187988C8.02219 0.187988 6.08879 0.774478 4.4443 1.87329C2.79981 2.97211 1.51809 4.53389 0.761209 6.36115C0.00433284 8.18841 -0.193701 10.1991 0.192152 12.1389C0.578004 14.0787 1.53041 15.8605 2.92894 17.2591C4.32746 18.6576 6.10929 19.61 8.0491 19.9958C9.98891 20.3817 11.9996 20.1837 13.8268 19.4268C15.6541 18.6699 17.2159 17.3882 18.3147 15.7437C19.4135 14.0992 20 12.1658 20 10.188C20 8.87477 19.7413 7.57441 19.2388 6.36115C18.7363 5.1479 17.9997 4.04551 17.0711 3.11692C16.1425 2.18833 15.0401 1.45174 13.8268 0.949193C12.6136 0.446646 11.3132 0.187988 10 0.187988ZM15 11.188H11V15.188H9V11.188H5V9.18799H9V5.18799H11V9.18799H15V11.188Z" fill="white"/>
</svg>
