<svg width="24" height="24" viewBox="0 0 24 24" fill="none" xmlns="http://www.w3.org/2000/svg">
<g clip-path="url(#clip0_1651_6053)">
<path d="M22.325 10.3L21.6749 8.84995L20.2 8.14995L21.6749 7.47495L22.325 6.02495L23.025 7.47495L24.475 8.14995L23.025 8.84995L22.325 10.3ZM19.15 5.59995L18.15 3.42495L15.975 2.39995L18.15 1.37495L19.15 -0.800049L20.1749 1.37495L22.35 2.39995L20.1749 3.42495L19.15 5.59995ZM8.67495 22.65C8.07495 22.65 7.56662 22.4291 7.14995 21.9874C6.73328 21.5458 6.52495 21.0083 6.52495 20.375H10.85C10.85 21.0083 10.6375 21.5458 10.2125 21.9874C9.78745 22.4291 9.27495 22.65 8.67495 22.65ZM4.52495 18.725V17.075H12.825V18.725H4.52495ZM4.64995 15.45C3.48328 14.7 2.55412 13.7583 1.86245 12.625C1.17078 11.4916 0.824951 10.2083 0.824951 8.77495C0.824951 6.64162 1.59995 4.79995 3.14995 3.24995C4.69995 1.69995 6.54162 0.924951 8.67495 0.924951C10.8083 0.924951 12.65 1.69995 14.2 3.24995C15.75 4.79995 16.525 6.64162 16.525 8.77495C16.525 10.2083 16.1833 11.4916 15.5 12.625C14.8166 13.7583 13.8833 14.7 12.7 15.45H4.64995Z" fill="#6F16B6"/>
</g>
<defs>
<clipPath id="clip0_1651_6053">
<rect width="24" height="24" fill="white"/>
</clipPath>
</defs>
</svg>
