<svg width="16" height="16" viewBox="0 0 16 16" fill="none" xmlns="http://www.w3.org/2000/svg">
<path d="M5.63268 11.2L7.99935 8.83336L10.366 11.2L11.1993 10.3667L8.83268 8.00002L11.1993 5.63336L10.366 4.80002L7.99935 7.16669L5.63268 4.80002L4.79935 5.63336L7.16602 8.00002L4.79935 10.3667L5.63268 11.2ZM7.99935 15.0834C7.02157 15.0834 6.10213 14.9 5.24102 14.5334C4.3799 14.1667 3.62713 13.6611 2.98268 13.0167C2.33824 12.3722 1.83268 11.6195 1.46602 10.7584C1.09935 9.89725 0.916016 8.9778 0.916016 8.00002C0.916016 7.01113 1.09935 6.08614 1.46602 5.22502C1.83268 4.36391 2.33824 3.61391 2.98268 2.97502C3.62713 2.33614 4.3799 1.83058 5.24102 1.45836C6.10213 1.08614 7.02157 0.900024 7.99935 0.900024C8.98824 0.900024 9.91324 1.08614 10.7743 1.45836C11.6355 1.83058 12.3855 2.33614 13.0243 2.97502C13.6632 3.61391 14.1688 4.36391 14.541 5.22502C14.9132 6.08614 15.0993 7.01113 15.0993 8.00002C15.0993 8.9778 14.9132 9.89725 14.541 10.7584C14.1688 11.6195 13.6632 12.3722 13.0243 13.0167C12.3855 13.6611 11.6355 14.1667 10.7743 14.5334C9.91324 14.9 8.98824 15.0834 7.99935 15.0834Z" fill="#6B78A1"/>
</svg>
