<svg width="18" height="21" viewBox="0 0 18 21" fill="none" xmlns="http://www.w3.org/2000/svg">
<path d="M16 2.18799H15V0.187988H13V2.18799H5V0.187988H3V2.18799H2C1.73786 2.18812 1.47833 2.24001 1.2363 2.34069C0.994268 2.44137 0.7745 2.58885 0.589606 2.77467C0.404713 2.96049 0.258334 3.181 0.15887 3.42353C0.0594061 3.66607 0.00881501 3.92585 0.00999999 4.18799L0 18.188C0 18.7184 0.210714 19.2271 0.585786 19.6022C0.960859 19.9773 1.46957 20.188 2 20.188H16C16.5299 20.1864 17.0377 19.9752 17.4125 19.6005C17.7872 19.2257 17.9984 18.7179 18 18.188V4.18799C17.9984 3.65804 17.7872 3.15025 17.4125 2.77552C17.0377 2.40079 16.5299 2.18957 16 2.18799ZM16 18.188H2V8.18799H16V18.188ZM16 6.18799H2V4.18799H16V6.18799ZM9 11.188H14V16.188H9V11.188Z" fill="#243654"/>
</svg>
