<svg width="28" height="28" viewBox="0 0 28 28" fill="none" xmlns="http://www.w3.org/2000/svg">
<g clip-path="url(#clip0_12_164)">
<path d="M20.4227 2.69382C20.4032 2.67476 20.3822 2.6573 20.3628 2.63983L19.0965 1.39656C19.0269 1.32828 18.8911 1.27271 18.7924 1.27271H8.29293C6.82442 1.27271 5.63086 2.44453 5.63086 3.88628V15.4584H7.71394V3.88628C7.71394 3.57824 7.97917 3.31783 8.29293 3.31783H17.497V7.0937C17.497 8.53545 18.6905 9.70727 20.159 9.70727H24.0082V24.1121C24.0082 24.4201 23.743 24.6805 23.4292 24.6805H8.29293C7.97917 24.6805 7.71394 24.4201 7.71394 24.1121V22.6719H5.63086V24.1121C5.63086 25.5538 6.82442 26.7257 8.29293 26.7257H23.4308C24.8993 26.7257 26.0929 25.5538 26.0929 24.1121V8.44018C26.0929 8.34332 26.0363 8.20995 25.9667 8.14167L24.7004 6.89681C24.681 6.87617 24.6632 6.85711 24.6422 6.83647L20.4227 2.69382ZM19.5817 7.0937V4.48171C19.5817 4.38486 19.6383 4.36263 19.7078 4.4309L22.8729 7.53829C22.9424 7.60657 22.9198 7.66214 22.8211 7.66214H20.1607C19.8469 7.66214 19.5817 7.40174 19.5817 7.0937Z" fill="#212122"/>
<path d="M18.0572 16.1396H2.60398C2.22229 16.1396 1.91016 16.4461 1.91016 16.8208V21.3096C1.91016 21.6844 2.22229 21.9924 2.60398 21.9924H18.0572C18.4389 21.9924 18.7511 21.6859 18.7511 21.3096V16.8208C18.7511 16.4461 18.4389 16.1396 18.0572 16.1396ZM8.51034 21.0842C8.49094 21.1 8.45859 21.1112 8.41492 21.1159C8.37126 21.1207 8.31142 21.1239 8.23864 21.1239C8.16909 21.1239 8.11572 21.1239 8.07691 21.1191C8.03809 21.1159 8.00736 21.1096 7.98472 21.1016C7.96208 21.0937 7.94429 21.0826 7.93297 21.0715C7.92165 21.0603 7.91033 21.0445 7.90224 21.0254L6.97229 19.3931L6.03264 21.0254C6.02132 21.0445 6.01 21.0603 5.99706 21.073C5.98413 21.0857 5.96634 21.0953 5.94369 21.1032C5.92105 21.1112 5.89032 21.1159 5.85151 21.1191C5.81269 21.1223 5.76094 21.1239 5.69625 21.1239C5.62509 21.1239 5.56848 21.1207 5.52805 21.1159C5.48762 21.1112 5.4585 21.1 5.44233 21.0842C5.42616 21.0683 5.42131 21.0461 5.42616 21.0191C5.43101 20.9921 5.4488 20.954 5.47629 20.9079L6.61649 19.0216L5.52805 17.1987C5.50217 17.1527 5.486 17.1146 5.47791 17.086C5.46983 17.0574 5.47468 17.0352 5.49247 17.0193C5.51026 17.0034 5.53937 16.9939 5.58304 16.9891C5.6267 16.9844 5.68493 16.9828 5.76094 16.9828C5.82563 16.9828 5.879 16.9828 5.91943 16.9876C5.95987 16.9907 5.99221 16.9955 6.01647 17.0034C6.04073 17.0114 6.0569 17.0209 6.06823 17.0352C6.07793 17.0495 6.09087 17.0638 6.10381 17.0812L7.00141 18.6167L7.89254 17.0812C7.90386 17.0638 7.91356 17.0495 7.92488 17.0352C7.9362 17.0209 7.95076 17.0114 7.97178 17.0034C7.99281 16.9955 8.0203 16.9907 8.0575 16.9876C8.0947 16.9844 8.14322 16.9828 8.20629 16.9828C8.2726 16.9828 8.32759 16.986 8.36964 16.9907C8.41169 16.9955 8.44242 17.0066 8.46021 17.0209C8.478 17.0352 8.48608 17.0574 8.48123 17.086C8.47638 17.1146 8.46182 17.1527 8.43595 17.1987L7.35074 19.0089L8.48123 20.9079C8.50873 20.954 8.52652 20.9921 8.53137 21.0191C8.53622 21.0461 8.52975 21.0683 8.51034 21.0842ZM11.4134 20.973C11.4085 21.0016 11.4021 21.0254 11.3924 21.0461C11.3827 21.0667 11.3713 21.081 11.3568 21.0905C11.3422 21.1 11.3261 21.1048 11.3066 21.1048H9.4597C9.40956 21.1048 9.36266 21.0889 9.31899 21.0556C9.27532 21.0222 9.25268 20.9651 9.25268 20.8825V17.0828C9.25268 17.0654 9.25753 17.0511 9.26562 17.0384C9.27371 17.0257 9.28988 17.0161 9.3109 17.0082C9.33193 17.0003 9.36104 16.9939 9.39824 16.9891C9.43544 16.9844 9.4791 16.9812 9.53086 16.9812C9.58261 16.9812 9.62951 16.9844 9.66509 16.9891C9.70067 16.9939 9.72978 17.0003 9.75081 17.0082C9.77183 17.0161 9.78801 17.0257 9.79609 17.0384C9.80418 17.0511 9.80903 17.0654 9.80903 17.0828V20.6316H11.3083C11.3277 20.6316 11.3438 20.6364 11.3584 20.6459C11.373 20.6554 11.3843 20.6697 11.394 20.6872C11.4037 20.7047 11.4102 20.7285 11.415 20.7587C11.4199 20.7888 11.4215 20.8238 11.4215 20.8666C11.4215 20.9095 11.4199 20.9444 11.415 20.973H11.4134ZM14.1693 20.4681C14.0965 20.6189 13.9978 20.746 13.8684 20.8507C13.7407 20.9555 13.5903 21.0334 13.4172 21.0873C13.2442 21.1397 13.0566 21.1667 12.856 21.1667C12.7153 21.1667 12.5859 21.1556 12.4662 21.1318C12.3466 21.108 12.2398 21.0794 12.146 21.0461C12.0522 21.0127 11.9746 20.9778 11.9099 20.9413C11.8468 20.9047 11.8015 20.8746 11.7773 20.8492C11.753 20.8238 11.7336 20.792 11.7223 20.7523C11.711 20.7126 11.7045 20.6602 11.7045 20.5951C11.7045 20.5491 11.7061 20.5094 11.711 20.4792C11.7158 20.449 11.7207 20.4236 11.7304 20.4046C11.7385 20.3855 11.7498 20.3728 11.7627 20.3649C11.7757 20.3569 11.7902 20.3538 11.808 20.3538C11.8387 20.3538 11.8808 20.3712 11.9358 20.4077C11.9908 20.4443 12.0619 20.4824 12.1476 20.5252C12.2334 20.5681 12.3369 20.6078 12.4598 20.6443C12.5811 20.6809 12.7218 20.6999 12.8803 20.6999C13.0016 20.6999 13.1116 20.684 13.2118 20.6523C13.3121 20.6205 13.3978 20.5761 13.4706 20.5173C13.5434 20.4586 13.5984 20.3871 13.6372 20.3029C13.676 20.2188 13.6954 20.1219 13.6954 20.014C13.6954 19.898 13.6679 19.798 13.6145 19.7154C13.5612 19.6329 13.49 19.5598 13.401 19.4979C13.3121 19.436 13.2118 19.3788 13.0986 19.3264C12.9854 19.274 12.8706 19.2216 12.7509 19.1676C12.6328 19.1137 12.5164 19.0533 12.4048 18.9882C12.2932 18.9231 12.1929 18.8453 12.104 18.7564C12.015 18.6675 11.9439 18.5627 11.8889 18.4436C11.8339 18.3245 11.8064 18.1816 11.8064 18.0133C11.8064 17.845 11.8387 17.6894 11.9018 17.5544C11.9649 17.421 12.0538 17.3083 12.1671 17.2162C12.2803 17.1257 12.4145 17.0558 12.5714 17.0082C12.7266 16.9606 12.8965 16.9367 13.0776 16.9367C13.1698 16.9367 13.2636 16.9447 13.3574 16.9606C13.4512 16.9764 13.5385 16.9971 13.6226 17.0241C13.7051 17.0511 13.7795 17.0796 13.8442 17.113C13.9089 17.1463 13.9509 17.1717 13.972 17.1924C13.993 17.213 14.0059 17.2289 14.0124 17.24C14.0189 17.2511 14.0237 17.267 14.0286 17.2845C14.0334 17.3019 14.0366 17.3242 14.0383 17.3496C14.0399 17.375 14.0415 17.4083 14.0415 17.448C14.0415 17.4861 14.0415 17.5195 14.0366 17.5496C14.0334 17.5798 14.0286 17.6036 14.0221 17.6243C14.0156 17.6449 14.0059 17.6592 13.9946 17.6687C13.9833 17.6783 13.9687 17.683 13.9542 17.683C13.9299 17.683 13.8927 17.6687 13.8426 17.6386C13.7924 17.6084 13.7294 17.5751 13.6566 17.5385C13.5838 17.502 13.4965 17.4671 13.3962 17.4369C13.2959 17.4067 13.1843 17.3909 13.0582 17.3909C12.9417 17.3909 12.8415 17.4067 12.7541 17.4369C12.6684 17.4671 12.5973 17.5084 12.5406 17.5592C12.484 17.61 12.442 17.6703 12.4145 17.7402C12.387 17.81 12.3724 17.8847 12.3724 17.9625C12.3724 18.0768 12.3999 18.1753 12.4533 18.2578C12.5067 18.3404 12.5795 18.4134 12.6684 18.4769C12.7574 18.5405 12.8593 18.5992 12.9741 18.6516C13.0889 18.704 13.2037 18.758 13.3234 18.812C13.4415 18.866 13.5579 18.9247 13.6728 18.9898C13.7876 19.0549 13.8895 19.1311 13.9784 19.2185C14.0674 19.3058 14.1402 19.409 14.1951 19.5297C14.2501 19.6488 14.2776 19.7901 14.2776 19.9536C14.2776 20.1458 14.242 20.3172 14.1693 20.4681Z" fill="#81BC56"/>
</g>
<defs>
<clipPath id="clip0_12_164">
<rect width="24.1818" height="25.4545" fill="white" transform="translate(1.91016 1.27271)"/>
</clipPath>
</defs>
</svg>
