<svg width="17" height="17" viewBox="0 0 17 17" fill="none" xmlns="http://www.w3.org/2000/svg">
<path d="M2.55865 16.6334C2.04139 16.6334 1.59403 16.4446 1.21658 16.0672C0.83912 15.6897 0.650391 15.2424 0.650391 14.7251V2.56259C0.650391 2.03135 0.83912 1.57701 1.21658 1.19955C1.59403 0.822091 2.04139 0.633362 2.55865 0.633362H14.7212C15.2524 0.633362 15.7067 0.822091 16.0842 1.19955C16.4617 1.57701 16.6504 2.03135 16.6504 2.56259V14.7251C16.6504 15.2424 16.4617 15.6897 16.0842 16.0672C15.7067 16.4446 15.2524 16.6334 14.7212 16.6334H2.55865ZM7.31881 12.3345L13.5469 6.04358L12.2887 4.74345L7.31881 9.73428L5.01212 7.4276L3.73296 8.72773L7.31881 12.3345Z" fill="#2EA090"/>
</svg>
