<svg width="48" height="48" viewBox="0 0 48 48" fill="none" xmlns="http://www.w3.org/2000/svg">
<path d="M9.2498 42.7C8.18314 42.7 7.25814 42.3083 6.4748 41.525C5.69147 40.7417 5.2998 39.8167 5.2998 38.75V9.25C5.2998 8.15 5.69147 7.20833 6.4748 6.425C7.25814 5.64167 8.18314 5.25 9.2498 5.25H28.6498V9.25H9.2498V38.75H38.7498V19.35H42.7498V38.75C42.7498 39.8167 42.3581 40.7417 41.5748 41.525C40.7915 42.3083 39.8498 42.7 38.7498 42.7H9.2498ZM16.0498 34.15V31.15H31.9998V34.15H16.0498ZM16.0498 27.8V24.8H31.9998V27.8H16.0498ZM16.0498 21.45V18.45H31.9998V21.45H16.0498ZM34.7998 17.85V13.25H30.1498V9.9H34.7998V5.25H38.0998V9.9H42.7498V13.25H38.0998V17.85H34.7998Z" fill="#3580E3"/>
</svg>
