<svg width="24" height="24" viewBox="0 0 24 24" fill="none" xmlns="http://www.w3.org/2000/svg">
<path d="M15.5 14H14.71L14.43 13.73C15.5266 12.4524 16.0855 10.7996 15.9894 9.11867C15.8934 7.43773 15.1498 5.85938 13.9148 4.715C12.6799 3.57061 11.0496 2.9492 9.36619 2.98124C7.68281 3.01327 6.07732 3.69625 4.88678 4.88679C3.69624 6.07733 3.01325 7.68283 2.98122 9.3662C2.94919 11.0496 3.5706 12.6799 4.71498 13.9149C5.85937 15.1498 7.43772 15.8934 9.11866 15.9895C10.7996 16.0855 12.4524 15.5266 13.73 14.43L14 14.71V15.5L19 20.49L20.49 19L15.5 14ZM9.49998 14C8.60997 14 7.73994 13.7361 6.99992 13.2416C6.2599 12.7471 5.68312 12.0443 5.34253 11.2221C5.00193 10.3998 4.91282 9.49501 5.08645 8.62209C5.26008 7.74918 5.68867 6.94735 6.318 6.31802C6.94734 5.68868 7.74916 5.2601 8.62208 5.08646C9.49499 4.91283 10.3998 5.00195 11.2221 5.34254C12.0443 5.68313 12.7471 6.25991 13.2416 6.99993C13.7361 7.73995 14 8.60998 14 9.5C14.0008 10.0912 13.8849 10.6767 13.659 11.223C13.4332 11.7693 13.1017 12.2657 12.6837 12.6837C12.2657 13.1018 11.7693 13.4332 11.223 13.6591C10.6767 13.8849 10.0912 14.0008 9.49998 14Z" fill="#243654"/>
</svg>
