<svg width="18" height="18" viewBox="0 0 18 18" fill="none" xmlns="http://www.w3.org/2000/svg">
<path d="M9 2C7.61553 2 6.26216 2.41055 5.11101 3.17972C3.95987 3.94889 3.06266 5.04214 2.53285 6.32122C2.00303 7.6003 1.86441 9.00777 2.13451 10.3656C2.4046 11.7235 3.07129 12.9708 4.05026 13.9497C5.02922 14.9287 6.2765 15.5954 7.63437 15.8655C8.99224 16.1356 10.3997 15.997 11.6788 15.4672C12.9579 14.9373 14.0511 14.0401 14.8203 12.889C15.5895 11.7379 16 10.3845 16 9C16.0008 8.08053 15.8203 7.16992 15.4688 6.32028C15.1173 5.47065 14.6017 4.69866 13.9515 4.0485C13.3013 3.39833 12.5294 2.88274 11.6797 2.53124C10.8301 2.17974 9.91948 1.99921 9 2ZM12.5 11.513L11.513 12.5L9 9.987L6.487 12.5L5.5 11.513L8.013 9L5.5 6.487L6.487 5.5L9 8.013L11.513 5.5L12.5 6.487L9.987 9L12.5 11.513Z" fill="#3580E3"/>
</svg>
