<svg width="18" height="18" viewBox="0 0 18 18" fill="none" xmlns="http://www.w3.org/2000/svg">
<path d="M13.8457 9.646C13.8735 9.4318 13.8872 9.216 13.8867 9C13.8881 8.78373 13.8721 8.56769 13.8387 8.354L15.2167 7.268C15.276 7.2179 15.3164 7.14902 15.3311 7.07279C15.3459 6.99657 15.3341 6.91759 15.2977 6.849L13.9997 4.566C13.9618 4.49745 13.9008 4.44462 13.8275 4.41696C13.7542 4.3893 13.6735 4.3886 13.5997 4.415L11.9777 5.075C11.6416 4.81149 11.2716 4.59422 10.8777 4.429L10.6337 2.683C10.6222 2.60316 10.5819 2.53029 10.5204 2.47814C10.4589 2.426 10.3804 2.3982 10.2997 2.4H7.69972C7.62139 2.40034 7.54586 2.42912 7.48717 2.481C7.42849 2.53288 7.39066 2.60431 7.38072 2.682L7.13272 4.428C6.73939 4.59434 6.36958 4.81152 6.03272 5.074L4.41072 4.414C4.33711 4.38587 4.25575 4.3857 4.18204 4.41353C4.10832 4.44136 4.04737 4.49525 4.01072 4.565L2.71072 6.848C2.66917 6.91526 2.65444 6.99569 2.66945 7.07331C2.68446 7.15093 2.7281 7.22007 2.79172 7.267L4.17372 8.354C4.09676 8.78085 4.09202 9.21759 4.15972 9.646L2.78272 10.733C2.72341 10.7831 2.68303 10.852 2.66829 10.9282C2.65355 11.0044 2.66535 11.0834 2.70172 11.152L3.99972 13.434C4.03762 13.5025 4.09867 13.5554 4.17195 13.583C4.24524 13.6107 4.32597 13.6114 4.39972 13.585L6.02172 12.925C6.35788 13.1885 6.72784 13.4058 7.12172 13.571L7.36572 15.317C7.37819 15.3964 7.41878 15.4687 7.48009 15.5206C7.54141 15.5726 7.61935 15.6007 7.69972 15.6H10.2997C10.3783 15.6008 10.4545 15.5723 10.5134 15.5203C10.5723 15.4682 10.6098 15.3961 10.6187 15.318L10.8627 13.572C11.2574 13.4083 11.6275 13.1909 11.9627 12.926L13.5847 13.586C13.6583 13.6141 13.7397 13.6143 13.8134 13.5865C13.8871 13.5586 13.9481 13.5048 13.9847 13.435L15.2847 11.152C15.3249 11.0844 15.3389 11.0043 15.3239 10.9271C15.309 10.8498 15.2662 10.7808 15.2037 10.733L13.8457 9.646ZM8.99972 11.475C8.50889 11.4813 8.02727 11.3416 7.61607 11.0735C7.20487 10.8055 6.88267 10.4212 6.69043 9.96952C6.49818 9.51787 6.44458 9.01926 6.53643 8.53707C6.62829 8.05487 6.86145 7.61089 7.20628 7.26154C7.5511 6.9122 7.99202 6.67328 8.47298 6.57516C8.95393 6.47704 9.4532 6.52415 9.90732 6.7105C10.3614 6.89685 10.7499 7.21402 11.0233 7.6217C11.2967 8.02937 11.4427 8.50914 11.4427 9C11.4449 9.65154 11.1892 10.2775 10.7315 10.7412C10.2738 11.2049 9.65122 11.4687 8.99972 11.475Z" fill="#243654"/>
</svg>
