<svg width="16" height="16" viewBox="0 0 16 16" fill="none" xmlns="http://www.w3.org/2000/svg">
<path d="M8.00065 1.33325C4.32065 1.33325 1.33398 4.31992 1.33398 7.99992C1.33398 11.6799 4.32065 14.6666 8.00065 14.6666C11.6807 14.6666 14.6673 11.6799 14.6673 7.99992C14.6673 4.31992 11.6807 1.33325 8.00065 1.33325ZM8.66732 12.6666H7.33398V11.3333H8.66732V12.6666ZM10.0473 7.49992L9.44732 8.11325C8.96732 8.59992 8.66732 8.99992 8.66732 9.99992H7.33398V9.66659C7.33398 8.93325 7.63398 8.26659 8.11398 7.77992L8.94065 6.93992C9.18732 6.69992 9.33398 6.36659 9.33398 5.99992C9.33398 5.26659 8.73398 4.66659 8.00065 4.66659C7.26732 4.66659 6.66732 5.26659 6.66732 5.99992H5.33398C5.33398 4.52659 6.52732 3.33325 8.00065 3.33325C9.47398 3.33325 10.6673 4.52659 10.6673 5.99992C10.6673 6.58659 10.4273 7.11992 10.0473 7.49992Z" fill="#5D1297"/>
</svg>
