<svg width="24" height="24" viewBox="0 0 24 24" fill="none" xmlns="http://www.w3.org/2000/svg">
<path d="M4.62539 13.475C4.22539 13.475 3.87956 13.3292 3.58789 13.0375C3.29622 12.7459 3.15039 12.4 3.15039 12C3.15039 11.5834 3.29622 11.2334 3.58789 10.95C3.87956 10.6667 4.22539 10.525 4.62539 10.525C5.02539 10.525 5.37539 10.6667 5.67539 10.95C5.97539 11.2334 6.12539 11.575 6.12539 11.975C6.12539 12.3917 5.97539 12.7459 5.67539 13.0375C5.37539 13.3292 5.02539 13.475 4.62539 13.475ZM12.0254 13.475C11.6087 13.475 11.2546 13.3292 10.9629 13.0375C10.6712 12.7459 10.5254 12.4 10.5254 12C10.5254 11.5834 10.6712 11.2334 10.9629 10.95C11.2546 10.6667 11.6004 10.525 12.0004 10.525C12.4171 10.525 12.7671 10.6667 13.0504 10.95C13.3337 11.2334 13.4754 11.575 13.4754 11.975C13.4754 12.3917 13.3337 12.7459 13.0504 13.0375C12.7671 13.3292 12.4254 13.475 12.0254 13.475ZM19.3754 13.475C18.9587 13.475 18.6046 13.3292 18.3129 13.0375C18.0212 12.7459 17.8754 12.4 17.8754 12C17.8754 11.5834 18.0212 11.2334 18.3129 10.95C18.6046 10.6667 18.9587 10.525 19.3754 10.525C19.7921 10.525 20.1462 10.6667 20.4379 10.95C20.7296 11.2334 20.8754 11.575 20.8754 11.975C20.8754 12.3917 20.7296 12.7459 20.4379 13.0375C20.1462 13.3292 19.7921 13.475 19.3754 13.475Z" fill="#243654"/>
</svg>
