<svg width="114" height="29" viewBox="0 0 114 29" fill="none" xmlns="http://www.w3.org/2000/svg">
<g clip-path="url(#clip0_1643_27298)">
<path d="M14.9121 6.4197L13.3787 7.95847C15.8879 10.4764 15.8879 14.5332 13.3787 17.0045C10.8695 19.5225 6.82682 19.5225 4.36406 17.0045C1.85483 14.4865 1.85483 10.4298 4.36406 7.95847L8.33701 3.97167L8.89462 3.41213V0.404541L2.90034 6.4197C-0.445297 9.77699 -0.445297 15.186 2.90034 18.5433C6.24598 21.9006 11.6362 21.9006 14.9121 18.5433C18.2578 15.1627 18.2578 9.77699 14.9121 6.4197Z" fill="#EE4C2C"/>
<path d="M11.915 6.04656C12.5309 6.04656 13.0302 5.54552 13.0302 4.92746C13.0302 4.3094 12.5309 3.80835 11.915 3.80835C11.2991 3.80835 10.7998 4.3094 10.7998 4.92746C10.7998 5.54552 11.2991 6.04656 11.915 6.04656Z" fill="#EE4C2C"/>
<path d="M30.409 14.1136H27.83V20.7582H25.8784V1.8501C25.8784 1.8501 30.3393 1.8501 30.6181 1.8501C35.5668 1.8501 37.9367 4.29813 37.9367 7.72537C38.0064 11.9453 35.0789 14.1136 30.409 14.1136ZM30.6181 3.73857C30.409 3.73857 27.8997 3.73857 27.8997 3.73857V12.4349L30.5484 12.365C34.1031 12.295 36.0547 10.8962 36.0547 7.95852C36.0547 5.2074 34.1031 3.73857 30.6181 3.73857Z" fill="white"/>
<path d="M46.6725 20.6881L45.5572 23.6957C44.3026 27.053 42.9783 28.0322 41.0964 28.0322C40.0509 28.0322 39.2842 27.7524 38.4478 27.4027L39.0054 25.6541C39.6327 26.0038 40.3297 26.2836 41.0964 26.2836C42.1419 26.2836 42.9086 25.724 43.9541 23.0662L44.8602 20.6182L39.4933 6.95581H41.5146L45.836 18.3799L50.0878 6.95581H52.0394L46.6725 20.6881Z" fill="white"/>
<path d="M58.4052 3.73846V20.828H56.4536V3.73846H49.832V1.91992H64.9803V3.73846C64.9571 3.73846 58.4052 3.73846 58.4052 3.73846Z" fill="white"/>
<path d="M70.4868 21.1778C66.6533 21.1778 63.8652 18.3101 63.8652 13.9037C63.8652 9.49721 66.7927 6.55957 70.6959 6.55957C74.5992 6.55957 77.3175 9.42725 77.3175 13.8337C77.2478 18.2402 74.3204 21.1778 70.4868 21.1778ZM70.5565 8.30816C67.6291 8.30816 65.7472 10.6163 65.7472 13.9037C65.7472 17.261 67.6988 19.5691 70.6262 19.5691C73.5537 19.5691 75.4356 17.261 75.4356 13.9736C75.4356 10.5464 73.484 8.30816 70.5565 8.30816Z" fill="white"/>
<path d="M81.9874 20.828H80.1055V6.95579L81.9874 6.53613V9.47378C82.8935 7.72518 84.2178 6.53613 86.03 6.53613C86.9362 6.53613 87.7726 6.81591 88.4696 7.16563L87.9817 8.91422C87.3544 8.5645 86.6573 8.28472 85.8906 8.28472C84.4269 8.28472 83.1026 9.40382 81.9874 11.8519V20.828Z" fill="white"/>
<path d="M95.8118 21.1778C91.6297 21.1778 89.0508 18.1702 89.0508 13.9037C89.0508 9.56715 91.9085 6.55957 95.8118 6.55957C97.4846 6.55957 98.9483 6.97923 100.133 7.74861L99.6453 9.42726C98.5998 8.72782 97.2755 8.30816 95.8118 8.30816C92.8146 8.30816 91.0024 10.5463 91.0024 13.8337C91.0024 17.191 92.954 19.4292 95.8815 19.4292C97.2755 19.4292 98.6695 19.0095 99.715 18.3101L100.133 20.0587C98.8786 20.7581 97.4149 21.1778 95.8118 21.1778Z" fill="white"/>
<path d="M111.657 20.8281V11.852C111.657 9.40394 110.681 8.35478 108.729 8.35478C107.126 8.35478 105.593 9.19411 104.478 10.3132V20.8281H102.596V0.451153L104.478 0.0314941C104.478 0.0314941 104.478 8.72782 104.478 8.79776C105.941 7.32895 107.754 6.62951 109.287 6.62951C111.936 6.62951 113.608 8.3781 113.608 11.3857V20.8514H111.657V20.8281Z" fill="white"/>
</g>
<defs>
<clipPath id="clip0_1643_27298">
<rect width="113.217" height="28.0241" fill="white" transform="translate(0.391113 0.0314941)"/>
</clipPath>
</defs>
</svg>
