<svg width="154" height="52" viewBox="0 0 154 52" fill="none" xmlns="http://www.w3.org/2000/svg">
<path d="M38.1727 14.4722H14.0752V37.5615H38.1727V14.4722Z" fill="url(#paint0_linear_1643_27280)"/>
<path d="M38.0106 14.4722H13.9131V37.5615H38.0106V14.4722Z" fill="url(#paint1_linear_1643_27280)"/>
<path d="M53.2887 21.6759H48.8992V33.7803H46.4708V21.6759H42.1191V19.7041H53.2887V21.6759Z" fill="#425066"/>
<path d="M56.2031 33.9739C54.7191 33.9739 53.512 33.5051 52.5815 32.5674C51.6511 31.6297 51.1874 30.3812 51.1903 28.8219V28.5304C51.174 27.563 51.3812 26.6049 51.7958 25.7307C52.1685 24.9439 52.7566 24.2787 53.4919 23.8124C54.2249 23.3526 55.0752 23.1146 55.9404 23.1269C57.365 23.1269 58.4661 23.5809 59.2436 24.4889C60.0212 25.3969 60.41 26.6832 60.41 28.3479V29.2937H53.5632C53.5907 30.06 53.8988 30.7894 54.429 31.3434C54.6793 31.5924 54.9777 31.7878 55.3061 31.9175C55.6345 32.0472 55.9859 32.1086 56.3388 32.0978C56.8518 32.1094 57.3599 31.9969 57.8199 31.7698C58.28 31.5428 58.6783 31.2079 58.981 30.7937L60.2475 32.0021C59.8272 32.6276 59.2479 33.1299 58.5692 33.4576C57.8315 33.8117 57.0212 33.9885 56.2031 33.9739ZM55.9226 25.0119C55.6296 25.0007 55.3378 25.0548 55.0683 25.1702C54.7988 25.2857 54.5584 25.4597 54.3645 25.6795C53.931 26.2192 53.6669 26.8751 53.6054 27.5645H58.0906V27.4065C58.0394 26.6209 57.8302 26.0245 57.4607 25.6261C57.2648 25.4176 57.0255 25.2546 56.7598 25.1485C56.494 25.0424 56.2083 24.9957 55.9226 25.0119Z" fill="#425066"/>
<path d="M64.4032 23.3184L64.4722 24.5291C64.8366 24.0756 65.3013 23.713 65.8297 23.4697C66.3581 23.2264 66.9358 23.1091 67.5173 23.127C69.6957 23.127 70.8049 24.374 70.845 26.8681V33.7804H68.4944V27.0038C68.4944 26.3362 68.352 25.8488 68.0648 25.5283C67.7777 25.2079 67.308 25.0498 66.6581 25.0498C66.2181 25.0355 65.7835 25.1496 65.4072 25.378C65.031 25.6064 64.7293 25.9393 64.539 26.3362V33.7804H62.1885V23.3206L64.4032 23.3184Z" fill="#425066"/>
<path d="M78.4682 30.9384C78.4762 30.7472 78.4324 30.5574 78.3415 30.389C78.2507 30.2205 78.116 30.0798 77.9518 29.9814C77.4157 29.6945 76.8358 29.4982 76.2356 29.4006C75.5448 29.2684 74.8722 29.0539 74.2323 28.7619C73.06 28.1966 72.4739 27.3754 72.4739 26.2983C72.4714 25.8578 72.5734 25.423 72.7715 25.0296C72.9696 24.6362 73.2582 24.2953 73.6135 24.035C74.3748 23.4296 75.3393 23.127 76.5072 23.127C77.7581 23.127 78.7687 23.4363 79.5389 24.055C79.9074 24.3366 80.2042 24.7013 80.405 25.1194C80.6058 25.5374 80.7048 25.9971 80.6941 26.4607H78.3458C78.35 26.2476 78.307 26.0361 78.2201 25.8415C78.1331 25.6468 78.0043 25.4738 77.8427 25.3346C77.4695 25.0234 76.9925 24.8645 76.5072 24.8895C76.0589 24.87 75.6162 24.9956 75.2451 25.2478C75.0905 25.3542 74.9647 25.4973 74.8792 25.6644C74.7937 25.8315 74.7512 26.0172 74.7554 26.2048C74.7491 26.3718 74.7869 26.5375 74.8651 26.6851C74.9432 26.8328 75.059 26.9573 75.2006 27.046C75.5033 27.2463 76.1154 27.4466 77.037 27.6514C77.7892 27.7964 78.519 28.0403 79.2072 28.3769C79.6774 28.6081 80.0806 28.9559 80.378 29.3872C80.6437 29.8162 80.7769 30.314 80.7609 30.8182C80.7687 31.2661 80.666 31.7089 80.4617 32.1076C80.2575 32.5063 79.9581 32.8484 79.5901 33.1038C78.811 33.6869 77.7871 33.9784 76.525 33.9784C75.7362 33.9929 74.9537 33.8349 74.2323 33.5155C73.6066 33.2391 73.0679 32.7975 72.6742 32.2381C72.31 31.7274 72.1139 31.116 72.1133 30.4888H74.3971C74.399 30.7356 74.4564 30.9787 74.5651 31.2002C74.6737 31.4217 74.8308 31.6159 75.0247 31.7685C75.4731 32.085 76.0147 32.2418 76.5628 32.2136C77.1816 32.2136 77.652 32.0956 77.9741 31.8597C78.1269 31.7597 78.2522 31.6229 78.3385 31.462C78.4248 31.301 78.4694 31.121 78.4682 30.9384Z" fill="#425066"/>
<path d="M81.9901 28.4526C81.9749 27.4949 82.1838 26.5468 82.6 25.6841C82.973 24.8984 83.5681 24.2392 84.3117 23.788C85.0783 23.3362 85.955 23.1051 86.8448 23.1203C88.256 23.1203 89.4023 23.5743 90.2838 24.4823C91.1652 25.3903 91.6401 26.5958 91.7083 28.0987L91.7195 28.6507C91.7354 29.6046 91.5321 30.5495 91.1252 31.4125C90.7557 32.1948 90.1633 32.8506 89.4223 33.2975C88.6479 33.752 87.7626 33.9831 86.8648 33.9651C85.3809 33.9651 84.1989 33.474 83.3189 32.4918C82.439 31.5097 81.9938 30.1996 81.9834 28.5616L81.9901 28.4526ZM84.3406 28.6573C84.3406 29.7315 84.5632 30.5742 85.0084 31.1855C85.2268 31.4705 85.5081 31.7011 85.8304 31.8594C86.1528 32.0176 86.5073 32.0991 86.8664 32.0976C87.2255 32.0961 87.5794 32.0116 87.9004 31.8507C88.2214 31.6897 88.5008 31.4567 88.7167 31.1699C89.1619 30.5512 89.3845 29.6454 89.3845 28.4526C89.3845 27.3962 89.1575 26.5587 88.7034 25.94C88.4904 25.6535 88.2137 25.4205 87.895 25.2595C87.5764 25.0985 87.2246 25.0139 86.8676 25.0124C86.5105 25.0108 86.1581 25.0925 85.8381 25.2508C85.5181 25.4091 85.2393 25.6397 85.024 25.9244C84.5669 26.5342 84.3391 27.4452 84.3406 28.6573Z" fill="#425066"/>
<path d="M98.7883 25.466C98.4719 25.4138 98.1518 25.3878 97.8312 25.3881C96.7538 25.3881 96.0282 25.8005 95.6543 26.6254V33.7804H93.3037V23.3206H95.5474L95.6075 24.4912C96.1729 23.5832 96.9594 23.1292 97.967 23.1292C98.2497 23.1206 98.5315 23.1659 98.7972 23.2627L98.7883 25.466Z" fill="#425066"/>
<path d="M108.618 27.816H102.947V33.7803H100.498V19.7041H109.444V21.6759H102.944V25.862H108.618V27.816Z" fill="#425066"/>
<path d="M113.257 33.7804H110.906V19.6731H113.257V33.7804Z" fill="#425066"/>
<path d="M114.977 28.4526C114.962 27.4948 115.171 26.5468 115.587 25.6841C115.96 24.8984 116.555 24.2392 117.299 23.788C118.065 23.3364 118.942 23.1053 119.832 23.1203C121.244 23.1203 122.391 23.5743 123.271 24.4823C124.151 25.3903 124.626 26.5958 124.698 28.0987V28.6506C124.716 29.6039 124.516 30.5488 124.112 31.4125C123.743 32.1952 123.151 32.8512 122.409 33.2974C121.635 33.752 120.75 33.9831 119.852 33.9651C118.377 33.9651 117.196 33.474 116.308 32.4918C115.421 31.5096 114.976 30.1996 114.973 28.5616L114.977 28.4526ZM117.328 28.6573C117.328 29.7315 117.55 30.5742 117.995 31.1855C118.204 31.4801 118.484 31.718 118.808 31.8773C119.132 32.0367 119.491 32.1125 119.852 32.0979C120.214 32.1121 120.573 32.0344 120.897 31.8721C121.221 31.7099 121.499 31.4683 121.704 31.1699C122.149 30.5512 122.372 29.6454 122.372 28.4526C122.372 27.3962 122.144 26.5587 121.688 25.94C121.475 25.6535 121.198 25.4205 120.88 25.2595C120.561 25.0985 120.209 25.0138 119.852 25.0123C119.495 25.0108 119.143 25.0925 118.823 25.2508C118.503 25.4091 118.224 25.6397 118.009 25.9244C117.555 26.5342 117.328 27.4452 117.328 28.6573Z" fill="#425066"/>
<path d="M135.311 30.5423L136.976 23.3184H139.266L136.415 33.7781H134.481L132.237 26.5943L130.031 33.7781H128.097L125.234 23.3184H127.538L129.23 30.4644L131.378 23.3184H133.147L135.311 30.5423Z" fill="#425066"/>
<defs>
<linearGradient id="paint0_linear_1643_27280" x1="14.0752" y1="26.0157" x2="38.1727" y2="26.0157" gradientUnits="userSpaceOnUse">
<stop stop-color="#FF6F00"/>
<stop offset="1" stop-color="#FFA800"/>
</linearGradient>
<linearGradient id="paint1_linear_1643_27280" x1="13.9131" y1="26.0157" x2="38.0106" y2="26.0157" gradientUnits="userSpaceOnUse">
<stop stop-color="#FF6F00"/>
<stop offset="1" stop-color="#FFA800"/>
</linearGradient>
</defs>
</svg>
