<svg width="108" height="27" viewBox="0 0 108 27" fill="none" xmlns="http://www.w3.org/2000/svg">
<g clip-path="url(#clip0_1643_27314)">
<path d="M26.22 12.5713C26.1691 12.5713 26.1182 12.5713 26.0674 12.5713L21.54 4.33046C21.6417 4.17785 21.6417 4.02525 21.6417 3.82177C21.6417 3.21133 21.133 2.75351 20.5735 2.75351C20.2682 2.75351 19.963 2.90612 19.8104 3.10959L10.8574 1.27829C10.8065 0.718724 10.3487 0.311768 9.78911 0.311768C9.17868 0.311768 8.72085 0.820463 8.72085 1.38003C8.72085 1.58351 8.77172 1.73612 8.82259 1.88872L1.85346 11.91C1.75172 11.91 1.64998 11.8592 1.54824 11.8592C0.937806 11.8592 0.47998 12.3679 0.47998 12.9274C0.47998 13.5379 0.988676 13.9957 1.54824 13.9957H1.59911L5.36346 23.3048C5.31259 23.4574 5.26172 23.61 5.26172 23.7626C5.26172 24.3731 5.77042 24.8309 6.32998 24.8309C6.6352 24.8309 6.94042 24.6783 7.09302 24.4748L18.3861 25.5939C18.4878 26.0518 18.9456 26.4079 19.4543 26.4079C20.0648 26.4079 20.5226 25.8992 20.5226 25.3396C20.5226 25.0852 20.4208 24.8309 20.2682 24.6274L25.9656 14.7079C26.0165 14.7079 26.0674 14.7079 26.1691 14.7079C26.7795 14.7079 27.2374 14.1992 27.2374 13.6396C27.2882 13.08 26.8304 12.5713 26.22 12.5713ZM19.7087 4.48307C19.8613 4.63568 20.0139 4.78829 20.2174 4.83916L18.4878 17.76C18.3861 17.76 18.2843 17.8109 18.1826 17.8618L8.77172 9.72264C8.77172 9.6209 8.82259 9.51916 8.82259 9.41742C8.82259 9.36655 8.82259 9.26481 8.82259 9.21394L19.7087 4.48307ZM25.1517 13.9957L19.3526 17.9635C19.3017 17.9126 19.2509 17.9126 19.2 17.8618L20.9804 4.83916L25.4061 12.9783C25.2535 13.1818 25.1517 13.4361 25.1517 13.6905C25.1009 13.7922 25.1517 13.8939 25.1517 13.9957ZM7.60172 8.34916C7.09302 8.4509 6.68607 8.85785 6.68607 9.41742V9.46829L2.81998 11.7574L8.82259 3.16046L7.60172 8.34916ZM8.00868 10.4857C8.16128 10.4348 8.31389 10.3839 8.41563 10.3331L17.7248 18.4213C17.6739 18.5231 17.6739 18.6757 17.6739 18.8283V18.8792L7.24563 23.1522C7.09302 22.9487 6.83868 22.7452 6.58433 22.6944L8.00868 10.4857ZM17.9282 19.5405C18.0809 19.6931 18.2843 19.7948 18.4878 19.8457L18.9965 24.3731C18.793 24.4748 18.5895 24.6783 18.4878 24.8818L7.55085 23.8135L17.9282 19.5405ZM19.2508 19.7948C19.6069 19.6422 19.8613 19.2352 19.8613 18.8283C19.8613 18.7266 19.8613 18.6248 19.8104 18.5739L25.1008 14.9622L19.7595 24.2205L19.2508 19.7948ZM19.5052 3.7709L8.4665 8.60351C8.41563 8.55264 8.36476 8.55264 8.36476 8.50177L9.78911 2.49916H9.83998C10.2469 2.49916 10.5522 2.29568 10.7556 1.99046L19.5052 3.7709ZM2.66737 12.9274C2.66737 12.8765 2.66737 12.7748 2.66737 12.7239L7.04215 10.1296C7.14389 10.2313 7.24563 10.2822 7.34737 10.3331L5.92302 22.5418L2.36215 13.7413C2.51476 13.5379 2.66737 13.2835 2.66737 12.9274Z" fill="white"/>
<path d="M39.5479 17.6583V9.87522C39.5479 6.11087 42.3965 4.68652 46.11 4.68652C49.7726 4.68652 52.6722 6.11087 52.6722 9.87522V17.6583C52.6722 21.4226 49.7726 22.847 46.11 22.847C42.3965 22.847 39.5479 21.4226 39.5479 17.6583ZM51.0444 9.87522C51.0444 7.12826 49.2131 5.90739 46.11 5.90739C43.007 5.90739 41.1757 7.17913 41.1757 9.87522V17.6583C41.1757 20.4052 43.007 21.6261 46.11 21.6261C49.2131 21.6261 51.0444 20.3544 51.0444 17.6583V9.87522Z" fill="white"/>
<path d="M68.7977 21.7786L59.2343 7.63687V22.1347C59.2343 22.4908 58.8273 22.6943 58.4204 22.6943C58.0134 22.6943 57.6064 22.5417 57.6064 22.1347V5.246C57.6064 4.83904 58.0134 4.7373 58.4204 4.7373C59.0308 4.7373 59.4377 5.34774 59.743 5.7547L69.1538 19.7947V5.246C69.1538 4.88991 69.5608 4.7373 69.9678 4.7373C70.3747 4.7373 70.7817 4.88991 70.7817 5.246V22.1347C70.7817 22.4908 70.3747 22.6943 69.9678 22.6943C69.4591 22.6943 69.103 22.1856 68.7977 21.7786Z" fill="white"/>
<path d="M87.1107 21.7786L77.5473 7.63687V22.1347C77.5473 22.4908 77.1403 22.6943 76.7333 22.6943C76.3264 22.6943 75.9194 22.5417 75.9194 22.1347V5.246C75.9194 4.83904 76.3264 4.7373 76.7333 4.7373C77.3438 4.7373 77.7507 5.34774 78.056 5.7547L87.4668 19.7947V5.246C87.4668 4.88991 87.8738 4.7373 88.2807 4.7373C88.6877 4.7373 89.0946 4.88991 89.0946 5.246V22.1347C89.0946 22.4908 88.6877 22.6943 88.2807 22.6943C87.8229 22.6943 87.416 22.1856 87.1107 21.7786Z" fill="white"/>
<path d="M99.2177 14.8604L94.3851 21.8804C94.1816 22.2365 93.8764 22.6943 93.4186 22.6943C93.0116 22.6943 92.5029 22.44 92.5029 22.0839C92.5029 21.9822 92.5538 21.8804 92.6555 21.7787L98.2512 13.6904L92.7573 5.65305C92.6047 5.50044 92.5538 5.34783 92.5538 5.19522C92.5538 4.89 92.9608 4.68652 93.4694 4.68652C93.9273 4.68652 94.2325 5.14435 94.4868 5.55131L99.2177 12.5204L103.949 5.55131C104.203 5.19522 104.508 4.68652 104.966 4.68652C105.475 4.68652 105.882 4.89 105.882 5.19522C105.882 5.34783 105.831 5.50044 105.678 5.65305L100.133 13.6904L105.78 21.7787C105.831 21.8804 105.932 21.9822 105.932 22.0839C105.932 22.44 105.475 22.6943 105.017 22.6943C104.508 22.6943 104.254 22.1857 104.05 21.8804L99.2177 14.8604Z" fill="white"/>
<path d="M20.9805 4.83911L25.4062 12.9782C25.2536 13.1817 25.1518 13.4361 25.1518 13.6904C25.1518 13.7922 25.1518 13.8939 25.2027 13.9956L19.4036 17.9635C19.3527 17.9126 19.3018 17.9126 19.251 17.8617L20.9805 4.83911Z" fill="#545554"/>
<path d="M19.251 19.7948C19.6071 19.6422 19.8614 19.2352 19.8614 18.8282C19.8614 18.7265 19.8614 18.6248 19.8105 18.5739L25.101 14.9622L19.7597 24.2204L19.251 19.7948Z" fill="#3E3E3D"/>
<path d="M17.9282 19.5405C18.0808 19.6931 18.2843 19.7949 18.4877 19.8457L18.9964 24.3731C18.793 24.4749 18.5895 24.6784 18.4877 24.8818L7.55078 23.8136L17.9282 19.5405Z" fill="#4D4C4D"/>
<path d="M8.00882 10.4856C8.16143 10.4347 8.31404 10.3839 8.41578 10.333L17.7249 18.4213C17.674 18.523 17.674 18.6756 17.674 18.8282V18.8791L7.24578 23.1521C7.09317 22.9487 6.83882 22.7452 6.58447 22.6943L8.00882 10.4856Z" fill="#5D5D5D"/>
<path d="M2.66752 12.9275C2.66752 12.8766 2.66752 12.7749 2.66752 12.724L7.0423 10.1296C7.14404 10.2314 7.24578 10.2822 7.34752 10.3331L5.92317 22.5418L2.3623 13.7414C2.51491 13.5379 2.66752 13.2836 2.66752 12.9275Z" fill="#4D4C4D"/>
<path d="M7.60156 8.3491C7.09287 8.45084 6.68591 8.85779 6.68591 9.41736V9.46823L2.81982 11.7574L8.82243 3.1604L7.60156 8.3491Z" fill="#3E3E3D"/>
<path d="M19.5052 3.77091L8.46649 8.60352C8.41562 8.55265 8.36475 8.55265 8.36475 8.50178L9.78909 2.49917H9.83996C10.2469 2.49917 10.5521 2.2957 10.7556 1.99048L19.5052 3.77091Z" fill="#545554"/>
<path d="M19.7084 4.48315C19.861 4.63576 20.0137 4.78837 20.2171 4.83924L18.4876 17.7601C18.3858 17.7601 18.2841 17.811 18.1824 17.8618L8.77148 9.72272C8.77148 9.62098 8.82235 9.51924 8.82235 9.4175C8.82235 9.36663 8.82235 9.26489 8.82235 9.21402L19.7084 4.48315Z" fill="#717272"/>
</g>
<defs>
<clipPath id="clip0_1643_27314">
<rect width="106.826" height="26.4522" fill="white" transform="translate(0.378418 0.260986)"/>
</clipPath>
</defs>
</svg>
