<svg width="32" height="32" viewBox="0 0 32 32" fill="none" xmlns="http://www.w3.org/2000/svg">
<path d="M17 9.99985
L10.50182 11.29948
C10.13883 11.37208 9.95733 11.40838 9.80952 11.49665
C9.67886 11.57469 9.56772 11.68152 9.4846 11.80901
C9.39057 11.95321 9.34714 12.13314 9.26028 12.49299
L6 25.9998
M6 25.9998
L19.5069 22.7396
C19.8667 22.6527 20.0466 22.6093 20.1908 22.5153
C20.3183 22.4321 20.4252 22.321 20.5032 22.1903
C20.5915 22.0425 20.6278 21.861 20.7004 21.498
L22 14.9998
M6 25.9998
L13.586 17.4138
M24.8686 11.86848
L20.1314 7.13122
C19.7354 6.7352 19.5373 6.53719 19.309 6.46301
C19.1082 6.39775 19.8918 6.39775 18.691 6.46301
C18.4627 6.53719 18.2646 6.7352 17.8686 7.13122
L17.1314 7.86848
C16.7354 8.2645 16.5373 8.4625 16.4632 8.69083
C16.3979 8.89168 16.3979 9.10802 16.4632 9.30887
C16.5373 9.53719 16.7354 9.7352 17.1314 10.13122
L21.8686 14.8685
C22.2646 15.2645 22.4627 15.4625 22.691 15.5367
C22.8918 15.6019 23.1082 15.6019 23.309 15.5367
C23.5373 15.4625 23.7354 15.2645 24.1314 14.8685
L24.8686 14.1312
C25.2646 13.7352 25.4627 13.53719 25.5368 13.30887
C25.6021 13.10802 25.6021 12.89168 25.5368 12.69083
C25.4627 12.4625 25.2646 12.2645 24.8686 11.86848Z
M15 14.9998
C16.1046 14.9998 17 15.8953 17 16.9998
C17 18.1044 16.1046 18.9998 15 18.9998
C13.89543 18.9998 13 18.1044 13 16.9998
C13 17.8953 13.89543 14.9998 15 14.9998Z" stroke="#737680" stroke-width="2" stroke-linecap="round" stroke-linejoin="round"/>
</svg>