<svg width="32" height="32" viewBox="0 0 32 32" fill="none" xmlns="http://www.w3.org/2000/svg">
<rect width="32" height="32" fill="#B5B5B5" rx="7px" ry="7px"></rect>
<path d="M25.3 6.7C24.8 6.2 24.3 6 23.6 6H8.4C7.8 6 7.2 6.2 6.8 6.7C6.3 7.2 6 7.7 6 8.4V23.5C6 24.1 6.3 24.7 6.7 25.2C7.1 25.6 7.7 25.9 8.4 25.9H23.5C24.2 25.9 24.8 25.6 25.3 25.2C25.7 24.8 26 24.2 26 23.5V8.4C26 7.7 25.8 7.1 25.3 6.7ZM10.7 11.9C10.7 11.6 10.8 11.3 11 11.1C11.2 10.9 11.5 10.8 11.8 10.8H14.1V12H11.8V14.3H10.6V11.9H10.7ZM14.2 21.3H11.9C11.6 21.3 11.3 21.2 11.1 21C10.9 20.8 10.8 20.5 10.8 20.2V17.9H12V20.2H14.3V21.3H14.2ZM16.9 18.2C16.5 18.4 16 18.4 15.6 18.3C15.1 18.2 14.7 18 14.4 17.7C14.1 17.4 13.9 17 13.8 16.5C13.7 16 13.8 15.6 13.9 15.2C14.1 14.8 14.4 14.4 14.8 14.2C15.2 13.9 15.6 13.8 16.1 13.8C16.7 13.8 17.3 14 17.8 14.5C18.2 14.9 18.5 15.5 18.5 16.2C18.5 16.7 18.4 17.1 18.1 17.5C17.7 17.7 17.3 18 16.9 18.2ZM21.3 20.1C21.3 20.4 21.2 20.7 21 20.9C20.8 21.1 20.5 21.2 20.2 21.2H17.9V20H20.2V17.7H21.4V20.1H21.3ZM21.3 14.2H20.1V11.9H17.8V10.7H20.1C20.3 10.7 20.4 10.7 20.5 10.8C20.6 10.9 20.8 10.9 20.9 11.1C21 11.2 21.1 11.3 21.2 11.5C21.3 11.6 21.3 11.8 21.3 11.9V14.2Z" fill="url(#paint0_linear_1651_637)"/>
<defs>
<linearGradient id="paint0_linear_1651_637" x1="16" y1="6" x2="16" y2="25.9" gradientUnits="userSpaceOnUse">
<stop stop-color="#3580E3"/>
<stop offset="0.49" stop-color="#8579F3"/>
<stop offset="1" stop-color="#B578EF"/>
</linearGradient>
</defs>
</svg>
