<?xml version="1.0" encoding="utf-8"?><!-- Uploaded to: SVG Repo, www.svgrepo.com, Generator: SVG Repo Mixer Tools -->
<svg width="32" height="32" viewBox="0 0 32 32" fill="none" xmlns="http://www.w3.org/2000/svg">
<path d="M9 12V6M6 9H12M19 10.99985L12.83447 12.76143C12.52956 12.84855 12.37711 12.8921 12.25117 12.97398C12.13969 13.04647 12.04379 13.14045 11.96907 13.25045C11.88466 13.3747 11.83803 13.52625 11.74477 13.82933L8 25.9998M8 25.9998L20.1705 22.2551C20.4736 22.1618 20.6251 22.1152 20.7494 22.0308C20.8594 21.9561 20.9534 21.8602 21.0259 21.7487C21.1077 21.6227 21.1513 21.4703 21.2384 21.1654L23 14.9998M8 25.9998L14.586 19.4138M25.8686 11.86848L22.1314 8.13122C21.7354 7.7352 21.5373 7.53719 21.309 7.46301C21.1082 7.39775 20.8918 7.39775 20.691 7.46301C20.4627 7.53719 20.2646 7.7352 19.8686 8.13122L19.1314 8.86848C18.7354 9.2645 18.5373 9.4625 18.4632 9.69083C18.3979 9.89168 18.3979 10.10802 18.4632 10.30887C18.5373 10.53719 18.7354 10.7352 19.1314 11.13122L22.8686 14.8685C23.2646 15.2645 23.4627 15.4625 23.691 15.5367C23.8918 15.6019 24.1082 15.6019 24.309 15.5367C24.5373 15.4625 24.7354 15.2645 25.1314 14.8685L25.8686 14.1312C26.2646 13.7352 26.4627 13.53719 26.5368 13.30887C26.6021 13.10802 26.6021 12.89168 26.5368 12.69083C26.4627 12.4625 26.2646 12.26449 25.8686 11.86848ZM16 15.9998C17.1046 15.9998 18 16.8953 18 17.9998C18 19.1044 17.1046 19.9998 16 19.9998C14.8954 19.9998 14 19.1044 14 17.9998C14 16.8953 14.8954 15.9998 16 15.9998Z" stroke="#737680" stroke-width="2" stroke-linecap="round" stroke-linejoin="round"/>
</svg>