<svg width="32" height="32" viewBox="0 0 32 32" fill="none" xmlns="http://www.w3.org/2000/svg">
<path d="M25.5996 12.0001C25.0996 10.7001 24.2996 9.6001 23.3996 8.6001C22.4996 7.6001 21.1996 6.9001 19.9996 6.4001C18.6996 5.9001 17.3996 5.6001 15.9996 5.6001C13.8996 5.6001 11.8996 6.2001 10.1996 7.3001C8.49961 8.4001 7.19961 10.1001 6.39961 12.0001C5.59961 13.9001 5.39961 16.0001 5.79961 18.0001C6.19961 20.0001 7.19961 21.9001 8.59961 23.3001C9.99961 24.7001 11.8996 25.7001 13.8996 26.1001C15.8996 26.5001 17.9996 26.3001 19.8996 25.5001C21.7996 24.7001 23.3996 23.4001 24.5996 21.7001C25.6996 20.0001 26.2996 18.0001 26.2996 15.9001C26.3996 14.6001 26.0996 13.3001 25.5996 12.0001ZM14.3996 20.6001C13.9996 21.0001 13.3996 21.3001 12.6996 21.3001C12.1996 21.3001 11.7996 21.2001 11.3996 21.0001C10.9996 20.8001 10.5996 20.5001 10.3996 20.1001C10.6996 20.1001 10.9996 20.0001 11.1996 19.8001C11.3996 19.6001 11.4996 19.3001 11.4996 19.0001C11.4996 18.5001 11.6996 18.1001 11.9996 17.8001C12.2996 17.5001 12.7996 17.3001 13.1996 17.3001C13.5996 17.3001 14.0996 17.5001 14.3996 17.8001C14.6996 18.1001 14.8996 18.6001 14.8996 19.0001C15.0996 19.6001 14.8996 20.1001 14.3996 20.6001ZM21.3996 12.5001L16.0996 17.8001L14.4996 16.2001L19.7996 10.9001C19.8996 10.8001 20.0996 10.7001 20.1996 10.7001C20.2996 10.7001 20.4996 10.8001 20.5996 10.9001L21.3996 11.7001C21.4996 11.8001 21.5996 12.0001 21.5996 12.1001C21.5996 12.2001 21.4996 12.4001 21.3996 12.5001Z" fill="#737680"/>
</svg>
