<svg width="32" height="32" viewBox="0 0 32 32" fill="none" xmlns="http://www.w3.org/2000/svg">
<rect width="32" height="32" fill="#B5B5B5" rx="7px" ry="7px"></rect>
<path d="M25.3 6.7C24.8 6.3 24.2 6 23.5 6H8.4C7.8 6 7.2 6.3 6.7 6.7C6.3 7.2 6 7.8 6 8.5V23.6C6 24.2 6.3 24.8 6.7 25.3C7.1 25.7 7.7 26 8.4 26H23.5C24.2 26 24.8 25.7 25.3 25.3C25.7 24.9 26 24.3 26 23.6V8.5C26 7.8 25.7 7.2 25.3 6.7ZM14.4 20.6C14 21 13.4 21.3 12.7 21.3C12.2 21.3 11.8 21.2 11.4 21C11 20.8 10.6 20.5 10.4 20.1C10.7 20.1 11 20 11.2 19.8C11.4 19.6 11.5 19.3 11.5 19C11.5 18.5 11.7 18.1 12 17.8C12.3 17.5 12.8 17.3 13.2 17.3C13.6 17.3 14.1 17.5 14.4 17.8C14.7 18.1 14.9 18.6 14.9 19C15.1 19.6 14.9 20.1 14.4 20.6ZM21.4 12.5L16.1 17.8L14.5 16.2L19.8 10.9C19.9 10.8 20.1 10.7 20.2 10.7C20.3 10.7 20.5 10.8 20.6 10.9L21.4 11.7C21.5 11.8 21.6 12 21.6 12.1C21.6 12.2 21.5 12.4 21.4 12.5Z" fill="url(#paint0_linear_1651_823)"/>
<defs>
<linearGradient id="paint0_linear_1651_823" x1="16" y1="6" x2="16" y2="26" gradientUnits="userSpaceOnUse">
<stop stop-color="#3580E3"/>
<stop offset="0.49" stop-color="#8579F3"/>
<stop offset="1" stop-color="#B578EF"/>
</linearGradient>
</defs>
</svg>
