<svg width="32" height="32" viewBox="0 0 32 32" fill="none" xmlns="http://www.w3.org/2000/svg">
<path d="M16.0005 15.7667C14.6005 15.7667 13.4532 15.3195 12.5588 14.4251C11.6643 13.5306 11.2171 12.3834 11.2171 10.9834C11.2171 9.56395 11.6643 8.40701 12.5588 7.51256C13.4532 6.61812 14.6005 6.1709 16.0005 6.1709C17.4005 6.1709 18.5525 6.61812 19.4567 7.51256C20.3609 8.40701 20.813 9.56395 20.813 10.9834C20.813 12.3834 20.3609 13.5306 19.4567 14.4251C18.5525 15.3195 17.4005 15.7667 16.0005 15.7667ZM6.25879 25.9459V22.7667C6.25879 21.9695 6.46296 21.2744 6.87129 20.6813C7.27962 20.0883 7.81434 19.6362 8.47546 19.3251C9.79768 18.7223 11.0713 18.2751 12.2963 17.9834C13.5213 17.6917 14.756 17.5459 16.0005 17.5459C17.2643 17.5459 18.5039 17.6966 19.7192 17.998C20.9345 18.2994 22.1935 18.7417 23.4963 19.3251C24.1768 19.6167 24.7262 20.0591 25.1442 20.6521C25.5623 21.2452 25.7713 21.9501 25.7713 22.7667V25.9459H6.25879Z" fill="#737680"/>
</svg>
