<svg width="32" height="32" viewBox="0 0 32 32" fill="none" xmlns="http://www.w3.org/2000/svg">
<rect width="32" height="32" fill="#B5B5B5" rx="7px" ry="7px"></rect>
<path d="M7.46506 15.6595C6.7759 15.6595 6.19277 15.4193 5.71566 14.939C5.23855 14.4587 5 13.8628 5 13.1512C5 12.4574 5.23855 11.8704 5.71566 11.3901C6.19277 10.9098 6.7759 10.6696 7.46506 10.6696C8.17189 10.6696 8.76386 10.9098 9.24096 11.3901C9.71807 11.8704 9.95663 12.4574 9.95663 13.1512C9.95663 13.8628 9.71807 14.4587 9.24096 14.939C8.76386 15.4193 8.17189 15.6595 7.46506 15.6595ZM12.5542 10.9632C11.8651 10.9632 11.2863 10.723 10.8181 10.2427C10.3498 9.76239 10.1157 9.17535 10.1157 8.48158C10.1157 7.7878 10.3542 7.20076 10.8313 6.72046C11.3084 6.24015 11.8916 6 12.5807 6C13.2699 6 13.853 6.24015 14.3301 6.72046C14.8072 7.20076 15.0458 7.7878 15.0458 8.48158C15.0458 9.17535 14.8072 9.76239 14.3301 10.2427C13.853 10.723 13.261 10.9632 12.5542 10.9632ZM19.4193 10.9632C18.7301 10.9632 18.147 10.723 17.6699 10.2427C17.1928 9.76239 16.9542 9.17535 16.9542 8.48158C16.9542 7.7878 17.1928 7.20076 17.6699 6.72046C18.147 6.24015 18.739 6 19.4458 6C20.1349 6 20.7181 6.24015 21.1952 6.72046C21.6723 7.20076 21.9108 7.7878 21.9108 8.48158C21.9108 9.17535 21.6679 9.76239 21.1819 10.2427C20.696 10.723 20.1084 10.9632 19.4193 10.9632ZM24.5349 15.6595C23.8281 15.6595 23.2361 15.4193 22.759 14.939C22.2819 14.4587 22.0434 13.8628 22.0434 13.1512C22.0434 12.4396 22.2819 11.8482 22.759 11.3767C23.2361 10.9053 23.8281 10.6696 24.5349 10.6696C25.2241 10.6696 25.8072 10.9098 26.2843 11.3901C26.7614 11.8704 27 12.4574 27 13.1512C27 13.8628 26.7614 14.4587 26.2843 14.939C25.8072 15.4193 25.2241 15.6595 24.5349 15.6595ZM10.2217 27C9.44418 27 8.80361 26.7065 8.3 26.1194C7.79639 25.5324 7.54458 24.8386 7.54458 24.0381C7.54458 23.2554 7.78313 22.5705 8.26024 21.9835C8.73735 21.3964 9.23213 20.8183 9.74458 20.249C10.1157 19.8221 10.4735 19.3907 10.8181 18.9549C11.1627 18.5191 11.494 18.061 11.812 17.5807C12.3422 16.7802 12.9341 16.0375 13.588 15.3526C14.2418 14.6677 15.0458 14.3253 16 14.3253C16.9542 14.3253 17.7627 14.6677 18.4253 15.3526C19.088 16.0375 19.6843 16.7891 20.2145 17.6074C20.5325 18.0699 20.855 18.5235 21.1819 18.9682C21.5088 19.413 21.8667 19.8399 22.2554 20.249C22.7679 20.8183 23.2626 21.3964 23.7398 21.9835C24.2169 22.5705 24.4554 23.2554 24.4554 24.0381C24.4554 24.8386 24.2036 25.5324 23.7 26.1194C23.1964 26.7065 22.5558 27 21.7783 27C20.8064 27 19.8434 26.9155 18.8892 26.7465C17.9349 26.5775 16.9719 26.493 16 26.493C15.0281 26.493 14.0651 26.5775 13.1108 26.7465C12.1566 26.9155 11.1936 27 10.2217 27Z" fill="url(#paint0_linear_1651_884)"/>
<defs>
<linearGradient id="paint0_linear_1651_884" x1="16" y1="6" x2="16" y2="27" gradientUnits="userSpaceOnUse">
<stop stop-color="#3580E3"/>
<stop offset="0.49" stop-color="#8579F3"/>
<stop offset="1" stop-color="#B578EF"/>
</linearGradient>
</defs>
</svg>
