<svg width="32" height="32" viewBox="0 0 32 32" fill="none" xmlns="http://www.w3.org/2000/svg">
<path d="M26.1 15.1002L21.7 7.5002C21.6 7.0002 21 6.7002 20.4 6.7002H11.7C11.1 6.7002 10.5 7.1002 10.2 7.6002L5.8 15.2002C5.4 15.7002 5.4 16.4002 5.8 17.0002L10.2 24.6002C10.6 25.1002 11.1 25.5002 11.7 25.5002H20.4C21 25.5002 21.6 25.1002 21.9 24.6002L26.3 17.0002C26.5 16.4002 26.5 15.6002 26.1 15.1002ZM10.7 11.9002C10.7 11.6002 10.8 11.3002 11 11.1002C11.2 10.9002 11.5 10.8002 11.8 10.8002H14.1V12.0002H11.8V14.3002H10.6V11.9002H10.7ZM14.2 21.3002H11.9C11.6 21.3002 11.3 21.2002 11.1 21.0002C10.9 20.8002 10.8 20.5002 10.8 20.2002V17.9002H12V20.2002H14.3V21.3002H14.2ZM16.9 18.2002C16.5 18.4002 16 18.4002 15.6 18.3002C15.1 18.2002 14.7 18.0002 14.4 17.7002C14.1 17.4002 13.9 17.0002 13.8 16.5002C13.7 16.0002 13.8 15.6002 13.9 15.2002C14.1 14.8002 14.4 14.4002 14.8 14.2002C15.2 13.9002 15.6 13.8002 16.1 13.8002C16.7 13.8002 17.3 14.0002 17.8 14.5002C18.2 14.9002 18.5 15.5002 18.5 16.2002C18.5 16.7002 18.4 17.1002 18.1 17.5002C17.7 17.7002 17.3 18.0002 16.9 18.2002ZM21.3 20.1002C21.3 20.4002 21.2 20.7002 21 20.9002C20.8 21.1002 20.5 21.2002 20.2 21.2002H17.9V20.0002H20.2V17.7002H21.4V20.1002H21.3ZM21.3 14.2002H20.1V11.9002H17.8V10.7002H20.1C20.3 10.7002 20.4 10.7002 20.5 10.8002C20.6 10.9002 20.8 10.9002 20.9 11.1002C21 11.2002 21.1 11.3002 21.2 11.5002C21.3 11.6002 21.3 11.8002 21.3 11.9002V14.2002Z" fill="#737680"/>
</svg>
