<svg width="32" height="32" viewBox="0 0 32 32" fill="none" xmlns="http://www.w3.org/2000/svg">
<path d="M16.3122 27C17.4705 27 18.5741 26.8229 19.6229 26.4687C20.6717 26.1144 21.5953 25.6132 22.3936 24.9651C23.192 24.3169 23.826 23.5218 24.2956 22.5797C24.7652 21.6375 25 20.5937 25 19.4481V14.0442C25 13.6824 24.8787 13.3847 24.636 13.1511C24.3934 12.9174 24.0843 12.8006 23.7086 12.8006C23.3329 12.8006 23.0237 12.9174 22.7811 13.1511C22.5384 13.3847 22.4171 13.6824 22.4171 14.0442V18.0462H22.558C21.2587 18.0764 20.2217 18.4834 19.4468 19.2672C18.672 20.051 18.2611 20.9479 18.2141 21.9579H17.2749C17.3218 20.7821 17.7132 19.7873 18.4489 18.9733C19.1846 18.1593 20.1943 17.6166 21.4779 17.3453V8.18808C21.4779 7.82631 21.3488 7.52107 21.0905 7.27235C20.8322 7.02364 20.5152 6.89928 20.1395 6.89928C19.7638 6.89928 19.4507 7.02364 19.2003 7.27235C18.9498 7.52107 18.8246 7.82631 18.8246 8.18808V15.4008H17.8854V6.2888C17.8854 5.92703 17.7562 5.62179 17.4979 5.37307C17.2396 5.12436 16.9227 5 16.547 5C16.1869 5 15.8738 5.12436 15.6077 5.37307C15.3416 5.62179 15.2086 5.92703 15.2086 6.2888V15.4008H14.2693V7.46454C14.2693 7.10277 14.1402 6.79753 13.8819 6.54882C13.6236 6.3001 13.3145 6.17575 12.9544 6.17575C12.5787 6.17575 12.2617 6.3001 12.0035 6.54882C11.7452 6.79753 11.616 7.10277 11.616 7.46454V15.1069H10.6768V10.11C10.6768 9.7482 10.5477 9.44296 10.2894 9.19424C10.0311 8.94553 9.71409 8.82117 9.3384 8.82117C8.96271 8.82117 8.64572 8.94553 8.38743 9.19424C8.12914 9.44296 8 9.7482 8 10.11V19.4481C8 20.5937 8.21524 21.6338 8.64572 22.5683C9.0762 23.5029 9.66713 24.298 10.4185 24.9538C11.1699 25.6095 12.0504 26.1144 13.0601 26.4687C14.0698 26.8229 15.1538 27 16.3122 27Z" fill="#737680"/>
</svg>
